<svg width="19" height="19" viewBox="0 0 19 19" fill="none" xmlns="http://www.w3.org/2000/svg">
<circle cx="9.5" cy="9.5" r="9.5" fill="#304357"/>
<path d="M11.3883 14.9286C11.4714 14.9286 11.5629 14.9038 11.6461 14.8624C11.9704 14.7136 12.1035 14.3497 11.9455 14.0272C11.9455 14.0272 10.7563 11.3233 10.54 10.331C10.4569 9.98371 10.407 9.06585 10.3903 8.63587C10.3903 8.48703 10.4735 8.35472 10.6066 8.31338L13.2677 7.51955C13.5921 7.43686 13.7833 7.06476 13.7002 6.74227C13.617 6.41978 13.2428 6.22959 12.9185 6.31228C12.9185 6.31228 10.4569 7.1061 9.56705 7.1061C8.70217 7.1061 6.25723 6.32882 6.25723 6.32882C5.9329 6.24613 5.56699 6.39497 5.45888 6.71746C5.35077 7.06476 5.54204 7.42859 5.89132 7.51128L8.55248 8.30511C8.68554 8.34645 8.79365 8.47876 8.7687 8.6276C8.74375 9.05759 8.70217 9.98371 8.61901 10.3227C8.40279 11.315 7.21359 14.019 7.21359 14.019C7.0639 14.3415 7.21359 14.7053 7.51297 14.8541C7.59613 14.8955 7.68761 14.9203 7.77077 14.9203C8.01193 14.9203 8.24479 14.788 8.33626 14.5565L9.60863 11.9765L10.8228 14.573C10.9309 14.7963 11.1471 14.9286 11.3883 14.9286Z" fill="white"/>
<path d="M9.6165 6.48583C10.2871 6.48583 10.8307 5.94532 10.8307 5.27856C10.8307 4.6118 10.2871 4.07129 9.6165 4.07129C8.94594 4.07129 8.40234 4.6118 8.40234 5.27856C8.40234 5.94532 8.94594 6.48583 9.6165 6.48583Z" fill="white"/>
</svg>
