<?xml version="1.0" encoding="utf-8"?>
<!-- Generator: Adobe Illustrator 25.4.1, SVG Export Plug-In . SVG Version: 6.00 Build 0)  -->
<svg version="1.1" id="Layer_1" xmlns="http://www.w3.org/2000/svg" xmlns:xlink="http://www.w3.org/1999/xlink" x="0px" y="0px"
	 viewBox="0 0 647 569.7" style="enable-background:new 0 0 647 569.7;" xml:space="preserve">
<style type="text/css">
	.st0{fill:#202532;filter:url(#Adobe_OpacityMaskFilter);}
	.st1{fill:#D9E8FE;}
	.st2{mask:url(#mask0_1251_45036_00000155108900082992698090000015348861981401422488_);}
	.st3{opacity:0.5;fill-rule:evenodd;clip-rule:evenodd;fill:url(#SVGID_1_);enable-background:new    ;}
	
		.st4{opacity:0.8;fill-rule:evenodd;clip-rule:evenodd;fill:url(#SVGID_00000152980379552269955550000012662480674682936452_);enable-background:new    ;}
</style>
<defs>
	<filter id="Adobe_OpacityMaskFilter" filterUnits="userSpaceOnUse" x="0" y="-41" width="776.4" height="610.7">
		<feColorMatrix  type="matrix" values="1 0 0 0 0  0 1 0 0 0  0 0 1 0 0  0 0 0 1 0"/>
	</filter>
</defs>
<mask maskUnits="userSpaceOnUse" x="0" y="-41" width="776.4" height="610.7" id="mask0_1251_45036_00000155108900082992698090000015348861981401422488_">
	<path class="st0" d="M-793,12c0-6.6,5.4-12,12-12H635c6.6,0,12,5.4,12,12v308H-793V12z"/>
	<path class="st1" d="M-793,12c0-6.6,5.4-12,12-12H635c6.6,0,12,5.4,12,12v308H-793V12z"/>
</mask>
<g class="st2">
	
		<linearGradient id="SVGID_1_" gradientUnits="userSpaceOnUse" x1="-55.8067" y1="70.9932" x2="397.5374" y2="-60.3498" gradientTransform="matrix(1 0 0 -1 0 322)">
		<stop  offset="0" style="stop-color:#FFFFFF;stop-opacity:0"/>
		<stop  offset="0.4037" style="stop-color:#FFFFFF"/>
		<stop  offset="0.6819" style="stop-color:#FFFFFF;stop-opacity:0"/>
	</linearGradient>
	<path class="st3" d="M239.3,569.7h162.2c86.3,0,146.4-85.8,116.9-166.9L458.1,237c-26.2-72.1-94.7-120-171.4-120H124.5
		C38.2,117-21.9,202.8,7.6,283.9l60.3,165.8C94.1,521.8,162.6,569.7,239.3,569.7z M239.3,477.5c-37.9,0-71.7-23.7-84.7-59.3
		L94.3,252.4c-7.6-21,7.9-43.2,30.2-43.2h162.2c37.9,0,71.7,23.7,84.7,59.3l60.3,165.8c7.6,21-7.9,43.2-30.2,43.2H239.3z"/>
	
		<linearGradient id="SVGID_00000136386470844101101860000012169448352632619653_" gradientUnits="userSpaceOnUse" x1="257.4178" y1="-147.9386" x2="630.0579" y2="237.5069" gradientTransform="matrix(1 0 0 -1 0 322)">
		<stop  offset="0" style="stop-color:#FFFFFF;stop-opacity:0"/>
		<stop  offset="1" style="stop-color:#FFFFFF;stop-opacity:0.64"/>
	</linearGradient>
	
		<path style="opacity:0.8;fill-rule:evenodd;clip-rule:evenodd;fill:url(#SVGID_00000136386470844101101860000012169448352632619653_);enable-background:new    ;" d="
		M319.4,502.4h154.2c72.9,0,138-45.6,162.9-114.1l132.8-270.6C797.3,40.6,740.2-41,658.1-41H503.9C431-41,365.9,4.6,341,73.1
		L208.2,343.7C180.2,420.8,237.3,502.4,319.4,502.4z M541.7,342.3c-9.6,26.4-34.7,43.9-62.7,43.9H358.8c-16.6,0-28.1-16.4-22.4-32
		L439,124.7c9.6-26.4,34.7-43.9,62.7-43.9h120.2c16.6,0,28.1,16.4,22.4,32L541.7,342.3z"/>
</g>
</svg>
