<svg width="36" height="36" viewBox="0 0 36 36" fill="none" xmlns="http://www.w3.org/2000/svg">
<path fill-rule="evenodd" clip-rule="evenodd" d="M2.98857 10.2128C2.27728 10.4034 1.85517 11.1346 2.04576 11.8458L2.49289 13.5145L28.0846 6.65721L27.6374 4.98857C27.4468 4.27728 26.7157 3.85517 26.0044 4.04576L2.98857 10.2128ZM28.8615 9.55665L3.26979 16.4139L6.0577 26.8186C6.24829 27.5299 6.97941 27.952 7.6907 27.7614L30.7066 21.5943C31.4179 21.4037 31.84 20.6726 31.6494 19.9613L28.8615 9.55665Z" fill="#2C3242"/>
<rect x="8.66675" y="16" width="25.3333" height="16" rx="1.33333" fill="#60D0FF"/>
<path fill-rule="evenodd" clip-rule="evenodd" d="M30.588 16H9.75896C9.15575 16 8.66675 16.489 8.66675 17.0922V27.4999L30.7067 21.5943C31.4179 21.4037 31.8401 20.6726 31.6495 19.9613L30.588 16Z" fill="#136EF8"/>
<circle cx="29.6666" cy="27.6667" r="2.33333" fill="white"/>
</svg>
