<svg width="48" height="48" viewBox="0 0 48 48" fill="none" xmlns="http://www.w3.org/2000/svg">
<rect x="20" y="13" width="22" height="28" rx="2.38993" fill="#60D0FF"/>
<path fill-rule="evenodd" clip-rule="evenodd" d="M9.80199 7C8.25449 7 7 8.25449 7 9.80199V33.198C7 34.7455 8.25449 36 9.80199 36H30.198C31.7455 36 33 34.7455 33 33.198V9.80199C33 8.25449 31.7455 7 30.198 7H9.80199ZM26.0783 17.2541C25.6915 16.8599 25.0583 16.8539 24.6641 17.2407C24.2699 17.6275 24.2639 18.2606 24.6507 18.6548L27.5989 21.6596L24.6507 24.6643C24.2639 25.0585 24.2699 25.6917 24.6641 26.0785C25.0583 26.4653 25.6915 26.4593 26.0783 26.0651L29.7137 22.3599L30.4009 21.6596L29.7137 20.9592L26.0783 17.2541ZM15.3356 17.2407C14.9414 16.8539 14.3082 16.8599 13.9214 17.2541L10.286 20.9592L9.59885 21.6596L10.286 22.3599L13.9214 26.0651C14.3082 26.4593 14.9414 26.4653 15.3356 26.0785C15.7298 25.6917 15.7358 25.0585 15.349 24.6643L12.4008 21.6596L15.349 18.6548C15.7358 18.2606 15.7298 17.6275 15.3356 17.2407ZM23.0658 17.4317C23.3071 16.9313 23.1017 16.3324 22.6071 16.094C22.1125 15.8556 21.516 16.0679 21.2747 16.5682L16.9343 25.5682C16.693 26.0686 16.8983 26.6675 17.3929 26.9059C17.8875 27.1443 18.4841 26.932 18.7254 26.4317L23.0658 17.4317Z" fill="#60D0FF"/>
<path fill-rule="evenodd" clip-rule="evenodd" d="M9.80199 7C8.25449 7 7 8.25449 7 9.80199V33.198C7 34.7455 8.25449 36 9.80199 36H30.198C31.7455 36 33 34.7455 33 33.198V9.80199C33 8.25449 31.7455 7 30.198 7H9.80199ZM26.0783 17.2541C25.6915 16.8599 25.0583 16.8539 24.6641 17.2407C24.2699 17.6275 24.2639 18.2606 24.6507 18.6548L27.5989 21.6596L24.6507 24.6643C24.2639 25.0585 24.2699 25.6917 24.6641 26.0785C25.0583 26.4653 25.6915 26.4593 26.0783 26.0651L29.7137 22.3599L30.4009 21.6596L29.7137 20.9592L26.0783 17.2541ZM15.3356 17.2407C14.9414 16.8539 14.3082 16.8599 13.9214 17.2541L10.286 20.9592L9.59885 21.6596L10.286 22.3599L13.9214 26.0651C14.3082 26.4593 14.9414 26.4653 15.3356 26.0785C15.7298 25.6917 15.7358 25.0585 15.349 24.6643L12.4008 21.6596L15.349 18.6548C15.7358 18.2606 15.7298 17.6275 15.3356 17.2407ZM23.0658 17.4317C23.3071 16.9313 23.1017 16.3324 22.6071 16.094C22.1125 15.8556 21.516 16.0679 21.2747 16.5682L16.9343 25.5682C16.693 26.0686 16.8983 26.6675 17.3929 26.9059C17.8875 27.1443 18.4841 26.932 18.7254 26.4317L23.0658 17.4317Z" fill="#136EF8"/>
<path fill-rule="evenodd" clip-rule="evenodd" d="M33 13H22.3899C21.07 13 20 14.07 20 15.3899V19.2113L21.2747 16.5682C21.516 16.0679 22.1125 15.8556 22.6071 16.094C23.1017 16.3324 23.3071 16.9313 23.0658 17.4317L20 23.7887V36H30.198C31.7455 36 33 34.7455 33 33.198V13ZM24.6641 17.2407C25.0583 16.8539 25.6915 16.8599 26.0783 17.2541L29.7137 20.9592L30.4009 21.6596L29.7137 22.3599L26.0783 26.0651C25.6915 26.4593 25.0583 26.4653 24.6641 26.0785C24.2699 25.6917 24.2639 25.0585 24.6507 24.6643L27.5989 21.6596L24.6507 18.6548C24.2639 18.2606 24.2699 17.6275 24.6641 17.2407Z" fill="#2C3242"/>
</svg>
