<?xml version="1.0" encoding="utf-8"?>
<!-- Generator: Adobe Illustrator 25.4.1, SVG Export Plug-In . SVG Version: 6.00 Build 0)  -->
<svg version="1.1" id="Layer_1" xmlns="http://www.w3.org/2000/svg" xmlns:xlink="http://www.w3.org/1999/xlink" x="0px" y="0px"
	 viewBox="0 0 13.5 22.2" style="enable-background:new 0 0 13.5 22.2;" xml:space="preserve">
<style type="text/css">
	.st0{fill:#304357;}
</style>
<g>
	<path class="st0" d="M6.8,13.5c3.7,0,6.8-3,6.8-6.8c0-3.7-3-6.8-6.8-6.8C3,0,0,3,0,6.8C0,10.5,3,13.5,6.8,13.5z"/>
	<path class="st0" d="M6.8,15.4c1.8,0,3.4-0.5,4.8-1.5v7.2c0,0.3-0.1,0.6-0.4,0.8c-0.2,0.2-0.5,0.2-0.7,0.1l-3.7-1.8L3,22.1
		c-0.2,0.1-0.5,0.1-0.7-0.1c-0.2-0.2-0.4-0.5-0.4-0.8V14C3.3,14.9,5,15.4,6.8,15.4z"/>
</g>
</svg>
