<svg width="48" height="48" viewBox="0 0 48 48" fill="none" xmlns="http://www.w3.org/2000/svg">
<path d="M2 16.4535C2 8.47106 8.47106 2 16.4535 2V2C24.436 2 30.907 8.47105 30.907 16.4535V30.907H16.4535C8.47107 30.907 2 24.436 2 16.4535V16.4535Z" fill="#136EF8"/>
<path d="M45.3594 30.9068C45.3594 38.8893 38.8883 45.3604 30.9059 45.3604V45.3604C22.9234 45.3603 16.4524 38.8893 16.4524 30.9069L16.4524 16.4533L30.9059 16.4533C38.8883 16.4533 45.3594 22.9244 45.3594 30.9068V30.9068Z" fill="#60D0FF"/>
<path fill-rule="evenodd" clip-rule="evenodd" d="M30.9065 16.4534C30.9065 16.4534 30.9065 16.4534 30.9065 16.4535V30.907H16.4531C16.4531 30.907 16.4531 30.9069 16.4531 30.9069L16.4531 16.4534L30.9065 16.4534Z" fill="#0047D8"/>
</svg>
