<svg width="36" height="36" viewBox="0 0 36 36" fill="none" xmlns="http://www.w3.org/2000/svg">
<path fill-rule="evenodd" clip-rule="evenodd" d="M5.75 10.5C4.23122 10.5 3 11.7312 3 13.25V28.375C3 29.8938 4.23122 31.125 5.75 31.125H25C26.5188 31.125 27.75 29.8938 27.75 28.375V13.25C27.75 11.7312 26.5188 10.5 25 10.5H5.75ZM5.48771 12.7096C5.18935 12.4748 4.75711 12.5263 4.52227 12.8247C4.28743 13.123 4.33892 13.5553 4.63729 13.7901L15.1188 22.0401C15.3715 22.239 15.7284 22.2362 15.9779 22.0332L26.1213 13.7832C26.4159 13.5437 26.4604 13.1106 26.2209 12.8161C25.9813 12.5215 25.5483 12.4769 25.2537 12.7165L15.537 20.6194L5.48771 12.7096Z" fill="#2C3242"/>
<path d="M33 12.5C33 16.0899 30.0899 19 26.5 19C22.9101 19 20 16.0899 20 12.5C20 8.91015 22.9101 6 26.5 6C30.0899 6 33 8.91015 33 12.5Z" fill="#60D0FF"/>
<path fill-rule="evenodd" clip-rule="evenodd" d="M17.6919 10.5H16.222C16.0766 11.1448 16 11.8139 16 12.5C16 14.7525 16.8252 16.8219 18.204 18.4502L19.3107 17.5501C18.1268 16.158 17.425 14.3949 17.425 12.5C17.425 11.8121 17.5175 11.1417 17.6919 10.5ZM21.969 17.1605L26.1213 13.7832C26.4159 13.5437 26.4604 13.1106 26.2209 12.8161C25.9813 12.5215 25.5483 12.4769 25.2537 12.7165L21.0894 16.1034C20.4012 15.0721 20 13.8329 20 12.5C20 11.8022 20.11 11.1301 20.3135 10.5H25C26.5188 10.5 27.75 11.7312 27.75 13.25V18.8799C27.3455 18.9587 26.9276 19 26.5 19C24.738 19 23.1397 18.2989 21.969 17.1605ZM27.75 20.4078C27.1865 20.5173 26.6013 20.575 26 20.575C23.7888 20.575 21.797 19.7952 20.2908 18.5254L19.1688 19.4379C20.9564 21.0271 23.3586 22 26 22C26.597 22 27.1818 21.9503 27.75 21.855V20.4078Z" fill="#136EF8"/>
<path d="M5.0625 13.25L15.5441 21.5L25.6875 13.25" stroke="#F2F9FC" stroke-width="1.5" stroke-linecap="round" stroke-linejoin="round"/>
</svg>
