<svg width="21" height="14" viewBox="0 0 21 14" fill="none" xmlns="http://www.w3.org/2000/svg">
<path fill-rule="evenodd" clip-rule="evenodd" d="M0 1.5C0 0.671573 0.671573 0 1.5 0H19.5C20.3284 0 21 0.671573 21 1.5V12C21 12.8284 20.3284 13.5 19.5 13.5H11.25H10.5H9.75H1.5C0.671575 13.5 0 12.8284 0 12V1.5ZM6 3.75C4.34315 3.75 3 5.09315 3 6.75C3 8.40685 4.34315 9.75 6 9.75C7.65685 9.75 9 8.40685 9 6.75C9 6.33579 8.66421 6 8.25 6C7.83579 6 7.5 6.33579 7.5 6.75C7.5 7.57843 6.82843 8.25 6 8.25C5.17157 8.25 4.5 7.57843 4.5 6.75C4.5 5.92157 5.17157 5.25 6 5.25C6.41421 5.25 6.75 4.91421 6.75 4.5C6.75 4.08579 6.41421 3.75 6 3.75ZM11.25 4.5C10.8358 4.5 10.5 4.83579 10.5 5.25C10.5 5.66421 10.8358 6 11.25 6H14.25C14.6642 6 15 5.66421 15 5.25C15 4.83579 14.6642 4.5 14.25 4.5H11.25ZM11.25 7.5C10.8358 7.5 10.5 7.83579 10.5 8.25C10.5 8.66421 10.8358 9 11.25 9H17.25C17.6642 9 18 8.66421 18 8.25C18 7.83579 17.6642 7.5 17.25 7.5H11.25Z" fill="#304357"/>
</svg>
