<svg width="64" height="64" viewBox="0 0 64 64" fill="none" xmlns="http://www.w3.org/2000/svg">
<g filter="url(#filter0_d_1568_51840)">
<g filter="url(#filter1_i_1568_51840)">
<path d="M28.8926 15.4807C28.8926 13.8833 30.1875 12.5884 31.7849 12.5884H46.6057C47.4215 12.5884 48.1994 12.9329 48.7476 13.537L53.6979 18.9922C54.1809 19.5243 54.4484 20.2172 54.4484 20.9358V44.4036C54.4484 46.001 53.1535 47.2959 51.5561 47.2959H31.7849C30.1875 47.2959 28.8926 46.001 28.8926 44.4036V15.4807Z" fill="url(#paint0_linear_1568_51840)"/>
</g>
<g filter="url(#filter2_i_1568_51840)">
<path fill-rule="evenodd" clip-rule="evenodd" d="M28.9584 37.6138C33.2132 39.7125 38.4907 38.8824 42.0584 35.1474C46.5841 30.4096 46.6449 22.7918 42.1943 18.1326C37.7437 13.4733 30.467 13.537 25.9414 18.2748C22.3733 22.01 21.5806 27.5355 23.5858 31.9898L14.9253 41.0563L20.2977 46.6805L28.9584 37.6138Z" fill="#60D0FF"/>
</g>
<path fill-rule="evenodd" clip-rule="evenodd" d="M28.8926 37.6835V16.0205C33.2235 13.6954 38.6205 14.3911 42.1948 18.1329C46.6454 22.7921 46.5845 30.4099 42.0589 35.1477C38.4912 38.8827 33.2137 39.7128 28.9589 37.6141L28.8926 37.6835Z" fill="url(#paint1_linear_1568_51840)"/>
</g>
<defs>
<filter id="filter0_d_1568_51840" x="6.2489" y="8.24994" width="56.8762" height="52.0613" filterUnits="userSpaceOnUse" color-interpolation-filters="sRGB">
<feFlood flood-opacity="0" result="BackgroundImageFix"/>
<feColorMatrix in="SourceAlpha" type="matrix" values="0 0 0 0 0 0 0 0 0 0 0 0 0 0 0 0 0 0 127 0" result="hardAlpha"/>
<feOffset dy="4.33844"/>
<feGaussianBlur stdDeviation="4.33844"/>
<feComposite in2="hardAlpha" operator="out"/>
<feColorMatrix type="matrix" values="0 0 0 0 0 0 0 0 0 0.25 0 0 0 0 1 0 0 0 0.17 0"/>
<feBlend mode="normal" in2="BackgroundImageFix" result="effect1_dropShadow_1568_51840"/>
<feBlend mode="normal" in="SourceGraphic" in2="effect1_dropShadow_1568_51840" result="shape"/>
</filter>
<filter id="filter1_i_1568_51840" x="28.8926" y="12.5884" width="25.5557" height="34.7075" filterUnits="userSpaceOnUse" color-interpolation-filters="sRGB">
<feFlood flood-opacity="0" result="BackgroundImageFix"/>
<feBlend mode="normal" in="SourceGraphic" in2="BackgroundImageFix" result="shape"/>
<feColorMatrix in="SourceAlpha" type="matrix" values="0 0 0 0 0 0 0 0 0 0 0 0 0 0 0 0 0 0 127 0" result="hardAlpha"/>
<feOffset dy="-0.65832"/>
<feComposite in2="hardAlpha" operator="arithmetic" k2="-1" k3="1"/>
<feColorMatrix type="matrix" values="0 0 0 0 0 0 0 0 0 0 0 0 0 0 0 0 0 0 0.25 0"/>
<feBlend mode="normal" in2="shape" result="effect1_innerShadow_1568_51840"/>
</filter>
<filter id="filter2_i_1568_51840" x="14.9258" y="14.6792" width="30.5674" height="32.0015" filterUnits="userSpaceOnUse" color-interpolation-filters="sRGB">
<feFlood flood-opacity="0" result="BackgroundImageFix"/>
<feBlend mode="normal" in="SourceGraphic" in2="BackgroundImageFix" result="shape"/>
<feColorMatrix in="SourceAlpha" type="matrix" values="0 0 0 0 0 0 0 0 0 0 0 0 0 0 0 0 0 0 127 0" result="hardAlpha"/>
<feOffset dx="-0.723074" dy="-0.723074"/>
<feComposite in2="hardAlpha" operator="arithmetic" k2="-1" k3="1"/>
<feColorMatrix type="matrix" values="0 0 0 0 0 0 0 0 0 0 0 0 0 0 0 0 0 0 0.25 0"/>
<feBlend mode="normal" in2="shape" result="effect1_innerShadow_1568_51840"/>
</filter>
<linearGradient id="paint0_linear_1568_51840" x1="41.6705" y1="12.5884" x2="41.6705" y2="47.2959" gradientUnits="userSpaceOnUse">
<stop stop-color="#3283FF"/>
<stop offset="1" stop-color="#1161D9"/>
</linearGradient>
<linearGradient id="paint1_linear_1568_51840" x1="37.193" y1="14.6797" x2="37.193" y2="38.743" gradientUnits="userSpaceOnUse">
<stop offset="0.358967" stop-color="#0047D8"/>
<stop offset="1" stop-color="#002E8D"/>
</linearGradient>
</defs>
</svg>
