<svg width="36" height="36" viewBox="0 0 36 36" fill="none" xmlns="http://www.w3.org/2000/svg">
<path fill-rule="evenodd" clip-rule="evenodd" d="M6 6C4.89543 6 4 6.89543 4 8V22C4 23.1046 4.89543 24 6 24H24C25.1046 24 26 23.1046 26 22V8C26 6.89543 25.1046 6 24 6H6ZM7 8.00002C6.44772 8.00002 6 8.44773 6 9.00002C6 9.5523 6.44772 10 7 10H23C23.5523 10 24 9.5523 24 9.00002C24 8.44773 23.5523 8.00002 23 8.00002H7Z" fill="#2C3242"/>
<path d="M12 16C12 14.8954 12.8954 14 14 14H29.5556C30.6601 14 31.5556 14.8954 31.5556 16V28C31.5556 29.1046 30.6601 30 29.5556 30H14C12.8954 30 12 29.1046 12 28V16Z" fill="#60D0FF"/>
<rect x="13.7773" y="15.7778" width="16" height="1.77778" rx="0.888889" fill="white"/>
<mask id="mask0" mask-type="alpha" maskUnits="userSpaceOnUse" x="4" y="6" width="22" height="18">
<path fill-rule="evenodd" clip-rule="evenodd" d="M6 6C4.89543 6 4 6.89543 4 8V22C4 23.1046 4.89543 24 6 24H24C25.1046 24 26 23.1046 26 22V8C26 6.89543 25.1046 6 24 6H6ZM7 8.00002C6.44772 8.00002 6 8.44773 6 9.00002C6 9.5523 6.44772 10 7 10H23C23.5523 10 24 9.5523 24 9.00002C24 8.44773 23.5523 8.00002 23 8.00002H7Z" fill="#2C3242"/>
</mask>
<g mask="url(#mask0)">
<path fill-rule="evenodd" clip-rule="evenodd" d="M14 14C12.8954 14 12 14.8954 12 16V28C12 29.1046 12.8954 30 14 30H29.5556C30.6601 30 31.5556 29.1046 31.5556 28V16C31.5556 14.8954 30.6601 14 29.5556 14H14ZM14.6665 15.7778C14.1756 15.7778 13.7776 16.1758 13.7776 16.6667C13.7776 17.1576 14.1756 17.5556 14.6665 17.5556H28.8887C29.3796 17.5556 29.7776 17.1576 29.7776 16.6667C29.7776 16.1758 29.3796 15.7778 28.8887 15.7778H14.6665Z" fill="#136EF8"/>
</g>
</svg>
