<svg width="57" height="57" viewBox="0 0 57 57" fill="none" xmlns="http://www.w3.org/2000/svg">
<path d="M33.1483 25.4727C35.3373 26.8974 35.3373 30.1029 33.1483 31.5276L13.5823 44.2617C11.1795 45.8255 7.99988 44.1012 7.99988 41.2343L7.99988 15.766C7.99988 12.8991 11.1795 11.1748 13.5823 12.7386L33.1483 25.4727Z" fill="#60D0FF"/>
<path d="M48.9998 28.5004C48.9998 37.0785 42.0458 44.0325 33.4677 44.0325C24.8895 44.0325 17.9355 37.0785 17.9355 28.5004C17.9355 19.9222 24.8895 12.9683 33.4677 12.9683C42.0458 12.9683 48.9998 19.9222 48.9998 28.5004Z" fill="#136EF8"/>
<path fill-rule="evenodd" clip-rule="evenodd" d="M33.1472 31.5269C35.3363 30.1022 35.3363 26.8968 33.1472 25.4721L21.8869 18.1436C19.4267 20.8917 17.9307 24.521 17.9307 28.4998C17.9307 32.4784 19.4266 36.1076 21.8867 38.8557L33.1472 31.5269Z" fill="#0047D8"/>
</svg>
