<svg width="64" height="64" viewBox="0 0 64 64" fill="none" xmlns="http://www.w3.org/2000/svg">
<g filter="url(#filter0_d_1568_51847)">
<g filter="url(#filter1_i_1568_51847)">
<path d="M36.7513 27.7601C38.9891 29.2848 38.9891 32.7152 36.7513 34.2399L16.7496 47.8679C14.2932 49.5415 11.0428 47.6961 11.0428 44.628L11.0428 17.372C11.0428 14.3039 14.2932 12.4585 16.7496 14.1321L36.7513 27.7601Z" fill="url(#paint0_linear_1568_51847)"/>
</g>
<g filter="url(#filter2_i_1568_51847)">
<path d="M52.9573 31.0003C52.9573 40.1805 45.8484 47.6226 37.0792 47.6226C28.31 47.6226 21.2012 40.1805 21.2012 31.0003C21.2012 21.82 28.31 14.3779 37.0792 14.3779C45.8484 14.3779 52.9573 21.82 52.9573 31.0003Z" fill="url(#paint1_linear_1568_51847)"/>
</g>
<path fill-rule="evenodd" clip-rule="evenodd" d="M36.8162 34.1952C39.0682 32.6608 39.0682 29.3404 36.8162 27.8059L25.239 19.918C22.7244 22.8589 21.1953 26.7426 21.1953 31.0003C21.1953 35.2581 22.7245 39.142 25.2393 42.083L36.8162 34.1952Z" fill="url(#paint2_linear_1568_51847)"/>
</g>
<defs>
<filter id="filter0_d_1568_51847" x="-0.25599" y="7.85052" width="64.512" height="57.5979" filterUnits="userSpaceOnUse" color-interpolation-filters="sRGB">
<feFlood flood-opacity="0" result="BackgroundImageFix"/>
<feColorMatrix in="SourceAlpha" type="matrix" values="0 0 0 0 0 0 0 0 0 0 0 0 0 0 0 0 0 0 127 0" result="hardAlpha"/>
<feOffset dy="5.64948"/>
<feGaussianBlur stdDeviation="5.64948"/>
<feComposite in2="hardAlpha" operator="out"/>
<feColorMatrix type="matrix" values="0 0 0 0 0 0 0 0 0 0.25 0 0 0 0 1 0 0 0 0.17 0"/>
<feBlend mode="normal" in2="BackgroundImageFix" result="effect1_dropShadow_1568_51847"/>
<feBlend mode="normal" in="SourceGraphic" in2="effect1_dropShadow_1568_51847" result="shape"/>
</filter>
<filter id="filter1_i_1568_51847" x="11.043" y="13.5" width="27.3867" height="35" filterUnits="userSpaceOnUse" color-interpolation-filters="sRGB">
<feFlood flood-opacity="0" result="BackgroundImageFix"/>
<feBlend mode="normal" in="SourceGraphic" in2="BackgroundImageFix" result="shape"/>
<feColorMatrix in="SourceAlpha" type="matrix" values="0 0 0 0 0 0 0 0 0 0 0 0 0 0 0 0 0 0 127 0" result="hardAlpha"/>
<feOffset dy="-0.94158"/>
<feComposite in2="hardAlpha" operator="arithmetic" k2="-1" k3="1"/>
<feColorMatrix type="matrix" values="0 0 0 0 0.0745098 0 0 0 0 0.431373 0 0 0 0 0.972549 0 0 0 0.25 0"/>
<feBlend mode="normal" in2="shape" result="effect1_innerShadow_1568_51847"/>
</filter>
<filter id="filter2_i_1568_51847" x="21.2012" y="14.3779" width="31.7559" height="33.2446" filterUnits="userSpaceOnUse" color-interpolation-filters="sRGB">
<feFlood flood-opacity="0" result="BackgroundImageFix"/>
<feBlend mode="normal" in="SourceGraphic" in2="BackgroundImageFix" result="shape"/>
<feColorMatrix in="SourceAlpha" type="matrix" values="0 0 0 0 0 0 0 0 0 0 0 0 0 0 0 0 0 0 127 0" result="hardAlpha"/>
<feOffset dy="-0.94158"/>
<feComposite in2="hardAlpha" operator="arithmetic" k2="-1" k3="1"/>
<feColorMatrix type="matrix" values="0 0 0 0 0 0 0 0 0 0 0 0 0 0 0 0 0 0 0.25 0"/>
<feBlend mode="normal" in2="shape" result="effect1_innerShadow_1568_51847"/>
</filter>
<linearGradient id="paint0_linear_1568_51847" x1="14.6403" y1="13.5" x2="14.6403" y2="48.3385" gradientUnits="userSpaceOnUse">
<stop stop-color="#60D0FF"/>
<stop offset="1" stop-color="#60D0FF"/>
</linearGradient>
<linearGradient id="paint1_linear_1568_51847" x1="37.0792" y1="14.3779" x2="37.0792" y2="47.6226" gradientUnits="userSpaceOnUse">
<stop stop-color="#3283FF"/>
<stop offset="1" stop-color="#1161D9"/>
</linearGradient>
<linearGradient id="paint2_linear_1568_51847" x1="29.8503" y1="19.918" x2="29.8503" y2="42.083" gradientUnits="userSpaceOnUse">
<stop offset="0.358967" stop-color="#0047D8"/>
<stop offset="1" stop-color="#002E8D"/>
</linearGradient>
</defs>
</svg>
