<svg width="36" height="36" viewBox="0 0 36 36" fill="none" xmlns="http://www.w3.org/2000/svg">
<path d="M2.33333 5C1.59695 5 1 5.59696 1 6.33333L1.00001 8.06084L27.4945 8.06084L27.4944 6.33333C27.4944 5.59695 26.8975 5 26.1611 5L2.33333 5Z" fill="#2C3242"/>
<path d="M27.4945 11.0626H1.00001L1 21.8343C1 22.5707 1.59695 23.1676 2.33333 23.1676L26.1611 23.1676C26.8975 23.1676 27.4944 22.5707 27.4944 21.8343L27.4945 11.0626Z" fill="#2C3242"/>
<path fill-rule="evenodd" clip-rule="evenodd" d="M24.8997 32.1802C30.1464 32.1802 34.3997 27.9269 34.3997 22.6802C34.3997 17.4335 30.1464 13.1802 24.8997 13.1802C19.653 13.1802 15.3997 17.4335 15.3997 22.6802C15.3997 27.9269 19.653 32.1802 24.8997 32.1802ZM24.8997 29.1573C28.477 29.1573 31.3769 26.2574 31.3769 22.6801C31.3769 19.1028 28.477 16.2028 24.8997 16.2028C21.3224 16.2028 18.4224 19.1028 18.4224 22.6801C18.4224 26.2574 21.3224 29.1573 24.8997 29.1573Z" fill="#60D0FF"/>
<path fill-rule="evenodd" clip-rule="evenodd" d="M21.2664 19.0468C21.6037 18.7096 22.1505 18.7096 22.4877 19.0468L24.4523 21.0114C24.595 20.9732 24.745 20.9529 24.8997 20.9529C25.5692 20.9529 26.1497 21.3338 26.4364 21.8907H29.7239C30.2009 21.8907 30.5875 22.2773 30.5875 22.7543C30.5875 23.2313 30.2009 23.6179 29.7239 23.6179H26.3505C26.0427 24.0931 25.5079 24.4074 24.8997 24.4074C23.9457 24.4074 23.1724 23.6341 23.1724 22.6802C23.1724 22.5254 23.1928 22.3754 23.2309 22.2327L21.2664 20.2682C20.9291 19.9309 20.9291 19.3841 21.2664 19.0468Z" fill="#60D0FF"/>
<path fill-rule="evenodd" clip-rule="evenodd" d="M27.4944 13.5389C26.6697 13.3053 25.7993 13.1802 24.8997 13.1802C19.653 13.1802 15.3997 17.4335 15.3997 22.6802C15.3997 22.8437 15.4038 23.0062 15.4119 23.1676H18.4405C18.4285 23.0067 18.4224 22.8441 18.4224 22.6801C18.4224 19.1028 21.3224 16.2028 24.8997 16.2028C25.8224 16.2028 26.7 16.3957 27.4944 16.7434V13.5389ZM27.4933 21.8907H26.4364C26.1497 21.3338 25.5692 20.9529 24.8997 20.9529C24.745 20.9529 24.595 20.9732 24.4523 21.0114L22.4878 19.0468C22.1505 18.7096 21.6037 18.7096 21.2664 19.0468C20.9291 19.3841 20.9291 19.9309 21.2664 20.2682L23.231 22.2327C23.1928 22.3754 23.1724 22.5254 23.1724 22.6802C23.1724 22.8494 23.1968 23.013 23.2422 23.1676H26.1611C26.8786 23.1676 27.4637 22.6009 27.4933 21.8907Z" fill="#2D7FFF"/>
</svg>
