<svg width="21" height="16" viewBox="0 0 21 16" fill="none" xmlns="http://www.w3.org/2000/svg">
<path fill-rule="evenodd" clip-rule="evenodd" d="M10.5 0.5L11.25 0.5L18.75 0.5C19.9926 0.5 21 1.50736 21 2.75V13.25C21 14.4926 19.9926 15.5 18.75 15.5L2.25 15.5C1.00736 15.5 0 14.4926 0 13.25V2.75C0 1.50736 1.00736 0.500001 2.25 0.500001L9.75 0.5L10.5 0.5ZM3 6.5C3 6.08579 3.33579 5.75 3.75 5.75H6.75C7.16421 5.75 7.5 6.08579 7.5 6.5V9.5C7.5 9.91421 7.16421 10.25 6.75 10.25H3.75C3.33579 10.25 3 9.91421 3 9.5V6.5ZM9.75 6.5C9.75 6.08579 10.0858 5.75 10.5 5.75L15.75 5.75C16.1642 5.75 16.5 6.08579 16.5 6.5C16.5 6.91422 16.1642 7.25 15.75 7.25L10.5 7.25C10.0858 7.25 9.75 6.91421 9.75 6.5ZM10.5 8.75C10.0858 8.75 9.75 9.08579 9.75 9.5C9.75 9.91421 10.0858 10.25 10.5 10.25H14.25C14.6642 10.25 15 9.91422 15 9.5C15 9.08579 14.6642 8.75 14.25 8.75H10.5Z" fill="#304357"/>
</svg>
