<svg width="18" height="21" viewBox="0 0 18 21" fill="none" xmlns="http://www.w3.org/2000/svg">
<path fill-rule="evenodd" clip-rule="evenodd" d="M2.25 15V3.75C1.00736 3.75 0 4.75736 0 6V18.75C0 19.9926 1.00736 21 2.25 21H12C13.2426 21 14.25 19.9926 14.25 18.75H6C3.92893 18.75 2.25 17.0711 2.25 15ZM15.75 17.25C16.9926 17.25 18 16.2426 18 15V5.12132C18 4.52458 17.7629 3.95229 17.341 3.53033L14.4697 0.65901C14.0477 0.237053 13.4754 0 12.8787 0H6C4.75736 0 3.75 1.00736 3.75 2.25V15C3.75 16.2426 4.75736 17.25 6 17.25H15.75ZM15.2071 7.20711C15.5976 6.81658 15.5976 6.18342 15.2071 5.79289C14.8166 5.40237 14.1834 5.40237 13.7929 5.79289L9.5 10.0858L8.70711 9.29289C8.31658 8.90237 7.68342 8.90237 7.29289 9.29289C6.90237 9.68342 6.90237 10.3166 7.29289 10.7071L8.79289 12.2071C9.18342 12.5976 9.81658 12.5976 10.2071 12.2071L15.2071 7.20711Z" fill="#304357"/>
</svg>
