<svg width="36" height="36" viewBox="0 0 36 36" fill="none" xmlns="http://www.w3.org/2000/svg">
<circle r="4.11531" transform="matrix(-1 0 0 1 11.7146 8.68635)" fill="#136EF8"/>
<circle r="4.11531" transform="matrix(-1 0 0 1 18.0149 8.68635)" fill="#60D0FF"/>
<path fill-rule="evenodd" clip-rule="evenodd" d="M14.8653 6.03882C14.2634 6.75442 13.9008 7.67797 13.9008 8.68622C13.9008 9.69446 14.2634 10.618 14.8653 11.3336C15.4672 10.618 15.8297 9.69446 15.8297 8.68622C15.8297 7.67797 15.4672 6.75442 14.8653 6.03882Z" fill="#2C3242"/>
<circle r="4.11531" transform="matrix(-1 0 0 1 11.7146 8.68635)" fill="#2C3242"/>
<path d="M7.59925 17.7275C7.59925 20.0582 7.59925 32.4377 11.7146 32.4377C15.8299 32.4377 15.8299 20.0582 15.8299 17.7275C15.8299 15.3968 13.9874 13.5073 11.7146 13.5073C9.44173 13.5073 7.59925 15.3968 7.59925 17.7275Z" fill="#2C3242"/>
<circle r="4.11531" transform="matrix(-1 0 0 1 24.2866 8.68635)" fill="#2C3242"/>
<path d="M20.1713 17.7272C20.1713 20.058 20.1713 32.4375 24.2866 32.4375C28.4019 32.4375 28.4019 20.058 28.4019 17.7272C28.4019 15.3965 26.5595 13.5071 24.2866 13.5071C22.0138 13.5071 20.1713 15.3965 20.1713 17.7272Z" fill="#2C3242"/>
<circle r="4.11531" transform="matrix(-1 0 0 1 18.0148 8.68635)" fill="#60D0FF"/>
<path d="M13.8995 17.7272C13.8995 20.058 13.8995 32.4375 18.0148 32.4375C22.1301 32.4375 22.1301 20.058 22.1301 17.7272C22.1301 15.3965 20.2876 13.5071 18.0148 13.5071C15.742 13.5071 13.8995 15.3965 13.8995 17.7272Z" fill="#60D0FF"/>
<path fill-rule="evenodd" clip-rule="evenodd" d="M21.1507 6.02124C20.5399 6.73927 20.1713 7.66973 20.1713 8.68628C20.1713 9.70283 20.5399 10.6333 21.1507 11.3513C21.7615 10.6333 22.1301 9.70283 22.1301 8.68628C22.1301 7.66973 21.7615 6.73927 21.1507 6.02124ZM21.1507 14.9942C20.5399 15.7305 20.1713 16.6847 20.1713 17.7272C20.1713 19.1715 20.1713 24.4749 21.1507 28.2998C22.1301 24.4749 22.1301 19.1715 22.1301 17.7272C22.1301 16.6847 21.7615 15.7305 21.1507 14.9942Z" fill="#136EF8"/>
<path fill-rule="evenodd" clip-rule="evenodd" d="M14.8647 6.03809C14.2623 6.7538 13.8995 7.6777 13.8995 8.68635C13.8995 9.695 14.2623 10.6189 14.8647 11.3346C15.467 10.6189 15.8299 9.695 15.8299 8.68635C15.8299 7.6777 15.467 6.7538 14.8647 6.03809ZM14.8646 15.0116C14.2623 15.7456 13.8995 16.6929 13.8995 17.7272C13.8995 19.1646 13.8995 24.4237 14.8647 28.2442C15.8299 24.4238 15.8299 19.1648 15.8299 17.7275C15.8299 16.6931 15.4669 15.7456 14.8646 15.0116Z" fill="#136EF8"/>
</svg>
