<svg width="48" height="48" viewBox="0 0 48 48" fill="none" xmlns="http://www.w3.org/2000/svg">
<path fill-rule="evenodd" clip-rule="evenodd" d="M19.0773 19.3333C21.6547 19.3333 23.744 17.244 23.744 14.6667C23.744 12.0893 21.6547 10 19.0773 10C16.5 10 14.4107 12.0893 14.4107 14.6667C14.4107 17.244 16.5 19.3333 19.0773 19.3333ZM18.1976 20.8889C14.2789 20.8889 11.0199 23.9038 10.7154 27.8107L10.003 36.9522C9.95897 37.5172 10.4056 38 10.9723 38H26.7488C27.3193 38 27.7672 37.511 27.7173 36.9426L26.9079 27.7365C26.5672 23.8613 23.3219 20.8889 19.4318 20.8889H18.1976Z" fill="#136EF8"/>
<path fill-rule="evenodd" clip-rule="evenodd" d="M19.0773 19.3333C21.6547 19.3333 23.744 17.244 23.744 14.6667C23.744 12.0893 21.6547 10 19.0773 10C16.5 10 14.4107 12.0893 14.4107 14.6667C14.4107 17.244 16.5 19.3333 19.0773 19.3333ZM18.1976 20.8889C14.2789 20.8889 11.0199 23.9038 10.7154 27.8107L10.003 36.9522C9.95897 37.5172 10.4056 38 10.9723 38H26.7488C27.3193 38 27.7672 37.511 27.7173 36.9426L26.9079 27.7365C26.5672 23.8613 23.3219 20.8889 19.4318 20.8889H18.1976Z" fill="#2C3242"/>
<path d="M29.3201 34.03C29.3201 34.4709 29.6775 34.8283 30.1184 34.8283H31.5116C31.9525 34.8283 32.3099 34.4709 32.3099 34.03V28.497H37.8429C38.2838 28.497 38.6412 28.1396 38.6412 27.6987V26.1296C38.6412 25.6887 38.2838 25.3313 37.8429 25.3313H32.3099V19.7983C32.3099 19.3574 31.9525 19 31.5116 19H30.1184C29.6775 19 29.3201 19.3574 29.3201 19.7983V25.3313H23.787C23.3462 25.3313 22.9888 25.6887 22.9888 26.1296V27.6987C22.9888 28.1396 23.3462 28.497 23.787 28.497H29.3201V34.03Z" fill="#136EF8"/>
<path fill-rule="evenodd" clip-rule="evenodd" d="M26.285 25.3313H23.787C23.3462 25.3313 22.9888 25.6887 22.9888 26.1296V27.6987C22.9888 28.1396 23.3462 28.497 23.787 28.497H26.9748L26.9079 27.7365C26.8329 26.8837 26.6173 26.0746 26.285 25.3313Z" fill="#60D0FF"/>
</svg>
