<svg width="39" height="36" viewBox="0 0 39 36" fill="none" xmlns="http://www.w3.org/2000/svg">
<path d="M25.8215 5H7.76133C6.2381 5 5 6.23917 5 7.76133V25.8215C5 27.3437 6.2381 28.5828 7.76133 28.5828H25.8215C27.3447 28.5828 28.5828 27.3437 28.5828 25.8215V7.76133C28.5828 6.23917 27.3447 5 25.8215 5V5ZM17.8634 17.6661V21.0792C17.8634 21.6709 17.3842 22.1511 16.7914 22.1511C16.1986 22.1511 15.7195 21.6709 15.7195 21.0792V17.6661C14.4749 17.2223 13.5756 16.0432 13.5756 14.6475C13.5756 12.8745 15.0184 11.4317 16.7914 11.4317C18.5644 11.4317 20.0073 12.8745 20.0073 14.6475C20.0073 16.0432 19.1079 17.2223 17.8634 17.6661V17.6661Z" fill="#2C3242"/>
<path d="M26.6324 12.3844C29.7405 12.3844 32.269 14.9129 32.269 18.0211C32.269 20.1441 31.0734 22.0772 29.1945 23.0368L29.1945 32.0141C29.1945 32.15 29.1407 32.2802 29.0445 32.3764L26.9947 34.4262C26.7944 34.6265 26.4703 34.6265 26.27 34.4262L24.2202 32.3764C24.124 32.2802 24.0702 32.15 24.0702 32.0141L24.0705 30.989C24.0705 30.8326 24.142 30.6847 24.2648 30.5874L24.8791 30.1005L24.188 29.2658C24.0309 29.0761 24.0309 28.8023 24.188 28.6126L24.8791 27.7779L24.2645 27.2913C24.1484 27.2029 24.0798 27.0656 24.0709 26.9195C24.0628 26.7733 24.1169 26.6307 24.2202 26.5274L24.8949 25.8528L24.2325 25.1904C24.1363 25.0941 24.0825 24.9639 24.0825 24.828L24.0702 22.9819C22.1913 22.023 20.9949 20.1448 20.9957 18.0211C20.9956 14.9129 23.5242 12.3844 26.6324 12.3844ZM25.0952 15.9716C25.0952 16.8194 25.7845 17.5087 26.6323 17.5087C27.4801 17.5087 28.1694 16.8194 28.1694 15.9716C28.1694 15.1238 27.4801 14.4345 26.6323 14.4345C25.7845 14.4345 25.0953 15.1238 25.0952 15.9716Z" fill="#60D0FF"/>
<path fill-rule="evenodd" clip-rule="evenodd" d="M28.5828 12.7326C27.9748 12.5077 27.3176 12.3848 26.6323 12.3848C23.5242 12.3848 20.9956 14.9133 20.9956 18.0215C20.9949 20.1452 22.1913 22.0235 24.0702 22.9824L24.0825 24.8284C24.0824 24.9643 24.1362 25.0945 24.2325 25.1908L24.8949 25.8532L24.2202 26.5278C24.1169 26.6311 24.0627 26.7737 24.0709 26.9199C24.0798 27.066 24.1484 27.2033 24.2644 27.2917L24.8791 27.7783L24.2128 28.5831H25.8215C27.3447 28.5831 28.5828 27.3439 28.5828 25.8218V12.7326ZM26.6323 17.5091C25.7845 17.5091 25.0952 16.8198 25.0952 15.972C25.0952 15.1242 25.7845 14.4349 26.6323 14.4349C27.4801 14.4349 28.1694 15.1242 28.1694 15.972C28.1694 16.8198 27.4801 17.5091 26.6323 17.5091Z" fill="#136EF8"/>
</svg>
