<svg width="36" height="36" viewBox="0 0 36 36" fill="none" xmlns="http://www.w3.org/2000/svg">
<rect x="4.5" y="4.5" width="18.225" height="24.3" rx="1.5" fill="#2C3242"/>
<path fill-rule="evenodd" clip-rule="evenodd" d="M14.7754 7.20001C13.947 7.20001 13.2754 7.87159 13.2754 8.70001V30C13.2754 30.8284 13.947 31.5 14.7754 31.5H30.0004C30.8288 31.5 31.5004 30.8284 31.5004 30V8.70001C31.5004 7.87159 30.8288 7.20001 30.0004 7.20001H14.7754ZM25.4253 9.9C25.0525 9.9 24.7503 10.2022 24.7503 10.575C24.7503 10.9478 25.0525 11.25 25.4253 11.25L28.8003 11.25C29.1731 11.25 29.4753 10.9478 29.4753 10.575C29.4753 10.2022 29.1731 9.9 28.8003 9.9L25.4253 9.9ZM24.7503 24.75C24.7503 24.3772 25.0525 24.075 25.4253 24.075L28.8003 24.075C29.1731 24.075 29.4753 24.3772 29.4753 24.75C29.4753 25.1228 29.1731 25.425 28.8003 25.425H25.4253C25.0525 25.425 24.7503 25.1228 24.7503 24.75ZM15.9752 9.9C15.6024 9.9 15.3002 10.2022 15.3002 10.575C15.3002 10.9478 15.6024 11.25 15.9752 11.25L22.0502 11.25C22.423 11.25 22.7252 10.9478 22.7252 10.575C22.7252 10.2022 22.423 9.9 22.0502 9.9L15.9752 9.9ZM15.3002 18C15.3002 17.6272 15.6024 17.325 15.9752 17.325H28.8002C29.173 17.325 29.4752 17.6272 29.4752 18C29.4752 18.3728 29.173 18.675 28.8002 18.675L15.9752 18.675C15.6024 18.675 15.3002 18.3728 15.3002 18ZM15.9752 20.7C15.6024 20.7 15.3002 21.0022 15.3002 21.375C15.3002 21.7478 15.6024 22.05 15.9752 22.05L28.8002 22.05C29.173 22.05 29.4752 21.7478 29.4752 21.375C29.4752 21.0022 29.173 20.7 28.8002 20.7H15.9752ZM15.3002 28.125C15.3002 27.7522 15.6024 27.45 15.9752 27.45L28.8002 27.45C29.173 27.45 29.4752 27.7522 29.4752 28.125C29.4752 28.4978 29.173 28.8 28.8002 28.8H15.9752C15.6024 28.8 15.3002 28.4978 15.3002 28.125ZM15.9752 24.075C15.6024 24.075 15.3002 24.3772 15.3002 24.75C15.3002 25.1228 15.6024 25.425 15.9752 25.425H22.7252C23.098 25.425 23.4002 25.1228 23.4002 24.75C23.4002 24.3772 23.098 24.075 22.7252 24.075L15.9752 24.075Z" fill="#60D0FF"/>
<path fill-rule="evenodd" clip-rule="evenodd" d="M22.725 7.19998V27.3C22.725 28.1284 22.0534 28.8 21.225 28.8H13.2754V8.69998C13.2754 7.87156 13.947 7.19998 14.7754 7.19998H22.725Z" fill="#136EF8"/>
<path fill-rule="evenodd" clip-rule="evenodd" d="M24.75 10.575C24.75 10.2022 25.0522 9.89999 25.425 9.89999L28.8 9.89999C29.1728 9.89999 29.475 10.2022 29.475 10.575C29.475 10.9478 29.1728 11.25 28.8 11.25L25.425 11.25C25.0522 11.25 24.75 10.9478 24.75 10.575Z" fill="white"/>
<path fill-rule="evenodd" clip-rule="evenodd" d="M24.75 24.75C24.75 24.3772 25.0522 24.075 25.425 24.075L28.8 24.075C29.1728 24.075 29.475 24.3772 29.475 24.75C29.475 25.1228 29.1728 25.425 28.8 25.425L25.425 25.425C25.0522 25.425 24.75 25.1228 24.75 24.75Z" fill="white"/>
<path fill-rule="evenodd" clip-rule="evenodd" d="M15.2998 10.575C15.2998 10.2022 15.602 9.89999 15.9748 9.89999L22.0498 9.89999C22.4226 9.89999 22.7248 10.2022 22.7248 10.575C22.7248 10.9478 22.4226 11.25 22.0498 11.25L15.9748 11.25C15.602 11.25 15.2998 10.9478 15.2998 10.575Z" fill="white"/>
<path fill-rule="evenodd" clip-rule="evenodd" d="M15.2998 18C15.2998 17.6272 15.602 17.325 15.9748 17.325L28.7998 17.325C29.1726 17.325 29.4748 17.6272 29.4748 18C29.4748 18.3728 29.1726 18.675 28.7998 18.675L15.9748 18.675C15.602 18.675 15.2998 18.3728 15.2998 18Z" fill="white"/>
<path fill-rule="evenodd" clip-rule="evenodd" d="M15.2998 21.375C15.2998 21.0022 15.602 20.7 15.9748 20.7L28.7998 20.7C29.1726 20.7 29.4748 21.0022 29.4748 21.375C29.4748 21.7478 29.1726 22.05 28.7998 22.05L15.9748 22.05C15.602 22.05 15.2998 21.7478 15.2998 21.375Z" fill="white"/>
<path fill-rule="evenodd" clip-rule="evenodd" d="M15.2998 28.125C15.2998 27.7522 15.602 27.45 15.9748 27.45L28.7998 27.45C29.1726 27.45 29.4748 27.7522 29.4748 28.125C29.4748 28.4978 29.1726 28.8 28.7998 28.8L15.9748 28.8C15.602 28.8 15.2998 28.4978 15.2998 28.125Z" fill="white"/>
<path fill-rule="evenodd" clip-rule="evenodd" d="M15.2998 24.75C15.2998 24.3772 15.602 24.075 15.9748 24.075L22.7248 24.075C23.0976 24.075 23.3998 24.3772 23.3998 24.75C23.3998 25.1228 23.0976 25.425 22.7248 25.425L15.9748 25.425C15.602 25.425 15.2998 25.1228 15.2998 24.75Z" fill="white"/>
</svg>
