<svg width="48" height="48" viewBox="0 0 48 48" fill="none" xmlns="http://www.w3.org/2000/svg">
<path fill-rule="evenodd" clip-rule="evenodd" d="M26.6607 4.42711C25.2217 3.59656 23.449 3.59656 22.01 4.42711L19.6643 5.78102C19.2988 5.99197 18.9063 6.1522 18.4976 6.25731L15.8971 6.92612C14.267 7.34537 12.9905 8.61249 12.5593 10.2395L11.8951 12.7455C11.7846 13.1621 11.6169 13.5613 11.3965 13.9317L10.0835 16.1392C9.21175 17.6047 9.21175 19.4298 10.0835 20.8953L11.3965 23.1027C11.6169 23.4732 11.7846 23.8724 11.8951 24.289L12.5593 26.795C12.9905 28.422 14.267 29.6891 15.8971 30.1083L18.4976 30.7772C18.9063 30.8823 19.2988 31.0425 19.6643 31.2535L22.01 32.6074C23.449 33.4379 25.2217 33.4379 26.6607 32.6074L29.0065 31.2535C29.3719 31.0425 29.7644 30.8823 30.1731 30.7772L32.7736 30.1083C34.4037 29.6891 35.6802 28.422 36.1115 26.795L36.7757 24.289C36.8861 23.8724 37.0539 23.4732 37.2742 23.1027L38.5872 20.8953C39.459 19.4298 39.459 17.6047 38.5872 16.1392L37.2742 13.9317C37.0539 13.5613 36.8861 13.1621 36.7757 12.7455L36.1115 10.2395C35.6802 8.61249 34.4037 7.34537 32.7736 6.92612L30.1731 6.25732C29.7644 6.1522 29.3719 5.99197 29.0065 5.78102L26.6607 4.42711ZM30.4294 18.5172C30.4294 21.8827 27.7012 24.6109 24.3357 24.6109C20.9702 24.6109 18.2419 21.8827 18.2419 18.5172C18.2419 15.1517 20.9702 12.4234 24.3357 12.4234C27.7012 12.4234 30.4294 15.1517 30.4294 18.5172ZM34.3357 18.5172C34.3357 24.04 29.8585 28.5172 24.3357 28.5172C18.8128 28.5172 14.3357 24.04 14.3357 18.5172C14.3357 12.9943 18.8128 8.51717 24.3357 8.51717C29.8585 8.51717 34.3357 12.9943 34.3357 18.5172Z" fill="#136EF8"/>
<path d="M41.9379 39.3815L32.7314 23.9141C31.1156 26.4249 28.4681 28.0883 25.5049 28.4546L24.9977 28.5173L34.2043 43.9847L35.4335 37.2517L41.9379 39.3815Z" fill="#60D0FF"/>
<path d="M6.7935 39.3815L16 23.9141C17.6158 26.4249 20.2633 28.0883 23.2266 28.4546L23.7337 28.5173L14.5272 43.9847L13.298 37.2517L6.7935 39.3815Z" fill="#60D0FF"/>
<path fill-rule="evenodd" clip-rule="evenodd" d="M21.4813 32.3021L19.6642 31.2533C19.2987 31.0423 18.9062 30.8821 18.4975 30.777L15.897 30.1082C14.8556 29.8403 13.9585 29.2265 13.334 28.3938L16.0004 23.9141C17.6162 26.4249 20.2637 28.0883 23.227 28.4546L23.7341 28.5173L21.4813 32.3021Z" fill="#2C3242"/>
<path fill-rule="evenodd" clip-rule="evenodd" d="M35.37 28.3479C34.7442 29.2038 33.8335 29.8353 32.7731 30.108L30.1727 30.7768C29.764 30.8819 29.3715 31.0421 29.006 31.2531L27.2343 32.2757L24.9971 28.5171L25.5042 28.4544C28.4674 28.0881 31.1149 26.4246 32.7308 23.9138L35.37 28.3479Z" fill="#2C3242"/>
</svg>
