<svg width="19" height="17" viewBox="0 0 19 17" fill="none" xmlns="http://www.w3.org/2000/svg">
<path fill-rule="evenodd" clip-rule="evenodd" d="M0 2.9585C0 1.64682 1.06332 0.583496 2.375 0.583496H16.625C17.9367 0.583496 19 1.64682 19 2.9585V14.0418C19 15.3535 17.9367 16.4168 16.625 16.4168H2.375C1.06332 16.4168 0 15.3535 0 14.0418V2.9585ZM5.2058 7.42126C5.90127 6.78373 6.8954 6.80877 7.41227 7.37262C7.70771 7.69493 8.20849 7.7167 8.5308 7.42126C8.8531 7.12581 8.87487 6.62503 8.57943 6.30273C7.35463 4.96658 5.34042 5.14995 4.1359 6.2541C2.79975 7.4789 2.98312 9.4931 4.08727 10.6976C5.28483 12.0041 7.31062 11.9675 8.55564 10.7225C8.86481 10.4133 8.86481 9.91205 8.55564 9.60288C8.24647 9.29372 7.74522 9.29372 7.43605 9.60288C6.78107 10.2579 5.79853 10.2213 5.25443 9.62773C4.6169 8.93225 4.64194 7.93812 5.2058 7.42126ZM11.5391 7.42126C12.2346 6.78373 13.2287 6.80877 13.7456 7.37262C14.041 7.69493 14.5418 7.7167 14.8641 7.42126C15.1864 7.12581 15.2082 6.62503 14.9128 6.30273C13.688 4.96658 11.6738 5.14995 10.4692 6.2541C9.13309 7.4789 9.31646 9.4931 10.4206 10.6976C11.6182 12.0041 13.644 11.9675 14.889 10.7225C15.1981 10.4133 15.1981 9.91205 14.889 9.60288C14.5798 9.29372 14.0786 9.29372 13.7694 9.60288C13.1144 10.2579 12.1319 10.2213 11.5878 9.62773C10.9502 8.93225 10.9753 7.93812 11.5391 7.42126Z" fill="#304357"/>
</svg>
