<svg width="36" height="36" viewBox="0 0 36 36" fill="none" xmlns="http://www.w3.org/2000/svg">
<rect x="15" y="9.75" width="16.5" height="21" rx="1.79245" fill="#60D0FF"/>
<path fill-rule="evenodd" clip-rule="evenodd" d="M7.35149 5.25C6.19087 5.25 5.25 6.19087 5.25 7.35149V24.8985C5.25 26.0591 6.19087 27 7.35149 27H22.6485C23.8091 27 24.75 26.0591 24.75 24.8985V7.35149C24.75 6.19087 23.8091 5.25 22.6485 5.25H7.35149ZM19.5589 12.9406C19.2688 12.6449 18.794 12.6404 18.4983 12.9305C18.2026 13.2206 18.1981 13.6955 18.4882 13.9911L20.6994 16.2447L18.4882 18.4983C18.1981 18.7939 18.2026 19.2688 18.4983 19.5589C18.794 19.849 19.2688 19.8445 19.5589 19.5488L22.2855 16.77L22.8008 16.2447L22.2855 15.7194L19.5589 12.9406ZM11.5017 12.9305C11.206 12.6404 10.7312 12.6449 10.4411 12.9406L7.71454 15.7194L7.19915 16.2447L7.71454 16.77L10.4411 19.5488C10.7312 19.8445 11.206 19.849 11.5017 19.5589C11.7974 19.2688 11.8019 18.7939 11.5118 18.4983L9.30061 16.2447L11.5118 13.9911C11.8019 13.6955 11.7974 13.2206 11.5017 12.9305ZM17.2995 13.0737C17.4805 12.6985 17.3265 12.2493 16.9556 12.0705C16.5846 11.8917 16.1372 12.0509 15.9562 12.4262L12.7009 19.1762C12.5199 19.5514 12.6739 20.0006 13.0449 20.1794C13.4159 20.3582 13.8633 20.199 14.0442 19.8237L17.2995 13.0737Z" fill="#60D0FF"/>
<path fill-rule="evenodd" clip-rule="evenodd" d="M7.35149 5.25C6.19087 5.25 5.25 6.19087 5.25 7.35149V24.8985C5.25 26.0591 6.19087 27 7.35149 27H22.6485C23.8091 27 24.75 26.0591 24.75 24.8985V7.35149C24.75 6.19087 23.8091 5.25 22.6485 5.25H7.35149ZM19.5589 12.9406C19.2688 12.6449 18.794 12.6404 18.4983 12.9305C18.2026 13.2206 18.1981 13.6955 18.4882 13.9911L20.6994 16.2447L18.4882 18.4983C18.1981 18.7939 18.2026 19.2688 18.4983 19.5589C18.794 19.849 19.2688 19.8445 19.5589 19.5488L22.2855 16.77L22.8008 16.2447L22.2855 15.7194L19.5589 12.9406ZM11.5017 12.9305C11.206 12.6404 10.7312 12.6449 10.4411 12.9406L7.71454 15.7194L7.19915 16.2447L7.71454 16.77L10.4411 19.5488C10.7312 19.8445 11.206 19.849 11.5017 19.5589C11.7974 19.2688 11.8019 18.7939 11.5118 18.4983L9.30061 16.2447L11.5118 13.9911C11.8019 13.6955 11.7974 13.2206 11.5017 12.9305ZM17.2995 13.0737C17.4805 12.6985 17.3265 12.2493 16.9556 12.0705C16.5846 11.8917 16.1372 12.0509 15.9562 12.4262L12.7009 19.1762C12.5199 19.5514 12.6739 20.0006 13.0449 20.1794C13.4159 20.3582 13.8633 20.199 14.0442 19.8237L17.2995 13.0737Z" fill="#2C3242"/>
<path fill-rule="evenodd" clip-rule="evenodd" d="M24.75 9.75H16.7924C15.8025 9.75 15 10.5525 15 11.5424V14.4089L15.9562 12.4262C16.1372 12.0509 16.5846 11.8917 16.9556 12.0705C17.3265 12.2493 17.4805 12.6985 17.2995 13.0737L15 17.842V27H22.6485C23.8091 27 24.75 26.0591 24.75 24.8985V9.75ZM18.4983 12.9305C18.794 12.6404 19.2688 12.6449 19.5589 12.9406L22.2855 15.7194L22.8008 16.2447L22.2855 16.77L19.5589 19.5488C19.2688 19.8445 18.794 19.849 18.4983 19.5589C18.2026 19.2688 18.1981 18.7939 18.4882 18.4983L20.6994 16.2447L18.4882 13.9911C18.1981 13.6955 18.2026 13.2206 18.4983 12.9305Z" fill="#136EF8"/>
</svg>
