<svg width="36" height="36" viewBox="0 0 36 36" fill="none" xmlns="http://www.w3.org/2000/svg">
<path d="M7.13083 18.3432L13.8783 6.26101C14.1855 5.7108 14.9775 5.71185 15.2834 6.26288L21.9987 18.363C25.146 24.0339 21.045 31 14.5592 31C8.06345 31 3.9636 24.0145 7.13083 18.3432Z" fill="#136EF8"/>
<path d="M16.8936 16.9519L22.6511 7.66426C22.8402 7.35909 23.2844 7.35971 23.4728 7.66541L29.2042 16.9691C32.174 21.79 28.7058 28 23.0436 28C17.3723 28 13.9056 21.7722 16.8936 16.9519Z" fill="#60D0FF"/>
<path fill-rule="evenodd" clip-rule="evenodd" d="M19.1745 13.2734L21.9989 18.3625C23.7892 21.5884 23.2341 25.2334 21.2288 27.7768C16.6777 26.6238 14.2405 21.2329 16.8942 16.9521L19.1745 13.2734Z" fill="#2C3242"/>
</svg>
