<svg width="18" height="17" viewBox="0 0 18 17" fill="none" xmlns="http://www.w3.org/2000/svg">
<path d="M11.4545 0.818182C11.4545 0.526524 11.2993 0.256919 11.047 0.110528C10.7948 -0.0358626 10.4837 -0.0369016 10.2304 0.107801L4.69181 3.27273H0.818182C0.366312 3.27273 0 3.63904 0 4.09091V12.2727C0 12.7246 0.366312 13.0909 0.818182 13.0909H4.69181L10.2304 16.2558C10.4837 16.4005 10.7948 16.3995 11.047 16.2531C11.2993 16.1067 11.4545 15.8371 11.4545 15.5455V0.818182Z" fill="#304357"/>
<path d="M16.1969 2.77766C15.9234 2.4179 15.4101 2.3479 15.0504 2.62132C14.6906 2.89474 14.6206 3.40803 14.894 3.7678C16.2871 5.60081 16.3636 7.59157 16.3636 8.18182C16.3636 10.5347 15.2645 12.0765 14.8797 12.6154C14.617 12.9831 14.7022 13.494 15.0699 13.7567C15.4376 14.0193 15.9486 13.9342 16.2112 13.5665L16.2126 13.5645C16.6474 12.9558 18 11.0622 18 8.18182C18 7.46298 17.9129 5.03556 16.1969 2.77766Z" fill="#304357"/>
<path d="M13.7636 5.26156C13.5064 4.89003 12.9967 4.79736 12.6252 5.05457C12.2537 5.31178 12.161 5.82147 12.4182 6.19299C13.0287 7.07476 13.0909 7.95618 13.0909 8.18182C13.0909 8.71621 12.974 9.16225 12.8363 9.49458C12.7673 9.66093 12.6943 9.79579 12.631 9.89576C12.5994 9.94565 12.5715 9.98495 12.5492 10.0138C12.5381 10.0281 12.529 10.039 12.5223 10.0468C12.5161 10.054 12.5127 10.0575 12.5124 10.0578C12.5123 10.0579 12.5123 10.0579 12.5124 10.0578C12.1929 10.3773 12.1928 10.8954 12.5124 11.2149C12.8319 11.5344 13.3499 11.5344 13.6695 11.2149C14.068 10.8163 14.7273 9.70833 14.7273 8.18182C14.7273 7.75291 14.6259 6.50705 13.7636 5.26156Z" fill="#304357"/>
</svg>
