<?xml version="1.0" encoding="utf-8"?>
<!-- Generator: Adobe Illustrator 25.4.1, SVG Export Plug-In . SVG Version: 6.00 Build 0)  -->
<svg version="1.1" id="Layer_1" xmlns="http://www.w3.org/2000/svg" xmlns:xlink="http://www.w3.org/1999/xlink" x="0px" y="0px"
	 viewBox="0 0 20.4 15.8" style="enable-background:new 0 0 20.4 15.8;" xml:space="preserve">
<style type="text/css">
	.st0{fill:#304357;}
	.st1{fill-rule:evenodd;clip-rule:evenodd;fill:#304357;}
</style>
<g>
	<path class="st0" d="M7.2,0C4.8,0,2.7,2,2.7,4.5C2.7,7,4.8,9,7.2,9c2.5,0,4.5-2,4.5-4.5C11.7,2,9.7,0,7.2,0z"/>
	<path class="st0" d="M15.5,3.8c-0.9,0-1.8,0.4-2.4,1c-0.6,0.6-1,1.4-1,2.3c0,0.9,0.4,1.7,1,2.3c0.6,0.6,1.4,1,2.4,1
		c0.9,0,1.8-0.4,2.4-1c0.6-0.6,1-1.4,1-2.3c0-0.9-0.4-1.7-1-2.3C17.3,4.2,16.4,3.8,15.5,3.8z"/>
	<path class="st0" d="M7.2,9.8c-3.1,0-6,1.4-7.1,3.5C-0.2,13.9,0,14.6,0.4,15c0.4,0.4,1,0.7,1.6,0.7h10.5c0.6,0,1.2-0.3,1.6-0.7
		c0.4-0.5,0.6-1.2,0.2-1.8c-0.2-0.4-0.5-0.8-0.8-1.1C12.1,10.6,9.8,9.8,7.2,9.8z"/>
	<path class="st1" d="M15.8,15.1c-0.1,0.3,0.1,0.6,0.4,0.6h2.3c0.6,0,1.2-0.3,1.6-0.7c0.2-0.2,0.3-0.5,0.3-0.9c0-0.4-0.1-0.7-0.4-1
		c-1-1.2-2.8-1.9-4.5-1.9c-0.3,0-0.4,0.3-0.3,0.6c0.2,0.2,0.3,0.5,0.4,0.7C16.1,13.4,16.1,14.3,15.8,15.1z"/>
</g>
</svg>
