<svg width="57" height="57" viewBox="0 0 57 57" fill="none" xmlns="http://www.w3.org/2000/svg">
<path fill-rule="evenodd" clip-rule="evenodd" d="M41.4346 21.5671L18.2842 44.7176L5.82129 32.2546L12.5388 25.5371L18.2842 31.2825L34.7171 14.8496L41.4346 21.5671Z" fill="#60D0FF"/>
<path d="M17.8877 12.6667C17.8877 10.9178 19.3055 9.5 21.0544 9.5H38.299C39.1671 9.5 39.997 9.85631 40.5949 10.4856L46.3085 16.5C46.8676 17.0885 47.1794 17.8693 47.1794 18.681V44.3333C47.1794 46.0822 45.7616 47.5 44.0127 47.5H21.0544C19.3055 47.5 17.8877 46.0822 17.8877 44.3333V12.6667Z" fill="#136EF8"/>
<path fill-rule="evenodd" clip-rule="evenodd" d="M17.8887 44.3225V30.8875L18.2842 31.283L34.7171 14.8501L41.4346 21.5676L18.2842 44.718L17.8887 44.3225Z" fill="#0047D8"/>
</svg>
