<?xml version="1.0" encoding="utf-8"?>
<!-- Generator: Adobe Illustrator 25.4.1, SVG Export Plug-In . SVG Version: 6.00 Build 0)  -->
<svg version="1.1" id="Layer_1" xmlns="http://www.w3.org/2000/svg" xmlns:xlink="http://www.w3.org/1999/xlink" x="0px" y="0px"
	 viewBox="0 0 22.1 20.7" style="enable-background:new 0 0 22.1 20.7;" xml:space="preserve">
<style type="text/css">
	.st0{fill-rule:evenodd;clip-rule:evenodd;fill:#FFFFFF;}
	.st1{fill:#136EF8;}
	.st2{fill:#60D0FF;}
	.st3{fill:#2D7FFF;}
	.st4{fill:#0047D8;}
</style>
<g>
	<path class="st0" d="M14.5,19.8c0,0,0.1,0,0.1,0c0.3-0.1,0.6-0.4,0.7-0.7c0,0,0,0,0-0.1l5.8-16.4c0.3-0.8-0.3-1.8-1.2-1.8h-4.4
		c-1.1,0-2.1,0.7-2.5,1.7l-3.4,9L8.7,8.9c-0.4-1-1.4-1.7-2.5-1.7H2.1c-0.9,0-1.5,0.9-1.2,1.7l3.4,10l0.1,0.2
		c0.2,0.4,0.6,0.7,1.1,0.7h1h0h0c0.3,0,0.6,0,0.9,0c1.5,0,3.2,0,4.9,0c0,0,0.1,0,0.1,0c0.2,0,0.5,0,0.7,0v0H14h0c0,0,0,0,0,0h0
		c0,0,0,0,0,0c0,0,0,0,0,0c0,0,0,0,0,0c0,0,0,0,0,0h0.1l0.2,0c0,0,0.1,0,0.1,0c0,0,0,0,0,0c0,0,0,0,0,0
		C14.4,19.8,14.5,19.8,14.5,19.8z"/>
	<path class="st0" d="M14.1,20.7L14.1,20.7l0.2,0l0,0c0.1,0,0.1,0,0.2,0l0,0l0,0c0,0,0,0,0,0l0,0h0c0,0,0,0,0,0l0,0l0,0
		c0.1,0,0.1,0,0.2,0c0.1,0,0.1,0,0.2-0.1c0.5-0.2,0.9-0.6,1.2-1.2c0,0,0-0.1,0-0.1L22,2.9C22.5,1.5,21.5,0,20,0h-4.4
		c-1.4,0-2.7,0.9-3.2,2.2l0,0L9.7,9.3L9.4,8.6C8.9,7.2,7.6,6.4,6.2,6.4H2.1c-1.5,0-2.5,1.5-1.9,2.8l3.4,10l0.1,0.3l0,0
		c0.3,0.6,0.9,1.1,1.7,1.2c0.1,0,0.1,0,0.1,0h1h0h0c1.8,0,3.8,0,5.8,0H14C14,20.7,14,20.7,14.1,20.7L14.1,20.7L14.1,20.7z
		 M14.6,19.8c0,0-0.1,0-0.1,0c0,0-0.1,0-0.1,0c0,0,0,0,0,0c0,0,0,0,0,0c0,0-0.1,0-0.1,0l-0.2,0h-0.1l0,0c0,0,0,0,0,0c0,0,0,0,0,0
		c0,0,0,0,0,0h0c0,0,0,0,0,0c0,0,0,0,0,0c0,0,0,0,0,0h-0.8v0c-0.2,0-0.5,0-0.7,0l-0.1,0c-1.7,0-3.4,0-4.9,0c-0.3,0-0.6,0-0.9,0h0h0
		h-1c-0.5,0-0.9-0.3-1.1-0.7l-0.1-0.2l-3.4-10C0.6,8.1,1.2,7.2,2.1,7.2h4.1c1.1,0,2.1,0.7,2.5,1.7l1.1,2.6l3.4-9
		c0.4-1,1.4-1.7,2.5-1.7H20c0.9,0,1.5,0.9,1.2,1.8L15.4,19c0,0,0,0,0,0.1C15.2,19.4,14.9,19.6,14.6,19.8z"/>
	<path class="st1" d="M14.1,19.9c-0.3,0-0.6,0-0.9,0c-2.3,0-4.6,0-6.6,0l6.6-17.4c0.4-1,1.4-1.7,2.5-1.7h4.4c0.9,0,1.5,0.9,1.2,1.8
		L15.4,19c0,0,0,0,0,0.1c-0.1,0.3-0.4,0.6-0.7,0.7c0,0-0.1,0-0.1,0c0,0-0.1,0-0.1,0c0,0,0,0-0.1,0c0,0-0.1,0-0.1,0L14.1,19.9z"/>
	<path class="st2" d="M13.2,19.9c-2.3,0-4.6,0-6.6,0h-1c-0.5,0-0.9-0.3-1.1-0.7l-0.1-0.2l-3.4-10C0.6,8.1,1.2,7.2,2.1,7.2h4.1
		c1.1,0,2.1,0.7,2.5,1.7L12.9,19c0.2,0.5,0.6,0.9,1.1,0.9L13.2,19.9L13.2,19.9z"/>
	<path class="st3" d="M12.9,19c0.2,0.5,0.6,0.9,1.1,0.9h-0.8c-2.3,0-4.6,0-6.6,0l3.2-8.4L12.9,19z"/>
	<path class="st4" d="M14.1,19.9H14c-0.5,0-0.9-0.4-1.1-0.9l-3.1-7.6l1.4-3.8l2.2,10.6c0,0,0.1,1.2,1.1,1.5c0,0-0.1,0-0.1,0
		c0,0,0,0-0.1,0c0,0-0.1,0-0.1,0L14.1,19.9z"/>
</g>
</svg>
