<svg width="357" height="357" viewBox="0 0 357 357" fill="none" xmlns="http://www.w3.org/2000/svg">
<circle opacity="0.44" cx="178.5" cy="178.5" r="108.336" stroke="#B8CFF3" stroke-width="1.52586"/>
<circle opacity="0.44" cx="178.5" cy="178.5" r="144.448" stroke="#B8CFF3" stroke-opacity="0.6" stroke-width="1.52586"/>
<circle opacity="0.44" cx="178.5" cy="178.5" r="177.5" stroke="#B8CFF3" stroke-opacity="0.2" stroke-width="1.52586"/>
<rect x="38.9483" y="76.8966" width="296.853" height="188.517" rx="6.48347" fill="#D9E8FE"/>
<rect opacity="0.6" x="56.6983" y="110.564" width="261.013" height="13.2454" rx="6.62271" fill="white"/>
<rect opacity="0.6" x="56.6983" y="130.042" width="51.4234" height="119.209" rx="6.21559" fill="white"/>
<rect opacity="0.6" x="115.134" y="130.042" width="202.577" height="119.209" rx="6.21559" fill="white"/>
<circle cx="70.7228" cy="144.846" r="4.67486" fill="#B7CFF3"/>
<rect x="66.048" y="156.533" width="33.5031" height="3.11657" rx="1.55829" fill="#B7CFF3"/>
<rect x="66.048" y="163.545" width="33.5031" height="3.11657" rx="1.55829" fill="#B7CFF3"/>
<rect x="66.048" y="170.558" width="33.5031" height="3.11657" rx="1.55829" fill="#B7CFF3"/>
<rect x="66.048" y="177.57" width="33.5031" height="3.11657" rx="1.55829" fill="#B7CFF3"/>
<rect x="66.048" y="237.564" width="33.5031" height="3.11657" rx="1.55829" fill="#B7CFF3"/>
<rect x="128.379" y="237.564" width="52.9817" height="3.11657" rx="1.55829" fill="#B7CFF3"/>
<rect x="128.379" y="147.962" width="52.9817" height="3.11657" rx="1.55829" fill="#B7CFF3"/>
<rect x="128.379" y="140.95" width="72.4603" height="3.11657" rx="1.55829" fill="#B7CFF3"/>
<rect x="284.987" y="140.95" width="25.7117" height="10.1289" rx="5.06443" fill="#B7CFF3"/>
<circle cx="76.5905" cy="94.9526" r="2.75431" fill="#B7CFF3"/>
<circle cx="68.0215" cy="94.9526" r="2.75431" fill="#B7CFF3"/>
<circle cx="59.4526" cy="94.9526" r="2.75431" fill="#B7CFF3"/>
</svg>
