<svg width="82" height="101" viewBox="0 0 82 101" fill="none" xmlns="http://www.w3.org/2000/svg">
<path d="M14.1514 53.2974V67.0491C14.1514 67.6567 14.6439 68.1493 15.2515 68.1493H67.5081C68.1157 68.1493 68.6082 67.6567 68.6082 67.0491V53.2974C68.6082 52.6898 68.1157 52.1973 67.5081 52.1973H15.2515C14.6439 52.1973 14.1514 52.6898 14.1514 53.2974Z" fill="url(#paint0_linear_903_37220)" fill-opacity="0.1"/>
<path d="M2.45497 55.7028L5.80222 80.7028C6.00168 82.1925 7.2727 83.3047 8.77569 83.3047H11.5464H72.5819C74.0991 83.3047 75.3774 82.172 75.5601 80.6659L78.5923 55.6659C78.8091 53.8789 77.4142 52.3047 75.6142 52.3047H5.42844C3.61341 52.3047 2.21411 53.9038 2.45497 55.7028Z" fill="url(#paint1_linear_903_37220)"/>
<path d="M14.3018 54.4808L9.68118 68.5992H6.60079L12.7616 53.1973L14.3018 54.4808Z" fill="url(#paint2_linear_903_37220)"/>
<path d="M14.3018 54.8047L8.80106 68.0485V68.5986H14.3018V54.8047Z" fill="#6181AE"/>
<path d="M65.9067 54.8047L71.4074 68.0485V68.5986H65.9067V54.8047Z" fill="#6181AE"/>
<path d="M65.9067 54.4808L71.1874 68.5992H74.7078L67.667 53.1973L65.9067 54.4808Z" fill="url(#paint3_linear_903_37220)"/>
<path d="M2.63509 71.3047H79.4531C80.7955 71.3047 81.825 72.4964 81.63 73.8246L78.0181 98.424C77.8595 99.5042 76.9329 100.305 75.8411 100.305H7.09528C6.03151 100.305 5.12008 99.5437 4.9303 98.497L0.47011 73.8975C0.225282 72.5472 1.26276 71.3047 2.63509 71.3047Z" fill="url(#paint4_linear_903_37220)"/>
<path d="M78.5382 68.74L80.6615 71.5398C81.2109 72.2643 80.6942 73.3047 79.7849 73.3047H1.99672C1.13015 73.3047 0.603782 72.3493 1.06674 71.6168L2.83617 68.8171C3.03777 68.4981 3.38879 68.3047 3.76615 68.3047H77.6616C78.0058 68.3047 78.3302 68.4658 78.5382 68.74Z" fill="#E7F0FF"/>
<path d="M44.0191 91.3548L46.4396 88.4502C46.5441 88.3248 46.6989 88.2523 46.8621 88.2523H48.7604C49.2217 88.2523 49.4781 88.7858 49.19 89.146L45.6695 93.5465C45.5651 93.677 45.4071 93.753 45.24 93.753H21.8514C21.3228 93.753 21.0984 93.08 21.5213 92.7629L30.3224 86.162C30.6851 85.8901 31.2026 86.1488 31.2026 86.6021V88.0245C31.2026 88.1703 31.1446 88.3103 31.0414 88.4134L28.8412 90.6137C28.4946 90.9602 28.7401 91.5527 29.2301 91.5527H43.5965C43.7598 91.5527 43.9146 91.4802 44.0191 91.3548Z" fill="#A9C1E4"/>
<path d="M49.9053 87.1522V86.052C49.9053 85.7482 50.1515 85.502 50.4553 85.502H51.0054C51.3092 85.502 51.5555 85.7482 51.5555 86.052V88.8024C51.5555 89.1062 51.3092 89.3524 51.0054 89.3524H31.2029C30.8991 89.3524 30.6528 89.1062 30.6528 88.8024V86.052C30.6528 85.7482 30.8991 85.502 31.2029 85.502H32.303C32.6068 85.502 32.8531 85.7482 32.8531 86.052V87.1522C32.8531 87.456 33.0994 87.7022 33.4032 87.7022H49.3552C49.659 87.7022 49.9053 87.456 49.9053 87.1522Z" fill="#E6F0FF"/>
<path d="M20.2262 63.3721L30.2561 25.7531C30.343 25.4271 30.6579 25.2158 30.9925 25.259L48.2363 27.4838C48.4977 27.5175 48.7153 27.7008 48.7932 27.9526L59.7306 63.3473C59.8644 63.7802 59.5407 64.219 59.0876 64.219L20.8765 64.2185C20.4343 64.2185 20.1122 63.7994 20.2262 63.3721Z" fill="url(#paint5_linear_903_37220)" fill-opacity="0.6"/>
<path d="M43.8237 29.9451L44.0159 29.9533C47.8209 30.0629 48.9602 26.8984 49.0518 25.2759C49.1546 20.7501 49.4245 10.8313 49.6815 7.36311C49.9384 3.89488 47.0985 2.60924 45.6465 2.39995C46.369 2.45348 48.4317 2.58014 50.9018 2.65853C53.372 2.73691 54.1704 5.41442 54.2608 6.74338C54.1441 11.0648 53.8589 20.7586 53.6521 24.9628C53.4452 29.1671 50.7217 30.1946 49.3857 30.1828L44.0159 29.9533C43.9526 29.9515 43.8885 29.9487 43.8237 29.9451Z" fill="#0047D8"/>
<path d="M47.4067 2.77259C46.9005 2.50563 46.3406 2.3563 45.7687 2.33567L30.3965 1.91518C29.8249 1.89661 29.2568 2.0112 28.7371 2.24993C28.2157 2.49141 27.7468 2.83319 27.3574 3.25579C26.9504 3.70682 26.625 4.22522 26.3957 4.78781C26.1524 5.38506 26.0142 6.01988 25.9873 6.66421L25.3034 24.4143C25.2758 25.0654 25.3618 25.7164 25.5576 26.338C25.7392 26.9141 26.0243 27.4523 26.3989 27.9261C26.7568 28.3765 27.2013 28.7507 27.7062 29.0264C28.2067 29.2979 28.7633 29.4498 29.3324 29.4703L44.6875 30.0029C45.2622 30.0222 45.8339 29.9117 46.36 29.6795C46.8853 29.4381 47.3582 29.0961 47.7519 28.6728C48.1662 28.2246 48.4962 27.7054 48.726 27.14C48.9705 26.5431 49.1087 25.9081 49.1344 25.2636L49.8287 7.39569C49.8565 6.74218 49.7683 6.08893 49.568 5.46624C49.3833 4.88732 49.0938 4.34722 48.714 3.8729C48.3551 3.42347 47.9108 3.04952 47.4067 2.77259Z" fill="#136EF8"/>
<path d="M38.2615 8.16519L44.2139 9.693C44.5449 9.77829 44.7731 10.0816 44.762 10.4238L44.5245 17.7111C44.4768 19.1749 43.7004 20.5184 42.4561 21.2902L37.7383 24.2182L33.2212 20.9892C32.0291 20.1374 31.3425 18.7468 31.3902 17.2838L31.6277 9.99574C31.6389 9.65352 31.8864 9.36575 32.2223 9.30219L38.2615 8.16519Z" fill="white"/>
<path d="M40.7761 12.7713L41.775 13.8367L36.9799 18.3291L33.9848 15.1322L35.0502 14.134L37.0465 16.2648L40.7761 12.7713Z" fill="#136EF8"/>
<circle cx="31.0998" cy="35.6164" r="0.673024" fill="white"/>
<circle cx="43.2145" cy="45.0402" r="0.673024" fill="white"/>
<circle cx="53.6463" cy="35.9529" r="1.00954" fill="white"/>
<circle cx="38.5036" cy="36.2902" r="0.673024" fill="white"/>
<circle cx="28.7447" cy="31.9146" r="0.336512" fill="white"/>
<circle cx="36.8206" cy="42.0115" r="1.00954" fill="white"/>
<circle cx="33.4557" cy="36.6275" r="0.336512" fill="white"/>
<circle cx="42.2052" cy="33.9342" r="0.336512" fill="white"/>
<circle cx="44.8971" cy="46.7213" r="0.336512" fill="white"/>
<circle cx="53.6466" cy="39.3189" r="0.336512" fill="white"/>
<defs>
<linearGradient id="paint0_linear_903_37220" x1="41.3798" y1="52.1973" x2="41.3798" y2="68.1493" gradientUnits="userSpaceOnUse">
<stop stop-color="#002B83"/>
<stop offset="1" stop-color="#002B83" stop-opacity="0"/>
</linearGradient>
<linearGradient id="paint1_linear_903_37220" x1="41.4941" y1="52.3047" x2="41.4941" y2="83.3047" gradientUnits="userSpaceOnUse">
<stop stop-color="#002B83"/>
<stop offset="1"/>
</linearGradient>
<linearGradient id="paint2_linear_903_37220" x1="10.4513" y1="53.1973" x2="10.4513" y2="68.5992" gradientUnits="userSpaceOnUse">
<stop offset="0.0989583" stop-color="#E6F0FF" stop-opacity="0"/>
<stop offset="0.520833" stop-color="#E6F0FF"/>
</linearGradient>
<linearGradient id="paint3_linear_903_37220" x1="70.3073" y1="53.1973" x2="70.3073" y2="68.5992" gradientUnits="userSpaceOnUse">
<stop offset="0.114583" stop-color="#E6F0FF" stop-opacity="0"/>
<stop offset="0.520833" stop-color="#E6F0FF"/>
</linearGradient>
<linearGradient id="paint4_linear_903_37220" x1="41" y1="71.3047" x2="41" y2="100.305" gradientUnits="userSpaceOnUse">
<stop stop-color="#D9E8FE"/>
<stop offset="1" stop-color="#B9CEEC"/>
</linearGradient>
<linearGradient id="paint5_linear_903_37220" x1="40.1863" y1="27.5392" x2="40.1863" y2="64.219" gradientUnits="userSpaceOnUse">
<stop stop-color="#136EF8"/>
<stop offset="0.410587" stop-color="#8F74FB" stop-opacity="0.589413"/>
<stop offset="1" stop-color="white" stop-opacity="0"/>
</linearGradient>
</defs>
</svg>
