<svg width="772" height="529" viewBox="0 0 772 529" fill="none" xmlns="http://www.w3.org/2000/svg">
<g filter="url(#filter0_dd)">
<path d="M459 97.8444C459 90.1983 465.198 84 472.844 84H726.234C733.88 84 740.079 90.1984 740.079 97.8444V410.047C740.079 417.693 733.88 423.891 726.234 423.891H472.844C465.198 423.891 459 417.693 459 410.047V97.8444Z" fill="url(#paint0_linear)"/>
</g>
<path d="M479.143 181.446H483.713L485.426 176.876H493.138L494.852 181.446H499.422L491.71 161.452H486.855L479.143 181.446ZM486.855 173.02L489.225 166.451H489.339L491.71 173.02H486.855ZM501.271 181.446H505.555V174.876H509.553L513.124 181.446H517.836L513.695 174.019C513.695 174.019 517.122 172.734 517.122 168.164C517.122 164.166 514.409 161.452 510.125 161.452H501.271V181.446ZM505.555 170.878V165.451H509.982C511.553 165.451 512.695 166.593 512.695 168.164C512.695 169.735 511.553 170.878 509.982 170.878H505.555ZM520.552 181.446H524.836V161.452H520.552V181.446ZM526.695 181.446H531.265L532.979 176.876H540.69L542.404 181.446H546.974L539.262 161.452H534.407L526.695 181.446ZM534.407 173.02L536.777 166.451H536.892L539.262 173.02H534.407ZM558.239 181.731C559.667 181.731 560.81 181.303 560.81 181.303V177.733C560.81 177.733 560.096 178.018 559.239 178.018C558.097 178.018 557.382 177.304 557.382 176.019V171.306H560.524V167.736H557.382V163.452H553.955V166.022C553.955 167.165 553.384 167.736 552.384 167.736H551.099V171.306H553.527V176.59C553.527 179.875 555.383 181.731 558.239 181.731ZM566.255 181.731C568.968 181.731 570.396 179.732 570.396 179.732H570.539V181.446C571.396 181.446 574.395 181.446 574.395 181.446V172.734C574.395 169.592 571.967 167.165 568.397 167.165C564.684 167.165 562.684 169.878 562.684 169.878L564.969 172.163C564.969 172.163 566.112 170.592 568.111 170.592C569.539 170.592 570.396 171.449 570.539 172.449L566.112 173.248C563.541 173.705 561.97 175.448 561.97 177.733C561.97 180.017 563.684 181.731 566.255 181.731ZM567.54 178.589C566.397 178.589 565.826 178.018 565.826 177.161C565.826 176.447 566.397 175.905 567.397 175.733L570.539 175.162V175.448C570.539 177.304 569.254 178.589 567.54 178.589ZM583.107 187.444C587.534 187.444 590.676 184.302 590.676 180.017V167.45H586.82V169.45H586.677C586.677 169.45 585.392 167.165 582.393 167.165C579.251 167.165 576.395 170.021 576.395 174.162C576.395 178.304 579.251 181.16 582.393 181.16C585.392 181.16 586.677 178.875 586.677 178.875H586.82V180.017C586.82 182.302 585.249 183.873 583.107 183.873C580.822 183.873 579.394 182.16 579.394 182.16L576.966 184.587C576.966 184.587 578.966 187.444 583.107 187.444ZM583.536 177.59C581.679 177.59 580.251 176.162 580.251 174.162C580.251 172.163 581.679 170.735 583.536 170.735C585.392 170.735 586.82 172.163 586.82 174.162C586.82 176.162 585.392 177.59 583.536 177.59ZM598.091 181.731C601.947 181.731 603.946 179.732 603.946 177.304C603.946 172.734 596.806 173.02 596.806 171.449C596.806 171.02 597.234 170.592 598.234 170.592C600.233 170.592 601.376 171.734 601.376 171.734L603.661 169.307C603.661 169.307 601.804 167.165 598.234 167.165C594.664 167.165 592.664 169.164 592.664 171.449C592.664 176.019 599.805 175.733 599.805 177.304C599.805 177.875 599.376 178.304 598.091 178.304C595.806 178.304 594.378 176.733 594.378 176.733L592.093 179.161C592.093 179.161 594.235 181.731 598.091 181.731ZM614.372 181.731C617.086 181.731 618.514 179.732 618.514 179.732H618.657V181.446C619.514 181.446 622.513 181.446 622.513 181.446V172.734C622.513 169.592 620.085 167.165 616.515 167.165C612.802 167.165 610.802 169.878 610.802 169.878L613.087 172.163C613.087 172.163 614.23 170.592 616.229 170.592C617.657 170.592 618.514 171.449 618.657 172.449L614.23 173.248C611.659 173.705 610.088 175.448 610.088 177.733C610.088 180.017 611.802 181.731 614.372 181.731ZM615.658 178.589C614.515 178.589 613.944 178.018 613.944 177.161C613.944 176.447 614.515 175.905 615.515 175.733L618.657 175.162V175.448C618.657 177.304 617.372 178.589 615.658 178.589ZM625.37 181.446H629.226V174.019C629.226 172.163 630.511 170.878 632.225 170.878C633.796 170.878 634.795 171.877 634.795 173.591V181.446H638.651V173.02C638.651 169.45 636.366 167.165 633.51 167.165C630.797 167.165 629.369 169.45 629.369 169.45H629.226V167.45H625.37V181.446ZM646.926 181.731C649.925 181.731 651.354 179.446 651.354 179.446H651.496V181.446H655.352V161.452H651.496V169.45H651.354C651.354 169.45 649.925 167.165 646.926 167.165C643.642 167.165 640.643 170.164 640.643 174.448C640.643 178.732 643.642 181.731 646.926 181.731ZM648.069 178.161C646.07 178.161 644.499 176.59 644.499 174.448C644.499 172.306 646.07 170.735 648.069 170.735C650.068 170.735 651.639 172.306 651.639 174.448C651.639 176.59 650.068 178.161 648.069 178.161ZM486.283 210.731C489.282 210.731 490.71 208.446 490.71 208.446H490.853V210.446H494.709V190.452H490.853V198.45H490.71C490.71 198.45 489.282 196.165 486.283 196.165C482.999 196.165 480 199.164 480 203.448C480 207.732 482.999 210.731 486.283 210.731ZM487.426 207.161C485.426 207.161 483.856 205.59 483.856 203.448C483.856 201.306 485.426 199.735 487.426 199.735C489.425 199.735 490.996 201.306 490.996 203.448C490.996 205.59 489.425 207.161 487.426 207.161ZM504.281 210.731C508.422 210.731 511.707 207.447 511.707 203.448C511.707 199.449 508.422 196.165 504.281 196.165C500.139 196.165 496.855 199.449 496.855 203.448C496.855 207.447 500.139 210.731 504.281 210.731ZM504.281 207.161C502.281 207.161 500.71 205.59 500.71 203.448C500.71 201.306 502.281 199.735 504.281 199.735C506.28 199.735 507.851 201.306 507.851 203.448C507.851 205.59 506.28 207.161 504.281 207.161ZM520.271 210.731C524.27 210.731 526.126 207.875 526.126 207.875L523.698 205.447C523.698 205.447 522.413 207.161 520.271 207.161C518.272 207.161 516.701 205.59 516.701 203.448C516.701 201.306 518.272 199.735 520.271 199.735C522.413 199.735 523.698 201.449 523.698 201.449L526.126 199.021C526.126 199.021 524.27 196.165 520.271 196.165C516.129 196.165 512.845 199.449 512.845 203.448C512.845 207.447 516.129 210.731 520.271 210.731ZM532.825 210.731C535.538 210.731 536.966 208.446 536.966 208.446H537.109V210.446H540.965V196.45H537.109V203.876C537.109 205.733 535.824 207.018 534.11 207.018C532.539 207.018 531.539 206.018 531.539 204.305V196.45H527.684V204.876C527.684 208.446 529.969 210.731 532.825 210.731ZM543.813 210.446H547.669V202.734C547.669 201.02 548.812 199.878 550.383 199.878C551.811 199.878 552.668 200.734 552.668 202.305V210.446H556.523V202.734C556.523 201.02 557.666 199.878 559.237 199.878C560.665 199.878 561.522 200.734 561.522 202.305V210.446H565.378V201.734C565.378 198.307 563.235 196.165 560.522 196.165C557.523 196.165 555.952 198.592 555.952 198.592H555.809C555.809 198.592 554.667 196.165 551.668 196.165C548.954 196.165 547.812 198.45 547.812 198.45H547.669V196.45H543.813V210.446ZM574.796 210.731C578.652 210.731 580.794 208.446 580.794 208.446L578.795 205.733C578.795 205.733 577.51 207.304 575.082 207.304C572.94 207.304 571.797 206.161 571.369 204.876H581.508C581.508 204.876 581.651 204.162 581.651 203.162C581.651 199.306 578.509 196.165 574.654 196.165C570.655 196.165 567.37 199.449 567.37 203.448C567.37 207.447 570.655 210.731 574.796 210.731ZM571.369 202.02C571.797 200.734 572.94 199.592 574.511 199.592C576.082 199.592 577.224 200.734 577.653 202.02H571.369ZM583.659 210.446H587.515V203.019C587.515 201.163 588.801 199.878 590.514 199.878C592.085 199.878 593.085 200.877 593.085 202.591V210.446H596.941V202.02C596.941 198.45 594.656 196.165 591.8 196.165C589.086 196.165 587.658 198.45 587.658 198.45H587.515V196.45H583.659V210.446ZM605.365 210.731C606.794 210.731 607.936 210.303 607.936 210.303V206.733C607.936 206.733 607.222 207.018 606.365 207.018C605.223 207.018 604.509 206.304 604.509 205.019V200.306H607.65V196.736H604.509V192.452H601.081V195.022C601.081 196.165 600.51 196.736 599.51 196.736H598.225V200.306H600.653V205.59C600.653 208.875 602.509 210.731 605.365 210.731ZM613.381 210.731C616.094 210.731 617.522 208.732 617.522 208.732H617.665V210.446C618.522 210.446 621.521 210.446 621.521 210.446V201.734C621.521 198.592 619.093 196.165 615.523 196.165C611.81 196.165 609.81 198.878 609.81 198.878L612.095 201.163C612.095 201.163 613.238 199.592 615.237 199.592C616.665 199.592 617.522 200.449 617.665 201.449L613.238 202.248C610.667 202.705 609.096 204.448 609.096 206.733C609.096 209.017 610.81 210.731 613.381 210.731ZM614.666 207.589C613.523 207.589 612.952 207.018 612.952 206.161C612.952 205.447 613.523 204.905 614.523 204.733L617.665 204.162V204.448C617.665 206.304 616.38 207.589 614.666 207.589ZM629.954 210.731C631.382 210.731 632.525 210.303 632.525 210.303V206.733C632.525 206.733 631.811 207.018 630.954 207.018C629.812 207.018 629.098 206.304 629.098 205.019V200.306H632.239V196.736H629.098V192.452H625.67V195.022C625.67 196.165 625.099 196.736 624.099 196.736H622.814V200.306H625.242V205.59C625.242 208.875 627.098 210.731 629.954 210.731ZM634.678 210.446H638.534V196.45H634.678V210.446ZM636.592 194.594C637.82 194.594 638.82 193.594 638.82 192.452C638.82 191.309 637.82 190.309 636.62 190.309C635.392 190.309 634.393 191.309 634.393 192.452C634.393 193.594 635.392 194.594 636.592 194.594ZM647.95 210.731C652.091 210.731 655.376 207.447 655.376 203.448C655.376 199.449 652.091 196.165 647.95 196.165C643.808 196.165 640.523 199.449 640.523 203.448C640.523 207.447 643.808 210.731 647.95 210.731ZM647.95 207.161C645.95 207.161 644.379 205.59 644.379 203.448C644.379 201.306 645.95 199.735 647.95 199.735C649.949 199.735 651.52 201.306 651.52 203.448C651.52 205.59 649.949 207.161 647.95 207.161ZM657.371 210.446H661.226V203.019C661.226 201.163 662.512 199.878 664.225 199.878C665.796 199.878 666.796 200.877 666.796 202.591V210.446H670.652V202.02C670.652 198.45 668.367 196.165 665.511 196.165C662.797 196.165 661.369 198.45 661.369 198.45H661.226V196.45H657.371V210.446Z" fill="white"/>
<path d="M486.813 137.606C489.859 137.606 491.462 135.362 491.462 135.362L490.34 134.239C490.34 134.239 489.138 136.003 486.813 136.003C484.489 136.003 482.645 134.159 482.645 131.835C482.645 129.51 484.489 127.667 486.813 127.667C489.138 127.667 490.26 129.35 490.26 129.35L491.382 128.228C491.382 128.228 489.859 126.064 486.813 126.064C483.447 126.064 480.882 128.629 480.882 131.835C480.882 135.041 483.447 137.606 486.813 137.606ZM493.388 137.446H494.991V133.278C494.991 131.995 495.872 131.113 497.075 131.113C498.117 131.113 498.838 131.835 498.838 132.957V137.446H500.441V132.957C500.441 130.873 499.159 129.59 497.395 129.59C495.792 129.59 494.991 130.873 494.991 130.873V126.224H493.388V137.446ZM504.929 137.606C506.612 137.606 507.414 136.323 507.414 136.323V137.446H509.017V132.556C509.017 130.873 507.734 129.59 505.811 129.59C503.807 129.59 502.765 131.033 502.765 131.033L503.807 132.075C503.807 132.075 504.608 131.033 505.811 131.033C506.773 131.033 507.414 131.674 507.414 132.476L504.608 132.957C503.246 133.197 502.364 134.079 502.364 135.362C502.364 136.564 503.406 137.606 504.929 137.606ZM505.25 136.243C504.448 136.243 503.967 135.762 503.967 135.201C503.967 134.72 504.368 134.304 505.17 134.159L507.414 133.758V133.999C507.414 135.281 506.452 136.243 505.25 136.243ZM511.494 140.812H513.097V136.323C513.097 136.323 513.899 137.606 515.742 137.606C517.666 137.606 519.349 135.923 519.349 133.598C519.349 131.274 517.666 129.59 515.742 129.59C513.899 129.59 513.097 130.873 513.097 130.873V129.751H511.494V140.812ZM515.422 136.083C514.139 136.083 513.097 135.041 513.097 133.598C513.097 132.155 514.139 131.113 515.422 131.113C516.704 131.113 517.746 132.155 517.746 133.598C517.746 135.041 516.704 136.083 515.422 136.083ZM524.553 137.606C525.274 137.606 525.755 137.365 525.755 137.365V135.842C525.755 135.842 525.355 136.083 524.874 136.083C524.152 136.083 523.751 135.682 523.751 134.881V131.274H525.515V129.751H523.751V127.186H522.309V128.869C522.309 129.51 522.068 129.751 521.587 129.751H520.706V131.274H522.148V135.041C522.148 136.724 523.03 137.606 524.553 137.606ZM531.282 137.606C533.527 137.606 534.569 136.163 534.569 136.163L533.607 135.041C533.607 135.041 532.725 136.083 531.362 136.083C530.08 136.083 529.118 135.201 528.958 134.159H534.889C534.889 134.159 534.969 133.839 534.969 133.358C534.969 131.194 533.366 129.59 531.202 129.59C529.038 129.59 527.275 131.354 527.275 133.598C527.275 135.842 529.038 137.606 531.282 137.606ZM528.958 132.797C529.278 131.755 530 131.033 531.202 131.033C532.324 131.033 533.046 131.755 533.286 132.797H528.958ZM536.966 137.446H538.569V133.518C538.569 132.155 539.531 131.194 540.653 131.194C540.974 131.194 541.295 131.274 541.295 131.274V129.59H540.894C539.371 129.59 538.569 130.793 538.569 130.793V129.751H536.966V137.446ZM553.009 137.606C555.494 137.606 557.017 136.083 557.017 134.239C557.017 132.155 554.933 131.514 554.933 131.514C554.933 131.514 556.616 130.873 556.616 129.029C556.616 127.426 555.253 126.064 553.009 126.064C550.684 126.064 549.402 127.587 549.402 127.587L550.604 128.789C550.604 128.789 551.486 127.667 553.009 127.667C554.211 127.667 554.852 128.308 554.852 129.19C554.852 130.071 554.211 130.713 553.009 130.713H551.807V132.396H553.009C554.452 132.396 555.253 133.197 555.253 134.159C555.253 135.201 554.452 136.003 553.009 136.003C551.165 136.003 550.284 134.72 550.284 134.72L549.081 135.923C549.081 135.923 550.364 137.606 553.009 137.606Z" fill="white"/>
<rect opacity="0.36" x="560" y="282.446" width="137" height="12" fill="white"/>
<rect opacity="0.36" x="560" y="349.446" width="137" height="12" fill="white"/>
<rect opacity="0.36" x="560" y="368.446" width="97" height="12" fill="white"/>
<path opacity="0.65" d="M568.267 317.446V315.648L563.145 313.043L568.267 310.437V308.64L560.719 312.503V313.582L568.267 317.446ZM572.58 317.446L580.128 313.582V312.503L572.58 308.64V310.437L577.702 313.043L572.58 315.648V317.446Z" fill="#07686D"/>
<path opacity="0.65" d="M680.267 317.446V315.648L675.145 313.043L680.267 310.437V308.64L672.719 312.503V313.582L680.267 317.446ZM680.986 321.22H682.603L687.994 304.686H686.377L680.986 321.22ZM688.707 317.446L696.255 313.582V312.503L688.707 308.64V310.437L693.829 313.043L688.707 315.648V317.446Z" fill="#07686D"/>
<rect opacity="0.65" x="585" y="306.446" width="83" height="12" fill="#07686D"/>
<path opacity="0.36" d="M589 263.446H697V275.446H589V263.446Z" fill="white"/>
<path opacity="0.36" d="M635 330.446H697V342.446H635V330.446Z" fill="white"/>
<path opacity="0.36" d="M560 330.446H581V342.446H560V330.446Z" fill="white"/>
<path opacity="0.36" d="M586 330.446H629V342.446H586V330.446Z" fill="white"/>
<path d="M408.781 92.2066C412.707 92.2066 414.773 89.314 414.773 89.314L413.326 87.8678C413.326 87.8678 411.777 90.1405 408.781 90.1405C405.785 90.1405 403.409 87.7645 403.409 84.7686C403.409 81.7727 405.785 79.3967 408.781 79.3967C411.777 79.3967 413.223 81.5661 413.223 81.5661L414.669 80.1198C414.669 80.1198 412.707 77.3306 408.781 77.3306C404.442 77.3306 401.136 80.6364 401.136 84.7686C401.136 88.9008 404.442 92.2066 408.781 92.2066ZM415.602 92H417.668V86.6281C417.668 84.9752 418.804 83.8388 420.354 83.8388C421.697 83.8388 422.626 84.7686 422.626 86.2149V92H424.693V86.2149C424.693 83.5289 423.04 81.876 420.767 81.876C418.701 81.876 417.668 83.5289 417.668 83.5289V77.5372H415.602V92ZM428.824 92.2066C430.993 92.2066 432.026 90.5537 432.026 90.5537V92H434.093V85.6983C434.093 83.5289 432.44 81.876 429.96 81.876C427.378 81.876 426.035 83.7355 426.035 83.7355L427.378 85.0785C427.378 85.0785 428.411 83.7355 429.96 83.7355C431.2 83.7355 432.026 84.562 432.026 85.595L428.411 86.2149C426.655 86.5248 425.518 87.6612 425.518 89.314C425.518 90.8636 426.861 92.2066 428.824 92.2066ZM429.237 90.4504C428.204 90.4504 427.584 89.8306 427.584 89.1074C427.584 88.4876 428.101 87.9504 429.134 87.7645L432.026 87.2479V87.5579C432.026 89.2107 430.787 90.4504 429.237 90.4504ZM435.632 96.3388H437.699V90.5537C437.699 90.5537 438.732 92.2066 441.108 92.2066C443.587 92.2066 445.756 90.0372 445.756 87.0413C445.756 84.0455 443.587 81.876 441.108 81.876C438.732 81.876 437.699 83.5289 437.699 83.5289V82.0826H435.632V96.3388ZM440.694 90.2438C439.042 90.2438 437.699 88.9008 437.699 87.0413C437.699 85.1818 439.042 83.8388 440.694 83.8388C442.347 83.8388 443.69 85.1818 443.69 87.0413C443.69 88.9008 442.347 90.2438 440.694 90.2438ZM450.81 92.2066C451.74 92.2066 452.36 91.8967 452.36 91.8967V89.9339C452.36 89.9339 451.843 90.2438 451.224 90.2438C450.294 90.2438 449.777 89.7273 449.777 88.6942V84.0455H452.05V82.0826H449.777V78.7769H447.918V80.9463C447.918 81.7727 447.608 82.0826 446.988 82.0826H445.852V84.0455H447.711V88.9008C447.711 91.0702 448.847 92.2066 450.81 92.2066ZM457.83 92.2066C460.723 92.2066 462.066 90.3471 462.066 90.3471L460.826 88.9008C460.826 88.9008 459.69 90.2438 457.934 90.2438C456.281 90.2438 455.041 89.1074 454.834 87.7645H462.479C462.479 87.7645 462.582 87.3512 462.582 86.7314C462.582 83.9421 460.516 81.876 457.727 81.876C454.938 81.876 452.665 84.1488 452.665 87.0413C452.665 89.9339 454.938 92.2066 457.83 92.2066ZM454.834 86.0083C455.248 84.6653 456.177 83.7355 457.727 83.7355C459.173 83.7355 460.103 84.6653 460.413 86.0083H454.834ZM463.503 92H465.569V86.938C465.569 85.1818 466.809 83.9421 468.255 83.9421C468.668 83.9421 469.082 84.0455 469.082 84.0455V81.876H468.565C466.602 81.876 465.569 83.4256 465.569 83.4256V82.0826H463.503V92ZM477.052 92H479.324V77.5372H477.568C477.052 78.5702 476.328 79.2934 474.469 79.5V80.9463H477.052V92Z" fill="white"/>
<g filter="url(#filter1_dd)">
<path d="M296 71.1706C296 62.2398 303.24 55 312.171 55H608.135C617.066 55 624.306 62.2398 624.306 71.1706V435.829C624.306 444.76 617.066 452 608.135 452H312.171C303.24 452 296 444.76 296 435.829V71.1706Z" fill="url(#paint1_linear)"/>
</g>
<rect opacity="0.36" x="487" y="320" width="90" height="12" fill="white"/>
<path opacity="0.36" d="M487 301H577V313H487V301Z" fill="white"/>
<path opacity="0.36" d="M439 365H577V377H439V365Z" fill="white"/>
<path opacity="0.36" d="M439 402H577V414H439V402Z" fill="white"/>
<path opacity="0.36" d="M487 384H577V396H487V384Z" fill="white"/>
<path opacity="0.36" d="M439 345H540V357H439V345Z" fill="white"/>
<path d="M319.29 159.099H324.773V148.681H335.74V159.099H341.223V133.51H335.74V143.563H324.773V133.51H319.29V159.099ZM354.21 159.465C359.145 159.465 361.887 156.54 361.887 156.54L359.328 153.067C359.328 153.067 357.683 155.078 354.576 155.078C351.834 155.078 350.372 153.616 349.824 151.971H362.801C362.801 151.971 362.984 151.057 362.984 149.777C362.984 144.842 358.963 140.821 354.028 140.821C348.91 140.821 344.706 145.025 344.706 150.143C344.706 155.261 348.91 159.465 354.21 159.465ZM349.824 148.315C350.372 146.67 351.834 145.208 353.845 145.208C355.855 145.208 357.318 146.67 357.866 148.315H349.824ZM370.124 159.465C373.596 159.465 375.424 156.906 375.424 156.906H375.607V159.099C376.703 159.099 380.542 159.099 380.542 159.099V147.95C380.542 143.929 377.435 140.821 372.865 140.821C368.113 140.821 365.554 144.294 365.554 144.294L368.479 147.219C368.479 147.219 369.941 145.208 372.5 145.208C374.327 145.208 375.424 146.305 375.607 147.584L369.941 148.608C366.651 149.193 364.64 151.422 364.64 154.347C364.64 157.271 366.834 159.465 370.124 159.465ZM371.769 155.444C370.306 155.444 369.575 154.712 369.575 153.616C369.575 152.702 370.306 152.007 371.586 151.788L375.607 151.057V151.422C375.607 153.799 373.962 155.444 371.769 155.444ZM391.144 159.465C394.983 159.465 396.81 156.54 396.81 156.54H396.993V159.099H401.928V133.51H396.993V143.746H396.81C396.81 143.746 394.983 140.821 391.144 140.821C386.94 140.821 383.102 144.66 383.102 150.143C383.102 155.626 386.94 159.465 391.144 159.465ZM392.607 154.895C390.048 154.895 388.037 152.885 388.037 150.143C388.037 147.401 390.048 145.391 392.607 145.391C395.165 145.391 397.176 147.401 397.176 150.143C397.176 152.885 395.165 154.895 392.607 154.895ZM405.771 159.099H410.706V141.187H405.771V159.099ZM408.22 138.811C409.792 138.811 411.071 137.531 411.071 136.069C411.071 134.607 409.792 133.328 408.257 133.328C406.685 133.328 405.405 134.607 405.405 136.069C405.405 137.531 406.685 138.811 408.22 138.811ZM414.348 159.099H419.283V149.595C419.283 147.219 420.928 145.574 423.122 145.574C425.132 145.574 426.412 146.853 426.412 149.046V159.099H431.347V148.315C431.347 143.746 428.422 140.821 424.767 140.821C421.294 140.821 419.466 143.746 419.466 143.746H419.283V141.187H414.348V159.099ZM442.486 166.776C448.152 166.776 452.173 162.755 452.173 157.271V141.187H447.238V143.746H447.056C447.056 143.746 445.411 140.821 441.572 140.821C437.551 140.821 433.896 144.477 433.896 149.777C433.896 155.078 437.551 158.734 441.572 158.734C445.411 158.734 447.056 155.809 447.056 155.809H447.238V157.271C447.238 160.196 445.228 162.206 442.486 162.206C439.562 162.206 437.734 160.013 437.734 160.013L434.627 163.12C434.627 163.12 437.186 166.776 442.486 166.776ZM443.035 154.164C440.658 154.164 438.831 152.336 438.831 149.777C438.831 147.219 440.658 145.391 443.035 145.391C445.411 145.391 447.238 147.219 447.238 149.777C447.238 152.336 445.411 154.164 443.035 154.164ZM461.664 159.465C466.599 159.465 469.157 156.906 469.157 153.799C469.157 147.95 460.019 148.315 460.019 146.305C460.019 145.756 460.567 145.208 461.846 145.208C464.405 145.208 465.867 146.67 465.867 146.67L468.792 143.563C468.792 143.563 466.416 140.821 461.846 140.821C457.277 140.821 454.718 143.38 454.718 146.305C454.718 152.154 463.857 151.788 463.857 153.799C463.857 154.53 463.309 155.078 461.664 155.078C458.739 155.078 456.911 153.067 456.911 153.067L453.987 156.175C453.987 156.175 456.729 159.465 461.664 159.465ZM482.502 159.465C485.974 159.465 487.802 156.906 487.802 156.906H487.985V159.099C489.082 159.099 492.92 159.099 492.92 159.099V147.95C492.92 143.929 489.813 140.821 485.243 140.821C480.491 140.821 477.932 144.294 477.932 144.294L480.857 147.219C480.857 147.219 482.319 145.208 484.878 145.208C486.705 145.208 487.802 146.305 487.985 147.584L482.319 148.608C479.029 149.193 477.018 151.422 477.018 154.347C477.018 157.271 479.212 159.465 482.502 159.465ZM484.147 155.444C482.684 155.444 481.953 154.712 481.953 153.616C481.953 152.702 482.684 152.007 483.964 151.788L487.985 151.057V151.422C487.985 153.799 486.34 155.444 484.147 155.444ZM496.577 159.099H501.512V149.595C501.512 147.219 503.157 145.574 505.35 145.574C507.361 145.574 508.64 146.853 508.64 149.046V159.099H513.575V148.315C513.575 143.746 510.651 140.821 506.995 140.821C503.522 140.821 501.695 143.746 501.695 143.746H501.512V141.187H496.577V159.099ZM524.166 159.465C528.005 159.465 529.832 156.54 529.832 156.54H530.015V159.099H534.95V133.51H530.015V143.746H529.832C529.832 143.746 528.005 140.821 524.166 140.821C519.962 140.821 516.124 144.66 516.124 150.143C516.124 155.626 519.962 159.465 524.166 159.465ZM525.628 154.895C523.07 154.895 521.059 152.885 521.059 150.143C521.059 147.401 523.07 145.391 525.628 145.391C528.187 145.391 530.198 147.401 530.198 150.143C530.198 152.885 528.187 154.895 525.628 154.895ZM319.29 196.099H336.654V190.981H324.773V170.51H319.29V196.099ZM343.232 196.465C346.705 196.465 348.533 193.906 348.533 193.906H348.716V196.099C349.812 196.099 353.651 196.099 353.651 196.099V184.95C353.651 180.929 350.543 177.821 345.974 177.821C341.222 177.821 338.663 181.294 338.663 181.294L341.587 184.219C341.587 184.219 343.05 182.208 345.609 182.208C347.436 182.208 348.533 183.305 348.716 184.584L343.05 185.608C339.76 186.193 337.749 188.422 337.749 191.347C337.749 194.271 339.942 196.465 343.232 196.465ZM344.877 192.444C343.415 192.444 342.684 191.712 342.684 190.616C342.684 189.702 343.415 189.007 344.695 188.788L348.716 188.057V188.422C348.716 190.799 347.071 192.444 344.877 192.444ZM368.274 196.465C372.478 196.465 376.317 192.626 376.317 187.143C376.317 181.66 372.478 177.821 368.274 177.821C364.436 177.821 362.608 180.746 362.608 180.746H362.425V170.51H357.49V196.099H362.425V193.54H362.608C362.608 193.54 364.436 196.465 368.274 196.465ZM366.812 191.895C364.253 191.895 362.243 189.885 362.243 187.143C362.243 184.401 364.253 182.391 366.812 182.391C369.371 182.391 371.382 184.401 371.382 187.143C371.382 189.885 369.371 191.895 366.812 191.895ZM387.287 196.465C392.222 196.465 394.964 193.54 394.964 193.54L392.405 190.067C392.405 190.067 390.76 192.078 387.653 192.078C384.911 192.078 383.449 190.616 382.901 188.971H395.878C395.878 188.971 396.061 188.057 396.061 186.777C396.061 181.842 392.04 177.821 387.105 177.821C381.987 177.821 377.783 182.025 377.783 187.143C377.783 192.261 381.987 196.465 387.287 196.465ZM382.901 185.315C383.449 183.67 384.911 182.208 386.922 182.208C388.932 182.208 390.395 183.67 390.943 185.315H382.901ZM398.814 196.099H403.749V170.51H398.814V196.099ZM413.45 196.465C418.385 196.465 420.944 193.906 420.944 190.799C420.944 184.95 411.805 185.315 411.805 183.305C411.805 182.756 412.354 182.208 413.633 182.208C416.192 182.208 417.654 183.67 417.654 183.67L420.579 180.563C420.579 180.563 418.203 177.821 413.633 177.821C409.064 177.821 406.505 180.38 406.505 183.305C406.505 189.154 415.644 188.788 415.644 190.799C415.644 191.53 415.095 192.078 413.45 192.078C410.526 192.078 408.698 190.067 408.698 190.067L405.774 193.175C405.774 193.175 408.515 196.465 413.45 196.465Z" fill="white"/>
<path d="M439.089 332.572H445.903V319.624H459.531V332.572H466.346V300.772H459.531V313.264H445.903V300.772H439.089V332.572ZM475.898 332.572H482.712V300.772H477.034C477.034 300.772 475.444 304.406 470.447 305.087V309.403H475.898V332.572Z" fill="#6A6CB0"/>
<path d="M546.25 357H550V349.875H557.5V357H561.25V339.5H557.5V346.375H550V339.5H546.25V357ZM563.507 357H575.882V353.5H568.382C570.382 350.375 575.882 349.625 575.882 344.625C575.882 341.5 573.507 339.125 569.757 339.125C564.882 339.125 563.507 343.25 563.507 343.25L566.507 344.75C566.507 344.75 567.382 342.625 569.507 342.625C571.007 342.625 572.007 343.625 572.007 344.875C572.007 348.75 563.507 348.75 563.507 357Z" fill="#6A6CB0"/>
<path d="M439.553 396H442.14V388.065L446.021 392.895L449.903 388.065V396H452.49V383.925H450.161L446.021 389.1L441.881 383.925H439.553V396ZM458.608 396.173C460.937 396.173 462.231 394.792 462.231 394.792L461.023 393.154C461.023 393.154 460.247 394.102 458.781 394.102C457.487 394.102 456.797 393.412 456.538 392.636H462.662C462.662 392.636 462.748 392.205 462.748 391.601C462.748 389.272 460.851 387.375 458.522 387.375C456.107 387.375 454.123 389.359 454.123 391.774C454.123 394.189 456.107 396.173 458.608 396.173ZM456.538 390.911C456.797 390.135 457.487 389.445 458.436 389.445C459.385 389.445 460.075 390.135 460.333 390.911H456.538ZM463.961 396H466.29V391.515C466.29 390.394 467.066 389.617 468.101 389.617C469.05 389.617 469.654 390.221 469.654 391.256V396H471.983V390.911C471.983 388.755 470.603 387.375 468.878 387.375C467.239 387.375 466.376 388.755 466.376 388.755H466.29V387.547H463.961V396ZM476.808 396.173C478.447 396.173 479.309 394.792 479.309 394.792H479.395V396H481.724V387.547H479.395V392.032C479.395 393.154 478.619 393.93 477.584 393.93C476.635 393.93 476.032 393.326 476.032 392.291V387.547H473.703V392.636C473.703 394.792 475.083 396.173 476.808 396.173Z" fill="#6A6CB0"/>
<path d="M325.567 113.857C329.465 113.857 331.517 110.985 331.517 110.985L330.08 109.549C330.08 109.549 328.542 111.806 325.567 111.806C322.592 111.806 320.232 109.446 320.232 106.471C320.232 103.496 322.592 101.137 325.567 101.137C328.542 101.137 329.978 103.291 329.978 103.291L331.414 101.855C331.414 101.855 329.465 99.0849 325.567 99.0849C321.258 99.0849 317.975 102.368 317.975 106.471C317.975 110.575 321.258 113.857 325.567 113.857ZM333.981 113.652H336.033V108.318C336.033 106.676 337.161 105.548 338.7 105.548C340.034 105.548 340.957 106.471 340.957 107.907V113.652H343.009V107.907C343.009 105.24 341.367 103.599 339.11 103.599C337.059 103.599 336.033 105.24 336.033 105.24V99.29H333.981V113.652ZM348.753 113.857C350.907 113.857 351.933 112.216 351.933 112.216V113.652H353.984V107.394C353.984 105.24 352.343 103.599 349.881 103.599C347.316 103.599 345.983 105.445 345.983 105.445L347.316 106.779C347.316 106.779 348.342 105.445 349.881 105.445C351.112 105.445 351.933 106.266 351.933 107.292L348.342 107.907C346.598 108.215 345.47 109.343 345.47 110.985C345.47 112.524 346.803 113.857 348.753 113.857ZM349.163 112.113C348.137 112.113 347.522 111.498 347.522 110.78C347.522 110.164 348.034 109.631 349.06 109.446L351.933 108.933V109.241C351.933 110.882 350.702 112.113 349.163 112.113ZM357.155 117.961H359.207V112.216C359.207 112.216 360.233 113.857 362.592 113.857C365.054 113.857 367.208 111.703 367.208 108.728C367.208 105.753 365.054 103.599 362.592 103.599C360.233 103.599 359.207 105.24 359.207 105.24V103.804H357.155V117.961ZM362.182 111.908C360.54 111.908 359.207 110.575 359.207 108.728C359.207 106.881 360.54 105.548 362.182 105.548C363.823 105.548 365.157 106.881 365.157 108.728C365.157 110.575 363.823 111.908 362.182 111.908ZM373.869 113.857C374.792 113.857 375.407 113.55 375.407 113.55V111.6C375.407 111.6 374.894 111.908 374.279 111.908C373.356 111.908 372.843 111.395 372.843 110.369V105.753H375.1V103.804H372.843V100.521H370.996V102.675C370.996 103.496 370.688 103.804 370.073 103.804H368.944V105.753H370.791V110.575C370.791 112.729 371.919 113.857 373.869 113.857ZM382.481 113.857C385.353 113.857 386.687 112.011 386.687 112.011L385.456 110.575C385.456 110.575 384.328 111.908 382.584 111.908C380.942 111.908 379.711 110.78 379.506 109.446H387.097C387.097 109.446 387.2 109.036 387.2 108.42C387.2 105.65 385.148 103.599 382.378 103.599C379.609 103.599 377.352 105.856 377.352 108.728C377.352 111.6 379.609 113.857 382.481 113.857ZM379.506 107.702C379.916 106.368 380.84 105.445 382.378 105.445C383.815 105.445 384.738 106.368 385.046 107.702H379.506ZM389.756 113.652H391.808V108.625C391.808 106.881 393.039 105.65 394.475 105.65C394.885 105.65 395.295 105.753 395.295 105.753V103.599H394.783C392.833 103.599 391.808 105.137 391.808 105.137V103.804H389.756V113.652ZM405.569 113.652H415.212V111.498H408.237C409.878 108.318 415.212 107.702 415.212 103.496C415.212 101.034 413.263 99.0849 410.391 99.0849C406.595 99.0849 405.775 102.368 405.775 102.368L407.621 103.188C407.621 103.188 408.237 101.239 410.391 101.239C412.032 101.239 412.956 102.162 412.956 103.496C412.956 106.984 405.569 107.189 405.569 113.652Z" fill="white"/>
<g filter="url(#filter2_dd)">
<path d="M42 49.1257C42 39.1152 50.1152 31 60.1257 31H391.874C401.885 31 410 39.1152 410 49.1257V457.874C410 467.885 401.885 476 391.874 476H60.1257C50.1151 476 42 467.885 42 457.874V49.1257Z" fill="url(#paint2_linear)"/>
</g>
<path d="M81.625 104.25C86.375 104.25 88.875 100.75 88.875 100.75L87.125 99C87.125 99 85.25 101.75 81.625 101.75C78 101.75 75.125 98.875 75.125 95.25C75.125 91.625 78 88.75 81.625 88.75C85.25 88.75 87 91.375 87 91.375L88.75 89.625C88.75 89.625 86.375 86.25 81.625 86.25C76.375 86.25 72.375 90.25 72.375 95.25C72.375 100.25 76.375 104.25 81.625 104.25ZM91.8779 104H94.3779V97.5C94.3779 95.5 95.7529 94.125 97.6279 94.125C99.2529 94.125 100.378 95.25 100.378 97V104H102.878V97C102.878 93.75 100.878 91.75 98.1279 91.75C95.6279 91.75 94.3779 93.75 94.3779 93.75V86.5H91.8779V104ZM109.877 104.25C112.502 104.25 113.752 102.25 113.752 102.25V104H116.252V96.375C116.252 93.75 114.252 91.75 111.252 91.75C108.127 91.75 106.502 94 106.502 94L108.127 95.625C108.127 95.625 109.377 94 111.252 94C112.752 94 113.752 95 113.752 96.25L109.377 97C107.252 97.375 105.877 98.75 105.877 100.75C105.877 102.625 107.502 104.25 109.877 104.25ZM110.377 102.125C109.127 102.125 108.377 101.375 108.377 100.5C108.377 99.75 109.002 99.1 110.252 98.875L113.752 98.25V98.625C113.752 100.625 112.252 102.125 110.377 102.125ZM120.115 109.25H122.615V102.25C122.615 102.25 123.865 104.25 126.74 104.25C129.74 104.25 132.365 101.625 132.365 98C132.365 94.375 129.74 91.75 126.74 91.75C123.865 91.75 122.615 93.75 122.615 93.75V92H120.115V109.25ZM126.24 101.875C124.24 101.875 122.615 100.25 122.615 98C122.615 95.75 124.24 94.125 126.24 94.125C128.24 94.125 129.865 95.75 129.865 98C129.865 100.25 128.24 101.875 126.24 101.875ZM140.48 104.25C141.605 104.25 142.355 103.875 142.355 103.875V101.5C142.355 101.5 141.73 101.875 140.98 101.875C139.855 101.875 139.23 101.25 139.23 100V94.375H141.98V92H139.23V88H136.98V90.625C136.98 91.625 136.605 92 135.855 92H134.48V94.375H136.73V100.25C136.73 102.875 138.105 104.25 140.48 104.25ZM150.975 104.25C154.475 104.25 156.1 102 156.1 102L154.6 100.25C154.6 100.25 153.225 101.875 151.1 101.875C149.1 101.875 147.6 100.5 147.35 98.875H156.6C156.6 98.875 156.725 98.375 156.725 97.625C156.725 94.25 154.225 91.75 150.85 91.75C147.475 91.75 144.725 94.5 144.725 98C144.725 101.5 147.475 104.25 150.975 104.25ZM147.35 96.75C147.85 95.125 148.975 94 150.85 94C152.6 94 153.725 95.125 154.1 96.75H147.35ZM159.839 104H162.339V97.875C162.339 95.75 163.839 94.25 165.589 94.25C166.089 94.25 166.589 94.375 166.589 94.375V91.75H165.964C163.589 91.75 162.339 93.625 162.339 93.625V92H159.839V104ZM182.232 104H184.982V86.5H182.857C182.232 87.75 181.357 88.625 179.107 88.875V90.625H182.232V104Z" fill="white"/>
<path d="M74.9809 169H81.6157V138.038H74.9809V169ZM87.1482 169H93.1195V157.5C93.1195 154.625 95.11 152.634 97.7639 152.634C100.197 152.634 101.745 154.182 101.745 156.836V169H107.716V155.952C107.716 150.423 104.178 146.884 99.7543 146.884C95.5523 146.884 93.3407 150.423 93.3407 150.423H93.1195V147.326H87.1482V169ZM120.763 169.442C122.974 169.442 124.744 168.779 124.744 168.779V163.25C124.744 163.25 123.638 163.692 122.311 163.692C120.542 163.692 119.436 162.586 119.436 160.596V153.298H124.301V147.769H119.436V141.134H114.128V145.115C114.128 146.884 113.243 147.769 111.695 147.769H109.705V153.298H113.465V161.481C113.465 166.567 116.34 169.442 120.763 169.442ZM128.078 169H134.05V158.827C134.05 155.288 136.261 153.076 139.136 153.076C140.463 153.076 141.127 153.298 141.127 153.298V146.884H140.685C136.483 146.884 134.271 150.423 134.271 150.423H134.05V147.326H128.078V169ZM153.296 169.442C159.71 169.442 164.796 164.356 164.796 158.163C164.796 151.971 159.71 146.884 153.296 146.884C146.882 146.884 141.796 151.971 141.796 158.163C141.796 164.356 146.882 169.442 153.296 169.442ZM153.296 163.913C150.2 163.913 147.767 161.481 147.767 158.163C147.767 154.846 150.2 152.413 153.296 152.413C156.392 152.413 158.825 154.846 158.825 158.163C158.825 161.481 156.392 163.913 153.296 163.913ZM176.29 169.442C180.934 169.442 183.146 165.904 183.146 165.904H183.367V169H189.338V138.038H183.367V150.423H183.146C183.146 150.423 180.934 146.884 176.29 146.884C171.203 146.884 166.559 151.528 166.559 158.163C166.559 164.798 171.203 169.442 176.29 169.442ZM178.059 163.913C174.963 163.913 172.53 161.481 172.53 158.163C172.53 154.846 174.963 152.413 178.059 152.413C181.155 152.413 183.588 154.846 183.588 158.163C183.588 161.481 181.155 163.913 178.059 163.913ZM201.95 169.442C206.152 169.442 208.363 165.904 208.363 165.904H208.584V169H214.556V147.326H208.584V158.827C208.584 161.702 206.594 163.692 203.94 163.692C201.507 163.692 199.959 162.144 199.959 159.49V147.326H193.988V160.375C193.988 165.904 197.526 169.442 201.95 169.442ZM229.14 169.442C235.333 169.442 238.208 165.019 238.208 165.019L234.448 161.259C234.448 161.259 232.458 163.913 229.14 163.913C226.044 163.913 223.611 161.481 223.611 158.163C223.611 154.846 226.044 152.413 229.14 152.413C232.458 152.413 234.448 155.067 234.448 155.067L238.208 151.307C238.208 151.307 235.333 146.884 229.14 146.884C222.727 146.884 217.64 151.971 217.64 158.163C217.64 164.356 222.727 169.442 229.14 169.442ZM249.687 169.442C251.899 169.442 253.668 168.779 253.668 168.779V163.25C253.668 163.25 252.562 163.692 251.236 163.692C249.466 163.692 248.36 162.586 248.36 160.596V153.298H253.226V147.769H248.36V141.134H243.053V145.115C243.053 146.884 242.168 147.769 240.62 147.769H238.629V153.298H242.389V161.481C242.389 166.567 245.264 169.442 249.687 169.442ZM257.003 169H262.974V147.326H257.003V169ZM259.967 144.451C261.868 144.451 263.417 142.903 263.417 141.134C263.417 139.364 261.868 137.816 260.011 137.816C258.109 137.816 256.561 139.364 256.561 141.134C256.561 142.903 258.109 144.451 259.967 144.451ZM277.555 169.442C283.969 169.442 289.056 164.356 289.056 158.163C289.056 151.971 283.969 146.884 277.555 146.884C271.142 146.884 266.055 151.971 266.055 158.163C266.055 164.356 271.142 169.442 277.555 169.442ZM277.555 163.913C274.459 163.913 272.026 161.481 272.026 158.163C272.026 154.846 274.459 152.413 277.555 152.413C280.652 152.413 283.084 154.846 283.084 158.163C283.084 161.481 280.652 163.913 277.555 163.913ZM292.145 169H298.116V157.5C298.116 154.625 300.107 152.634 302.761 152.634C305.194 152.634 306.742 154.182 306.742 156.836V169H312.713V155.952C312.713 150.423 309.174 146.884 304.751 146.884C300.549 146.884 298.338 150.423 298.338 150.423H298.116V147.326H292.145V169ZM82.9427 222.442C85.1543 222.442 86.9236 221.779 86.9236 221.779V216.25C86.9236 216.25 85.8178 216.692 84.4908 216.692C82.7215 216.692 81.6157 215.586 81.6157 213.596V206.298H86.4812V200.769H81.6157V194.134H76.3079V198.115C76.3079 199.884 75.4232 200.769 73.8751 200.769H71.8846V206.298H75.6444V214.481C75.6444 219.567 78.5195 222.442 82.9427 222.442ZM99.9997 222.442C106.413 222.442 111.5 217.356 111.5 211.163C111.5 204.971 106.413 199.884 99.9997 199.884C93.586 199.884 88.4993 204.971 88.4993 211.163C88.4993 217.356 93.586 222.442 99.9997 222.442ZM99.9997 216.913C96.9034 216.913 94.4707 214.481 94.4707 211.163C94.4707 207.846 96.9034 205.413 99.9997 205.413C103.096 205.413 105.529 207.846 105.529 211.163C105.529 214.481 103.096 216.913 99.9997 216.913ZM129.172 222H135.586L141.867 201.874H142.132L148.413 222H154.827L165 191.038H158.144L151.731 211.827H151.509L145.096 191.038H138.903L132.49 211.827H132.268L125.855 191.038H118.999L129.172 222ZM182.285 222.663C191.132 222.663 195.555 216.471 195.555 216.471L191.132 212.048C191.132 212.048 188.035 216.471 182.285 216.471C176.756 216.471 172.333 212.048 172.333 206.519C172.333 200.99 176.756 196.567 182.285 196.567C187.814 196.567 190.911 200.99 190.911 200.99L195.334 196.567C195.334 196.567 190.911 190.374 182.285 190.374C172.775 190.374 165.477 197.672 165.477 206.519C165.477 215.365 172.775 222.663 182.285 222.663ZM195.339 222H202.416L205.07 214.923H217.013L219.667 222H226.744L214.801 191.038H207.282L195.339 222ZM207.282 208.952L210.953 198.778H211.13L214.801 208.952H207.282ZM243.561 222.663C252.407 222.663 257.051 216.692 257.051 216.692V204.971H244.666V210.278H250.417V214.038C250.417 214.038 247.984 216.471 243.561 216.471C238.032 216.471 233.608 212.048 233.608 206.519C233.608 200.99 238.032 196.567 243.561 196.567C249.09 196.567 252.186 200.99 252.186 200.99L256.609 196.567C256.609 196.567 252.186 190.374 243.561 190.374C234.051 190.374 226.752 197.672 226.752 206.519C226.752 215.365 234.051 222.663 243.561 222.663Z" fill="white"/>
<path opacity="0.26" d="M246 336.445C246 302.204 273.758 274.446 308 274.446C342.242 274.446 370 302.204 370 336.446V438C370 441.314 367.314 444 364 444H252C248.686 444 246 441.314 246 438V336.445Z" fill="white"/>
<rect opacity="0.6" x="259" y="414.661" width="99" height="18.1078" fill="#E38C03"/>
<path opacity="0.3" d="M280 388.323H358V406.431H280V388.323Z" fill="white"/>
<path opacity="0.3" d="M302 361.984H358V380.092H302V361.984Z" fill="white"/>
<path opacity="0.3" d="M323 335.646H358V353.754H323V335.646Z" fill="white"/>
<defs>
<filter id="filter0_dd" x="427.374" y="60.8077" width="344.33" height="403.143" filterUnits="userSpaceOnUse" color-interpolation-filters="sRGB">
<feFlood flood-opacity="0" result="BackgroundImageFix"/>
<feColorMatrix in="SourceAlpha" type="matrix" values="0 0 0 0 0 0 0 0 0 0 0 0 0 0 0 0 0 0 127 0" result="hardAlpha"/>
<feOffset dy="8.43355"/>
<feGaussianBlur stdDeviation="15.8129"/>
<feColorMatrix type="matrix" values="0 0 0 0 0.230208 0 0 0 0 0.319526 0 0 0 0 0.65 0 0 0 0.15 0"/>
<feBlend mode="normal" in2="BackgroundImageFix" result="effect1_dropShadow"/>
<feColorMatrix in="SourceAlpha" type="matrix" values="0 0 0 0 0 0 0 0 0 0 0 0 0 0 0 0 0 0 127 0" result="hardAlpha"/>
<feOffset dy="1.40559"/>
<feGaussianBlur stdDeviation="4.21677"/>
<feColorMatrix type="matrix" values="0 0 0 0 0.230208 0 0 0 0 0.319526 0 0 0 0 0.65 0 0 0 0.05 0"/>
<feBlend mode="normal" in2="effect1_dropShadow" result="effect2_dropShadow"/>
<feBlend mode="normal" in="SourceGraphic" in2="effect2_dropShadow" result="shape"/>
</filter>
<filter id="filter1_dd" x="259.06" y="27.911" width="402.185" height="470.879" filterUnits="userSpaceOnUse" color-interpolation-filters="sRGB">
<feFlood flood-opacity="0" result="BackgroundImageFix"/>
<feColorMatrix in="SourceAlpha" type="matrix" values="0 0 0 0 0 0 0 0 0 0 0 0 0 0 0 0 0 0 127 0" result="hardAlpha"/>
<feOffset dy="9.85056"/>
<feGaussianBlur stdDeviation="18.4698"/>
<feColorMatrix type="matrix" values="0 0 0 0 0.230208 0 0 0 0 0.319526 0 0 0 0 0.65 0 0 0 0.15 0"/>
<feBlend mode="normal" in2="BackgroundImageFix" result="effect1_dropShadow"/>
<feColorMatrix in="SourceAlpha" type="matrix" values="0 0 0 0 0 0 0 0 0 0 0 0 0 0 0 0 0 0 127 0" result="hardAlpha"/>
<feOffset dy="1.64176"/>
<feGaussianBlur stdDeviation="4.92528"/>
<feColorMatrix type="matrix" values="0 0 0 0 0.230208 0 0 0 0 0.319526 0 0 0 0 0.65 0 0 0 0.05 0"/>
<feBlend mode="normal" in2="effect1_dropShadow" result="effect2_dropShadow"/>
<feBlend mode="normal" in="SourceGraphic" in2="effect2_dropShadow" result="shape"/>
</filter>
<filter id="filter2_dd" x="0.594166" y="0.635723" width="450.812" height="527.812" filterUnits="userSpaceOnUse" color-interpolation-filters="sRGB">
<feFlood flood-opacity="0" result="BackgroundImageFix"/>
<feColorMatrix in="SourceAlpha" type="matrix" values="0 0 0 0 0 0 0 0 0 0 0 0 0 0 0 0 0 0 127 0" result="hardAlpha"/>
<feOffset dy="11.0416"/>
<feGaussianBlur stdDeviation="20.7029"/>
<feColorMatrix type="matrix" values="0 0 0 0 0.230208 0 0 0 0 0.319526 0 0 0 0 0.65 0 0 0 0.15 0"/>
<feBlend mode="normal" in2="BackgroundImageFix" result="effect1_dropShadow"/>
<feColorMatrix in="SourceAlpha" type="matrix" values="0 0 0 0 0 0 0 0 0 0 0 0 0 0 0 0 0 0 127 0" result="hardAlpha"/>
<feOffset dy="1.84026"/>
<feGaussianBlur stdDeviation="5.52078"/>
<feColorMatrix type="matrix" values="0 0 0 0 0.230208 0 0 0 0 0.319526 0 0 0 0 0.65 0 0 0 0.05 0"/>
<feBlend mode="normal" in2="effect1_dropShadow" result="effect2_dropShadow"/>
<feBlend mode="normal" in="SourceGraphic" in2="effect2_dropShadow" result="shape"/>
</filter>
<linearGradient id="paint0_linear" x1="474" y1="91.4456" x2="712" y2="423.446" gradientUnits="userSpaceOnUse">
<stop stop-color="#AFDAB9"/>
<stop offset="1" stop-color="#CCDDD0"/>
</linearGradient>
<linearGradient id="paint1_linear" x1="325" y1="55" x2="531" y2="471" gradientUnits="userSpaceOnUse">
<stop stop-color="#6769E5"/>
<stop offset="1" stop-color="#B5B7FF"/>
</linearGradient>
<linearGradient id="paint2_linear" x1="391" y1="476" x2="32.5717" y2="468.087" gradientUnits="userSpaceOnUse">
<stop stop-color="#FFB642"/>
<stop offset="1" stop-color="#F3A831"/>
</linearGradient>
</defs>
</svg>
