<svg width="712" height="436" viewBox="0 0 712 436" fill="none" xmlns="http://www.w3.org/2000/svg">
<path d="M332.325 395.427C332.606 395.995 332.373 396.684 331.805 396.965L322.546 401.545C321.978 401.827 321.289 401.594 321.008 401.026C320.727 400.457 320.96 399.769 321.528 399.488L329.758 395.416L325.687 387.186C325.406 386.618 325.639 385.929 326.207 385.648C326.775 385.367 327.463 385.6 327.744 386.168L332.325 395.427ZM251.168 345.399L251.991 344.599L251.168 345.399ZM201.795 264.226C201.609 263.62 201.95 262.978 202.556 262.791C203.162 262.605 203.804 262.946 203.99 263.552L201.795 264.226ZM204.283 264.498C204.472 265.103 204.135 265.747 203.53 265.936C202.925 266.125 202.281 265.788 202.092 265.183L204.283 264.498ZM203.97 270.892C203.763 270.293 204.081 269.639 204.68 269.433C205.279 269.226 205.933 269.544 206.14 270.143L203.97 270.892ZM206.795 272.012C207.008 272.609 206.697 273.265 206.1 273.478C205.502 273.691 204.846 273.38 204.633 272.782L206.795 272.012ZM206.734 278.413C206.504 277.823 206.796 277.157 207.387 276.927C207.977 276.696 208.643 276.988 208.873 277.579L206.734 278.413ZM209.602 279.421C209.838 280.009 209.553 280.678 208.965 280.914C208.376 281.15 207.708 280.865 207.472 280.276L209.602 279.421ZM209.794 285.82C209.54 285.239 209.806 284.562 210.387 284.309C210.968 284.055 211.644 284.321 211.898 284.902L209.794 285.82ZM212.699 286.713C212.958 287.292 212.699 287.971 212.121 288.23C211.542 288.49 210.863 288.231 210.604 287.652L212.699 286.713ZM213.143 293.1C212.867 292.529 213.105 291.843 213.676 291.567C214.246 291.29 214.933 291.529 215.209 292.1L213.143 293.1ZM216.081 293.878C216.363 294.446 216.131 295.135 215.563 295.417C214.995 295.698 214.307 295.467 214.025 294.899L216.081 293.878ZM216.776 300.242C216.478 299.683 216.689 298.988 217.248 298.689C217.808 298.391 218.503 298.602 218.801 299.161L216.776 300.242ZM219.743 300.904C220.047 301.46 219.842 302.158 219.286 302.462C218.73 302.766 218.033 302.561 217.729 302.005L219.743 300.904ZM220.689 307.236C220.368 306.689 220.552 305.985 221.099 305.665C221.646 305.345 222.349 305.528 222.67 306.075L220.689 307.236ZM223.679 307.78C224.005 308.324 223.828 309.029 223.284 309.354C222.74 309.68 222.035 309.503 221.71 308.959L223.679 307.78ZM224.874 314.069C224.532 313.535 224.688 312.825 225.222 312.484C225.756 312.142 226.466 312.298 226.807 312.832L224.874 314.069ZM227.883 314.495C228.23 315.026 228.081 315.737 227.551 316.084C227.02 316.431 226.309 316.282 225.962 315.751L227.883 314.495ZM229.325 320.733C228.963 320.213 229.091 319.497 229.611 319.135C230.131 318.772 230.846 318.9 231.209 319.42L229.325 320.733ZM232.349 321.039C232.717 321.556 232.596 322.273 232.08 322.64C231.563 323.008 230.846 322.887 230.479 322.371L232.349 321.039ZM234.036 327.215C233.653 326.71 233.753 325.99 234.258 325.607C234.763 325.224 235.483 325.324 235.866 325.829L234.036 327.215ZM237.07 327.402C237.457 327.904 237.365 328.625 236.863 329.013C236.362 329.4 235.641 329.308 235.253 328.806L237.07 327.402ZM238.999 333.507C238.596 333.017 238.667 332.294 239.157 331.891C239.647 331.489 240.37 331.56 240.773 332.05L238.999 333.507ZM242.037 333.575C242.445 334.06 242.381 334.784 241.895 335.192C241.409 335.599 240.685 335.535 240.278 335.049L242.037 333.575ZM244.206 339.598C243.784 339.124 243.827 338.399 244.3 337.978C244.774 337.556 245.5 337.599 245.921 338.072L244.206 339.598ZM247.245 339.546C247.671 340.015 247.635 340.741 247.166 341.167C246.696 341.593 245.971 341.558 245.545 341.088L247.245 339.546ZM249.649 345.479C249.209 345.022 249.223 344.296 249.679 343.856C250.136 343.416 250.863 343.43 251.302 343.887L249.649 345.479ZM252.684 345.307C253.128 345.76 253.121 346.486 252.669 346.93C252.217 347.375 251.49 347.368 251.046 346.916L252.684 345.307ZM255.32 351.141C254.863 350.702 254.848 349.976 255.287 349.518C255.726 349.061 256.452 349.046 256.91 349.485L255.32 351.141ZM258.345 350.849C258.807 351.284 258.829 352.01 258.395 352.472C257.96 352.933 257.234 352.956 256.772 352.521L258.345 350.849ZM261.21 356.575C260.735 356.154 260.692 355.429 261.112 354.954C261.533 354.48 262.258 354.437 262.733 354.857L261.21 356.575ZM264.221 356.164C264.7 356.58 264.751 357.305 264.335 357.783C263.919 358.262 263.194 358.313 262.715 357.897L264.221 356.164ZM267.309 361.772C266.819 361.37 266.747 360.647 267.148 360.157C267.55 359.666 268.273 359.594 268.763 359.996L267.309 361.772ZM270.302 361.243C270.797 361.639 270.876 362.362 270.479 362.856C270.083 363.351 269.36 363.43 268.866 363.033L270.302 361.243ZM273.609 366.725C273.103 366.343 273.002 365.623 273.384 365.117C273.766 364.611 274.486 364.51 274.992 364.892L273.609 366.725ZM276.579 366.078C277.088 366.455 277.196 367.173 276.819 367.683C276.442 368.193 275.724 368.3 275.214 367.924L276.579 366.078ZM280.099 371.425C279.578 371.063 279.449 370.348 279.811 369.827C280.173 369.307 280.888 369.178 281.409 369.539L280.099 371.425ZM283.041 370.661C283.565 371.018 283.701 371.732 283.345 372.256C282.988 372.78 282.274 372.916 281.75 372.56L283.041 370.661ZM286.77 375.866C286.235 375.525 286.078 374.815 286.419 374.281C286.76 373.746 287.469 373.589 288.004 373.93L286.77 375.866ZM289.679 374.987C290.217 375.322 290.381 376.03 290.045 376.568C289.71 377.106 289.002 377.27 288.464 376.934L289.679 374.987ZM293.61 380.04C293.062 379.72 292.877 379.017 293.197 378.47C293.516 377.922 294.219 377.737 294.767 378.057L293.61 380.04ZM296.483 379.047C297.033 379.361 297.225 380.062 296.911 380.612C296.597 381.163 295.896 381.355 295.345 381.041L296.483 379.047ZM300.61 383.941C300.05 383.643 299.837 382.948 300.135 382.389C300.433 381.829 301.128 381.616 301.687 381.914L300.61 383.941ZM303.441 382.835C304.004 383.127 304.223 383.82 303.931 384.383C303.639 384.946 302.946 385.165 302.383 384.873L303.441 382.835ZM307.758 387.563C307.187 387.288 306.947 386.601 307.222 386.03C307.498 385.459 308.184 385.22 308.755 385.495L307.758 387.563ZM310.543 386.347C311.117 386.616 311.363 387.3 311.094 387.874C310.824 388.447 310.14 388.694 309.567 388.424L310.543 386.347ZM315.043 390.9C314.462 390.648 314.195 389.972 314.448 389.39C314.7 388.809 315.376 388.542 315.958 388.795L315.043 390.9ZM317.779 389.575C318.362 389.822 318.636 390.495 318.389 391.079C318.142 391.663 317.469 391.936 316.885 391.689L317.779 389.575ZM322.455 393.948C321.864 393.718 321.571 393.053 321.8 392.462C322.03 391.871 322.695 391.578 323.286 391.808L322.455 393.948ZM325.135 392.515C325.729 392.739 326.028 393.401 325.804 393.994C325.581 394.588 324.919 394.887 324.326 394.664L325.135 392.515ZM329.98 396.7C329.381 396.494 329.062 395.841 329.268 395.242C329.474 394.642 330.127 394.323 330.726 394.529L329.98 396.7ZM203.99 263.552C204.087 263.867 204.185 264.183 204.283 264.498L202.092 265.183C201.992 264.864 201.893 264.545 201.795 264.226L203.99 263.552ZM206.14 270.143C206.355 270.767 206.574 271.39 206.795 272.012L204.633 272.782C204.409 272.154 204.188 271.524 203.97 270.892L206.14 270.143ZM208.873 277.579C209.113 278.194 209.356 278.808 209.602 279.421L207.472 280.276C207.223 279.657 206.977 279.036 206.734 278.413L208.873 277.579ZM211.898 284.902C212.162 285.507 212.429 286.111 212.699 286.713L210.604 287.652C210.331 287.043 210.061 286.432 209.794 285.82L211.898 284.902ZM215.209 292.1C215.497 292.694 215.787 293.287 216.081 293.878L214.025 294.899C213.728 294.301 213.434 293.701 213.143 293.1L215.209 292.1ZM218.801 299.161C219.112 299.744 219.426 300.325 219.743 300.904L217.729 302.005C217.408 301.419 217.091 300.831 216.776 300.242L218.801 299.161ZM222.67 306.075C223.003 306.645 223.34 307.213 223.679 307.78L221.71 308.959C221.367 308.386 221.026 307.812 220.689 307.236L222.67 306.075ZM226.807 312.832C227.163 313.388 227.522 313.943 227.883 314.495L225.962 315.751C225.597 315.192 225.234 314.632 224.874 314.069L226.807 312.832ZM231.209 319.42C231.586 319.962 231.966 320.501 232.349 321.039L230.479 322.371C230.092 321.826 229.707 321.28 229.325 320.733L231.209 319.42ZM235.866 325.829C236.265 326.356 236.666 326.88 237.07 327.402L235.253 328.806C234.845 328.278 234.439 327.747 234.036 327.215L235.866 325.829ZM240.773 332.05C241.192 332.56 241.613 333.068 242.037 333.575L240.278 335.049C239.849 334.537 239.422 334.023 238.999 333.507L240.773 332.05ZM245.921 338.072C246.36 338.565 246.801 339.057 247.245 339.546L245.545 341.088C245.096 340.594 244.649 340.097 244.206 339.598L245.921 338.072ZM251.302 343.887C251.531 344.125 251.761 344.362 251.991 344.599L250.346 346.199C250.113 345.96 249.88 345.72 249.649 345.479L251.302 343.887ZM251.991 344.599C252.222 344.835 252.452 345.072 252.684 345.307L251.046 346.916C250.812 346.677 250.578 346.439 250.346 346.199L251.991 344.599ZM256.91 349.485C257.386 349.942 257.865 350.397 258.345 350.849L256.772 352.521C256.286 352.064 255.802 351.604 255.32 351.141L256.91 349.485ZM262.733 354.857C263.227 355.295 263.723 355.731 264.221 356.164L262.715 357.897C262.211 357.459 261.709 357.018 261.21 356.575L262.733 354.857ZM268.763 359.996C269.274 360.414 269.787 360.83 270.302 361.243L268.866 363.033C268.345 362.616 267.826 362.195 267.309 361.772L268.763 359.996ZM274.992 364.892C275.519 365.29 276.048 365.685 276.579 366.078L275.214 367.924C274.677 367.527 274.142 367.127 273.609 366.725L274.992 364.892ZM281.409 369.539C281.951 369.916 282.495 370.29 283.041 370.661L281.75 372.56C281.198 372.184 280.648 371.806 280.099 371.425L281.409 369.539ZM288.004 373.93C288.56 374.285 289.119 374.637 289.679 374.987L288.464 376.934C287.898 376.581 287.333 376.225 286.77 375.866L288.004 373.93ZM294.767 378.057C295.337 378.39 295.909 378.72 296.483 379.047L295.345 381.041C294.765 380.71 294.187 380.376 293.61 380.04L294.767 378.057ZM301.687 381.914C302.27 382.224 302.855 382.531 303.441 382.835L302.383 384.873C301.79 384.565 301.199 384.254 300.61 383.941L301.687 381.914ZM308.755 385.495C309.349 385.782 309.946 386.066 310.543 386.347L309.567 388.424C308.962 388.14 308.359 387.853 307.758 387.563L308.755 385.495ZM315.958 388.795C316.563 389.058 317.17 389.318 317.779 389.575L316.885 391.689C316.269 391.429 315.656 391.166 315.043 390.9L315.958 388.795ZM323.286 391.808C323.901 392.047 324.517 392.283 325.135 392.515L324.326 394.664C323.701 394.428 323.077 394.189 322.455 393.948L323.286 391.808ZM330.726 394.529C331.038 394.636 331.351 394.743 331.664 394.849L330.929 397.024C330.612 396.917 330.296 396.809 329.98 396.7L330.726 394.529Z" fill="#281C39"/>
<rect x="174" width="315.611" height="234.107" rx="7.50215" fill="#281C39"/>
<path d="M174 7.50216C174 3.35884 177.359 0 181.502 0H210.573V234.442H181.502C177.359 234.442 174 231.083 174 226.94V7.50216Z" fill="#2F3441"/>
<path d="M174 7.50215C174 3.35883 177.359 0 181.502 0H482.526C486.669 0 490.028 3.35882 490.028 7.50215V31.8841H174V7.50215Z" fill="#434855"/>
<circle cx="189.942" cy="15.9421" r="6.56438" fill="#606572"/>
<circle cx="208.697" cy="15.9423" r="6.56438" fill="#606572"/>
<circle cx="227.453" cy="15.9423" r="6.56438" fill="#606572"/>
<path opacity="0.65" d="M194.505 59.1996H187.739L188.002 57.8644H190.772L192.33 50.0838L189.527 51.452L189.173 50.1827L192.956 48.3777H194.25L192.363 57.8644H194.777L194.505 59.1996ZM194.588 85.1996H187.5L187.755 83.9138L191.093 81.1115C191.72 80.584 192.225 80.1224 192.61 79.7268C193 79.3312 193.302 78.9768 193.516 78.6636C193.731 78.3449 193.876 78.0564 193.953 77.7982C194.03 77.5344 194.069 77.2734 194.069 77.0152C194.069 76.5756 193.945 76.2212 193.698 75.9519C193.45 75.6827 193.066 75.5481 192.544 75.5481C192.088 75.5481 191.651 75.6497 191.233 75.853C190.821 76.0563 190.426 76.3201 190.046 76.6443L189.338 75.6964C189.585 75.4821 189.838 75.2898 190.096 75.1195C190.36 74.9437 190.632 74.7953 190.912 74.6744C191.198 74.548 191.494 74.4519 191.802 74.3859C192.115 74.3145 192.442 74.2788 192.783 74.2788C193.206 74.2788 193.591 74.3392 193.937 74.4601C194.283 74.581 194.58 74.7568 194.827 74.9876C195.074 75.2129 195.264 75.4849 195.396 75.8036C195.533 76.1223 195.602 76.4794 195.602 76.8751C195.602 77.3091 195.538 77.7185 195.412 78.1031C195.291 78.4823 195.091 78.8669 194.81 79.257C194.53 79.6472 194.165 80.0565 193.714 80.4851C193.264 80.9137 192.711 81.3945 192.058 81.9275L189.709 83.8314H194.86L194.588 85.1996ZM189.832 111.348C189.404 111.348 189.002 111.331 188.629 111.298C188.255 111.271 187.923 111.233 187.632 111.183L187.887 109.93C188.211 109.985 188.546 110.029 188.893 110.062C189.244 110.09 189.618 110.103 190.014 110.103C190.492 110.103 190.912 110.065 191.275 109.988C191.637 109.911 191.95 109.809 192.214 109.683C192.478 109.557 192.695 109.411 192.865 109.246C193.041 109.076 193.178 108.903 193.277 108.727C193.382 108.546 193.453 108.364 193.492 108.183C193.536 108.002 193.558 107.831 193.558 107.672C193.558 107.43 193.5 107.221 193.385 107.046C193.275 106.864 193.115 106.713 192.906 106.592C192.703 106.471 192.453 106.383 192.156 106.329C191.865 106.268 191.541 106.238 191.184 106.238H189.948L190.187 105.059H191.316C191.667 105.059 192.005 105.007 192.33 104.903C192.659 104.798 192.948 104.647 193.195 104.449C193.448 104.246 193.648 104.001 193.797 103.716C193.945 103.425 194.019 103.095 194.019 102.727C194.019 102.315 193.874 102.012 193.582 101.82C193.291 101.622 192.857 101.523 192.28 101.523C191.917 101.523 191.547 101.559 191.167 101.631C190.794 101.702 190.376 101.809 189.915 101.952V100.699C190.118 100.633 190.329 100.576 190.549 100.526C190.775 100.471 191 100.427 191.225 100.394C191.456 100.356 191.678 100.328 191.893 100.312C192.113 100.29 192.319 100.279 192.511 100.279C193.016 100.279 193.459 100.331 193.838 100.435C194.222 100.54 194.541 100.688 194.794 100.88C195.047 101.067 195.236 101.295 195.363 101.565C195.489 101.828 195.552 102.125 195.552 102.455C195.552 102.696 195.519 102.957 195.453 103.238C195.387 103.518 195.266 103.798 195.091 104.078C194.92 104.359 194.684 104.631 194.382 104.894C194.08 105.153 193.692 105.381 193.22 105.578C193.478 105.628 193.72 105.708 193.945 105.817C194.17 105.927 194.368 106.068 194.538 106.238C194.709 106.403 194.841 106.6 194.934 106.831C195.033 107.057 195.082 107.309 195.082 107.59C195.082 107.853 195.041 108.131 194.959 108.422C194.876 108.708 194.747 108.991 194.571 109.271C194.401 109.546 194.176 109.809 193.896 110.062C193.621 110.315 193.288 110.537 192.898 110.73C192.514 110.917 192.066 111.068 191.555 111.183C191.049 111.293 190.475 111.348 189.832 111.348ZM195.602 134.818H193.764L193.294 137.2H191.819L192.297 134.818H187.112L187.368 133.557L193.253 126.427H195.453L194.019 133.557H195.857L195.602 134.818ZM193.698 127.812L188.917 133.557H192.544L193.698 127.812ZM195.049 159.235C195.049 159.807 194.918 160.342 194.654 160.842C194.396 161.342 194.036 161.779 193.574 162.153C193.113 162.521 192.566 162.812 191.934 163.027C191.302 163.241 190.612 163.348 189.865 163.348C189.684 163.348 189.497 163.342 189.305 163.331C189.112 163.326 188.923 163.315 188.736 163.298C188.555 163.288 188.379 163.271 188.208 163.249C188.038 163.233 187.887 163.211 187.755 163.183L188.002 161.914C188.145 161.947 188.299 161.977 188.464 162.004C188.634 162.026 188.805 162.046 188.975 162.062C189.151 162.079 189.324 162.09 189.494 162.095C189.67 162.101 189.838 162.103 189.997 162.103C190.514 162.103 190.986 162.035 191.415 161.897C191.843 161.76 192.211 161.57 192.519 161.329C192.832 161.081 193.074 160.793 193.244 160.463C193.42 160.134 193.508 159.779 193.508 159.4C193.508 158.916 193.308 158.551 192.906 158.304C192.505 158.057 191.884 157.933 191.044 157.933H188.983L190.096 152.427H195.907L195.651 153.68H191.2L190.59 156.705H191.448C191.937 156.705 192.398 156.752 192.832 156.845C193.272 156.938 193.654 157.087 193.978 157.29C194.308 157.488 194.569 157.749 194.761 158.073C194.953 158.392 195.049 158.779 195.049 159.235ZM195.453 185.046C195.453 185.628 195.343 186.18 195.124 186.702C194.904 187.224 194.596 187.68 194.201 188.07C193.81 188.461 193.341 188.771 192.791 189.002C192.247 189.233 191.648 189.348 190.994 189.348C190.049 189.348 189.324 189.087 188.818 188.565C188.313 188.043 188.06 187.241 188.06 186.158C188.06 185.867 188.077 185.535 188.11 185.161C188.148 184.782 188.211 184.383 188.299 183.966C188.387 183.548 188.508 183.122 188.662 182.688C188.821 182.249 189.022 181.826 189.263 181.419C189.511 181.007 189.805 180.62 190.145 180.257C190.492 179.894 190.893 179.578 191.349 179.309C191.81 179.034 192.335 178.82 192.923 178.666C193.516 178.507 194.184 178.427 194.926 178.427H196.038L195.791 179.68H194.695C193.97 179.68 193.346 179.771 192.824 179.952C192.308 180.133 191.868 180.381 191.505 180.694C191.143 181.001 190.849 181.361 190.623 181.773C190.398 182.186 190.217 182.62 190.079 183.076L190.014 183.224C190.404 183.032 190.816 182.875 191.25 182.754C191.684 182.628 192.121 182.565 192.56 182.565C193.06 182.565 193.492 182.625 193.854 182.746C194.222 182.867 194.525 183.037 194.761 183.257C194.997 183.477 195.17 183.738 195.28 184.04C195.396 184.342 195.453 184.677 195.453 185.046ZM193.945 185.186C193.945 184.719 193.81 184.359 193.541 184.106C193.277 183.853 192.863 183.727 192.297 183.727C192.077 183.727 191.852 183.749 191.621 183.793C191.39 183.831 191.162 183.886 190.937 183.958C190.717 184.024 190.503 184.103 190.294 184.197C190.085 184.285 189.895 184.378 189.725 184.477C189.659 184.73 189.612 185.007 189.585 185.309C189.557 185.612 189.544 185.905 189.544 186.191C189.544 186.57 189.579 186.886 189.651 187.139C189.728 187.392 189.835 187.595 189.972 187.749C190.115 187.897 190.288 188.004 190.492 188.07C190.7 188.136 190.937 188.169 191.2 188.169C191.623 188.169 192.005 188.084 192.346 187.914C192.687 187.743 192.975 187.518 193.211 187.238C193.448 186.958 193.629 186.639 193.755 186.282C193.882 185.925 193.945 185.559 193.945 185.186ZM196.426 205.762L190.096 215.2H188.382L194.86 205.762H189.14L189.404 204.427H196.698L196.426 205.762Z" fill="#5D6182"/>
<path d="M226.191 59.8937L224.893 61.2033L216.893 54.5245L224.893 47.8456L226.191 49.1671L219.703 54.5006L226.191 59.8937ZM236.596 44.1907L236.275 56.4531H234.441L234.084 44.1907H236.596ZM235.346 58.0841C235.56 58.0841 235.763 58.1278 235.953 58.2151C236.144 58.2944 236.306 58.4056 236.441 58.5484C236.584 58.6913 236.695 58.8619 236.775 59.0604C236.862 59.2508 236.906 59.4532 236.906 59.6675C236.906 59.8818 236.862 60.0842 236.775 60.2747C236.695 60.4652 236.584 60.6318 236.441 60.7747C236.306 60.9096 236.144 61.0168 235.953 61.0962C235.763 61.1835 235.56 61.2271 235.346 61.2271C235.124 61.2271 234.917 61.1835 234.727 61.0962C234.536 61.0168 234.37 60.9096 234.227 60.7747C234.084 60.6318 233.969 60.4652 233.882 60.2747C233.802 60.0842 233.763 59.8818 233.763 59.6675C233.763 59.4532 233.802 59.2508 233.882 59.0604C233.969 58.8619 234.084 58.6913 234.227 58.5484C234.37 58.4056 234.536 58.2944 234.727 58.2151C234.917 58.1278 235.124 58.0841 235.346 58.0841Z" fill="white" fill-opacity="0.36"/>
<path d="M226.191 87.089L224.893 88.3986L216.893 81.7198L224.893 75.0409L226.191 76.3624L219.703 81.696L226.191 87.089Z" fill="#FB6262"/>
<path d="M238.382 135.853L237.084 137.163L229.084 130.484L237.084 123.805L238.382 125.126L231.893 130.46L238.382 135.853Z" fill="#FB6262"/>
<path d="M238.382 184.617L237.084 185.927L229.084 179.248L237.084 172.569L238.382 173.89L231.893 179.224L238.382 184.617Z" fill="#FB6262"/>
<path d="M238.382 215.563L237.084 216.873L229.084 210.194L237.084 203.515L238.382 204.837L231.893 210.17L238.382 215.563Z" fill="#FB6262"/>
<path d="M317.11 80.5173H306.871V78.7673H317.11V80.5173ZM317.11 84.6604H306.871V82.9103H317.11V84.6604ZM325.622 77.1124C325.963 77.1283 326.3 77.0966 326.634 77.0172C326.967 76.9378 327.261 76.8188 327.515 76.66C327.769 76.5013 327.975 76.3029 328.134 76.0648C328.293 75.8187 328.372 75.5409 328.372 75.2314C328.372 74.9219 328.32 74.6758 328.217 74.4933C328.114 74.3028 327.999 74.1242 327.872 73.9575C327.745 73.7909 327.63 73.6123 327.527 73.4218C327.423 73.2313 327.372 72.9813 327.372 72.6718C327.372 72.513 327.4 72.3503 327.455 72.1836C327.519 72.017 327.61 71.8662 327.729 71.7312C327.856 71.5884 328.015 71.4733 328.205 71.386C328.396 71.2908 328.622 71.2431 328.884 71.2431C329.146 71.2431 329.396 71.2987 329.634 71.4098C329.872 71.5209 330.082 71.6876 330.265 71.9098C330.447 72.1241 330.59 72.4019 330.693 72.7432C330.805 73.0765 330.86 73.4694 330.86 73.9218C330.86 74.5409 330.745 75.1362 330.515 75.7076C330.293 76.2711 329.959 76.7711 329.515 77.2077C329.078 77.6442 328.535 77.9934 327.884 78.2553C327.233 78.5172 326.479 78.6482 325.622 78.6482V77.1124ZM319.372 77.1124C319.721 77.1283 320.058 77.0966 320.383 77.0172C320.717 76.9378 321.01 76.8188 321.264 76.66C321.526 76.5013 321.737 76.3029 321.895 76.0648C322.054 75.8187 322.134 75.5409 322.134 75.2314C322.134 74.9219 322.082 74.6758 321.979 74.4933C321.876 74.3028 321.761 74.1242 321.634 73.9575C321.507 73.7909 321.391 73.6123 321.288 73.4218C321.185 73.2313 321.133 72.9813 321.133 72.6718C321.133 72.513 321.161 72.3503 321.217 72.1836C321.28 72.017 321.372 71.8662 321.491 71.7312C321.618 71.5884 321.776 71.4733 321.967 71.386C322.157 71.2908 322.384 71.2431 322.645 71.2431C322.907 71.2431 323.157 71.2987 323.395 71.4098C323.634 71.5209 323.844 71.6876 324.026 71.9098C324.209 72.1241 324.352 72.4019 324.455 72.7432C324.566 73.0765 324.622 73.4694 324.622 73.9218C324.622 74.5409 324.507 75.1362 324.276 75.7076C324.054 76.2711 323.721 76.7711 323.276 77.2077C322.84 77.6442 322.292 77.9934 321.634 78.2553C320.983 78.5172 320.229 78.6482 319.372 78.6482V77.1124Z" fill="#FB6262"/>
<path d="M331.176 129.281H320.938V127.531H331.176V129.281ZM331.176 133.424H320.938V131.674H331.176V133.424ZM339.688 125.876C340.03 125.892 340.367 125.86 340.7 125.781C341.034 125.702 341.327 125.583 341.581 125.424C341.835 125.265 342.042 125.067 342.2 124.829C342.359 124.583 342.438 124.305 342.438 123.995C342.438 123.686 342.387 123.44 342.284 123.257C342.18 123.067 342.065 122.888 341.938 122.721C341.811 122.555 341.696 122.376 341.593 122.186C341.49 121.995 341.438 121.745 341.438 121.436C341.438 121.277 341.466 121.114 341.522 120.948C341.585 120.781 341.676 120.63 341.796 120.495C341.923 120.352 342.081 120.237 342.272 120.15C342.462 120.055 342.688 120.007 342.95 120.007C343.212 120.007 343.462 120.063 343.7 120.174C343.938 120.285 344.149 120.452 344.331 120.674C344.514 120.888 344.657 121.166 344.76 121.507C344.871 121.84 344.927 122.233 344.927 122.686C344.927 123.305 344.812 123.9 344.581 124.472C344.359 125.035 344.026 125.535 343.581 125.972C343.145 126.408 342.601 126.757 341.95 127.019C341.299 127.281 340.545 127.412 339.688 127.412V125.876ZM333.438 125.876C333.787 125.892 334.125 125.86 334.45 125.781C334.783 125.702 335.077 125.583 335.331 125.424C335.593 125.265 335.803 125.067 335.962 124.829C336.121 124.583 336.2 124.305 336.2 123.995C336.2 123.686 336.148 123.44 336.045 123.257C335.942 123.067 335.827 122.888 335.7 122.721C335.573 122.555 335.458 122.376 335.355 122.186C335.252 121.995 335.2 121.745 335.2 121.436C335.2 121.277 335.228 121.114 335.283 120.948C335.347 120.781 335.438 120.63 335.557 120.495C335.684 120.352 335.843 120.237 336.033 120.15C336.224 120.055 336.45 120.007 336.712 120.007C336.974 120.007 337.224 120.063 337.462 120.174C337.7 120.285 337.91 120.452 338.093 120.674C338.276 120.888 338.418 121.166 338.522 121.507C338.633 121.84 338.688 122.233 338.688 122.686C338.688 123.305 338.573 123.9 338.343 124.472C338.121 125.035 337.787 125.535 337.343 125.972C336.906 126.408 336.359 126.757 335.7 127.019C335.049 127.281 334.295 127.412 333.438 127.412V125.876Z" fill="#FB6262"/>
<path d="M391.193 153.663H380.955V151.913H391.193V153.663ZM391.193 157.806H380.955V156.056H391.193V157.806ZM399.705 150.258C400.047 150.274 400.384 150.243 400.717 150.163C401.051 150.084 401.344 149.965 401.598 149.806C401.852 149.647 402.059 149.449 402.217 149.211C402.376 148.965 402.456 148.687 402.456 148.377C402.456 148.068 402.404 147.822 402.301 147.639C402.198 147.449 402.082 147.27 401.955 147.104C401.829 146.937 401.713 146.758 401.61 146.568C401.507 146.377 401.455 146.127 401.455 145.818C401.455 145.659 401.483 145.496 401.539 145.33C401.602 145.163 401.694 145.012 401.813 144.877C401.94 144.734 402.098 144.619 402.289 144.532C402.479 144.437 402.706 144.389 402.967 144.389C403.229 144.389 403.479 144.445 403.717 144.556C403.956 144.667 404.166 144.834 404.348 145.056C404.531 145.27 404.674 145.548 404.777 145.889C404.888 146.223 404.944 146.615 404.944 147.068C404.944 147.687 404.829 148.282 404.598 148.854C404.376 149.417 404.043 149.917 403.598 150.354C403.162 150.79 402.618 151.139 401.967 151.401C401.317 151.663 400.563 151.794 399.705 151.794V150.258ZM393.455 150.258C393.804 150.274 394.142 150.243 394.467 150.163C394.8 150.084 395.094 149.965 395.348 149.806C395.61 149.647 395.82 149.449 395.979 149.211C396.138 148.965 396.217 148.687 396.217 148.377C396.217 148.068 396.166 147.822 396.062 147.639C395.959 147.449 395.844 147.27 395.717 147.104C395.59 146.937 395.475 146.758 395.372 146.568C395.269 146.377 395.217 146.127 395.217 145.818C395.217 145.659 395.245 145.496 395.3 145.33C395.364 145.163 395.455 145.012 395.574 144.877C395.701 144.734 395.86 144.619 396.05 144.532C396.241 144.437 396.467 144.389 396.729 144.389C396.991 144.389 397.241 144.445 397.479 144.556C397.717 144.667 397.928 144.834 398.11 145.056C398.293 145.27 398.436 145.548 398.539 145.889C398.65 146.223 398.705 146.615 398.705 147.068C398.705 147.687 398.59 148.282 398.36 148.854C398.138 149.417 397.805 149.917 397.36 150.354C396.924 150.79 396.376 151.139 395.717 151.401C395.066 151.663 394.312 151.794 393.455 151.794V150.258Z" fill="#FB6262"/>
<path d="M427.766 178.045H417.528V176.295H427.766V178.045ZM427.766 182.188H417.528V180.438H427.766V182.188ZM436.278 174.64C436.62 174.656 436.957 174.625 437.29 174.545C437.624 174.466 437.917 174.347 438.171 174.188C438.425 174.029 438.632 173.831 438.79 173.593C438.949 173.347 439.029 173.069 439.029 172.759C439.029 172.45 438.977 172.204 438.874 172.021C438.771 171.831 438.655 171.652 438.528 171.485C438.402 171.319 438.286 171.14 438.183 170.95C438.08 170.759 438.028 170.509 438.028 170.2C438.028 170.041 438.056 169.878 438.112 169.712C438.175 169.545 438.267 169.394 438.386 169.259C438.513 169.116 438.671 169.001 438.862 168.914C439.052 168.819 439.279 168.771 439.54 168.771C439.802 168.771 440.052 168.827 440.29 168.938C440.529 169.049 440.739 169.216 440.921 169.438C441.104 169.652 441.247 169.93 441.35 170.271C441.461 170.604 441.517 170.997 441.517 171.45C441.517 172.069 441.402 172.664 441.171 173.236C440.949 173.799 440.616 174.299 440.171 174.736C439.735 175.172 439.191 175.521 438.54 175.783C437.89 176.045 437.136 176.176 436.278 176.176V174.64ZM430.028 174.64C430.377 174.656 430.715 174.625 431.04 174.545C431.373 174.466 431.667 174.347 431.921 174.188C432.183 174.029 432.393 173.831 432.552 173.593C432.711 173.347 432.79 173.069 432.79 172.759C432.79 172.45 432.739 172.204 432.635 172.021C432.532 171.831 432.417 171.652 432.29 171.485C432.163 171.319 432.048 171.14 431.945 170.95C431.842 170.759 431.79 170.509 431.79 170.2C431.79 170.041 431.818 169.878 431.873 169.712C431.937 169.545 432.028 169.394 432.147 169.259C432.274 169.116 432.433 169.001 432.623 168.914C432.814 168.819 433.04 168.771 433.302 168.771C433.564 168.771 433.814 168.827 434.052 168.938C434.29 169.049 434.501 169.216 434.683 169.438C434.866 169.652 435.009 169.93 435.112 170.271C435.223 170.604 435.278 170.997 435.278 171.45C435.278 172.069 435.163 172.664 434.933 173.236C434.711 173.799 434.378 174.299 433.933 174.736C433.497 175.172 432.949 175.521 432.29 175.783C431.639 176.045 430.885 176.176 430.028 176.176V174.64Z" fill="#FB6262"/>
<path d="M312.216 101.494C312.558 101.51 312.895 101.479 313.228 101.399C313.562 101.32 313.855 101.201 314.109 101.042C314.363 100.883 314.57 100.685 314.728 100.447C314.887 100.201 314.967 99.9229 314.967 99.6134C314.967 99.3038 314.915 99.0578 314.812 98.8752C314.709 98.6847 314.594 98.5062 314.467 98.3395C314.34 98.1728 314.224 97.9942 314.121 97.8038C314.018 97.6133 313.967 97.3633 313.967 97.0537C313.967 96.895 313.994 96.7323 314.05 96.5656C314.113 96.3989 314.205 96.2481 314.324 96.1132C314.451 95.9703 314.609 95.8553 314.8 95.768C314.99 95.6727 315.217 95.6251 315.479 95.6251C315.74 95.6251 315.99 95.6806 316.229 95.7918C316.467 95.9029 316.677 96.0696 316.86 96.2918C317.042 96.5061 317.185 96.7839 317.288 97.1252C317.399 97.4585 317.455 97.8514 317.455 98.3038C317.455 98.9228 317.34 99.5181 317.11 100.09C316.887 100.653 316.554 101.153 316.109 101.59C315.673 102.026 315.129 102.375 314.478 102.637C313.828 102.899 313.074 103.03 312.216 103.03V101.494ZM305.966 101.494C306.315 101.51 306.653 101.479 306.978 101.399C307.311 101.32 307.605 101.201 307.859 101.042C308.121 100.883 308.331 100.685 308.49 100.447C308.649 100.201 308.728 99.9229 308.728 99.6134C308.728 99.3038 308.677 99.0578 308.573 98.8752C308.47 98.6847 308.355 98.5062 308.228 98.3395C308.101 98.1728 307.986 97.9942 307.883 97.8038C307.78 97.6133 307.728 97.3633 307.728 97.0537C307.728 96.895 307.756 96.7323 307.812 96.5656C307.875 96.3989 307.966 96.2481 308.085 96.1132C308.212 95.9703 308.371 95.8553 308.562 95.768C308.752 95.6727 308.978 95.6251 309.24 95.6251C309.502 95.6251 309.752 95.6806 309.99 95.7918C310.228 95.9029 310.439 96.0696 310.621 96.2918C310.804 96.5061 310.947 96.7839 311.05 97.1252C311.161 97.4585 311.216 97.8514 311.216 98.3038C311.216 98.9228 311.101 99.5181 310.871 100.09C310.649 100.653 310.316 101.153 309.871 101.59C309.435 102.026 308.887 102.375 308.228 102.637C307.577 102.899 306.823 103.03 305.966 103.03V101.494Z" fill="#FB6262"/>
<path d="M478.201 150.258C478.543 150.274 478.88 150.243 479.213 150.163C479.547 150.084 479.84 149.965 480.094 149.806C480.348 149.647 480.555 149.449 480.713 149.211C480.872 148.965 480.951 148.687 480.951 148.377C480.951 148.068 480.9 147.822 480.797 147.639C480.693 147.449 480.578 147.27 480.451 147.104C480.324 146.937 480.209 146.758 480.106 146.568C480.003 146.377 479.951 146.127 479.951 145.818C479.951 145.659 479.979 145.496 480.035 145.33C480.098 145.163 480.19 145.012 480.309 144.877C480.436 144.734 480.594 144.619 480.785 144.532C480.975 144.437 481.201 144.389 481.463 144.389C481.725 144.389 481.975 144.445 482.213 144.556C482.452 144.667 482.662 144.834 482.844 145.056C483.027 145.27 483.17 145.548 483.273 145.889C483.384 146.223 483.44 146.615 483.44 147.068C483.44 147.687 483.325 148.282 483.094 148.854C482.872 149.417 482.539 149.917 482.094 150.354C481.658 150.79 481.114 151.139 480.463 151.401C479.813 151.663 479.059 151.794 478.201 151.794V150.258ZM471.951 150.258C472.3 150.274 472.638 150.243 472.963 150.163C473.296 150.084 473.59 149.965 473.844 149.806C474.106 149.647 474.316 149.449 474.475 149.211C474.634 148.965 474.713 148.687 474.713 148.377C474.713 148.068 474.661 147.822 474.558 147.639C474.455 147.449 474.34 147.27 474.213 147.104C474.086 146.937 473.971 146.758 473.868 146.568C473.765 146.377 473.713 146.127 473.713 145.818C473.713 145.659 473.741 145.496 473.796 145.33C473.86 145.163 473.951 145.012 474.07 144.877C474.197 144.734 474.356 144.619 474.546 144.532C474.737 144.437 474.963 144.389 475.225 144.389C475.487 144.389 475.737 144.445 475.975 144.556C476.213 144.667 476.423 144.834 476.606 145.056C476.789 145.27 476.931 145.548 477.035 145.889C477.146 146.223 477.201 146.615 477.201 147.068C477.201 147.687 477.086 148.282 476.856 148.854C476.634 149.417 476.3 149.917 475.856 150.354C475.419 150.79 474.872 151.139 474.213 151.401C473.562 151.663 472.808 151.794 471.951 151.794V150.258Z" fill="#FB6262"/>
<path d="M361.229 49.1671L362.514 47.8456L370.515 54.5245L362.514 61.2033L361.229 59.8937L367.717 54.5483L361.229 49.1671ZM397.373 53.322H387.134V51.5719H397.373V53.322ZM397.373 57.465H387.134V55.715H397.373V57.465ZM410.778 53.322H400.54V51.5719H410.778V53.322ZM410.778 57.465H400.54V55.715H410.778V57.465ZM419.41 43.2145H421.136L420.826 45.536C421.239 45.5757 421.652 45.6273 422.064 45.6907C422.485 45.7542 422.874 45.8296 423.231 45.9169V47.7504C422.795 47.6392 422.354 47.544 421.91 47.4646C421.465 47.3853 421.029 47.3257 420.6 47.2861L419.921 52.3815C420.453 52.5879 420.981 52.8141 421.505 53.0601C422.029 53.2982 422.497 53.5839 422.91 53.9173C423.33 54.2427 423.668 54.6316 423.922 55.084C424.184 55.5364 424.315 56.0761 424.315 56.7031C424.315 57.3698 424.18 57.9611 423.91 58.477C423.64 58.9929 423.263 59.4294 422.779 59.7866C422.295 60.1437 421.711 60.4255 421.029 60.6318C420.346 60.8303 419.596 60.9493 418.779 60.989L418.386 63.8225H416.648L417.04 60.989C416.398 60.9414 415.782 60.8739 415.195 60.7866C414.616 60.6914 414.112 60.5882 413.683 60.4771V58.5008C414.183 58.6754 414.727 58.8183 415.314 58.9294C415.909 59.0405 416.568 59.1159 417.29 59.1556L417.993 53.7982C417.477 53.5998 416.969 53.3855 416.469 53.1553C415.969 52.9252 415.521 52.6514 415.124 52.3339C414.735 52.0085 414.417 51.6275 414.171 51.191C413.925 50.7545 413.802 50.2346 413.802 49.6314C413.802 49.1393 413.905 48.6552 414.112 48.1789C414.318 47.6948 414.64 47.2622 415.076 46.8813C415.513 46.4924 416.064 46.1749 416.731 45.9289C417.398 45.6749 418.191 45.5241 419.112 45.4765L419.41 43.2145ZM418.874 47.2622C417.882 47.3495 417.156 47.5837 416.695 47.9647C416.243 48.3377 416.017 48.8179 416.017 49.4052C416.017 49.9528 416.203 50.4052 416.576 50.7624C416.957 51.1116 417.521 51.4331 418.267 51.7267L418.874 47.2622ZM419.017 59.1556C420.088 59.0762 420.866 58.8381 421.35 58.4413C421.842 58.0444 422.088 57.5047 422.088 56.8222C422.088 56.5364 422.037 56.2825 421.933 56.0602C421.83 55.8301 421.676 55.6237 421.469 55.4412C421.263 55.2586 421.005 55.088 420.695 54.9292C420.394 54.7705 420.037 54.6118 419.624 54.453L419.017 59.1556ZM438.125 53.2387C438.125 54.4292 438.006 55.5166 437.767 56.5007C437.529 57.477 437.168 58.3183 436.684 59.0246C436.2 59.7231 435.597 60.2668 434.874 60.6557C434.16 61.0366 433.319 61.2271 432.351 61.2271C431.517 61.2271 430.759 61.0723 430.077 60.7628C429.394 60.4453 428.811 59.9612 428.327 59.3104C427.842 58.6595 427.469 57.8301 427.208 56.8222C426.946 55.8142 426.815 54.6197 426.815 53.2387C426.815 52.0482 426.934 50.9608 427.172 49.9766C427.418 48.9925 427.779 48.1512 428.255 47.4527C428.739 46.7463 429.343 46.2027 430.065 45.8217C430.787 45.4328 431.628 45.2383 432.589 45.2383C433.422 45.2383 434.18 45.3971 434.863 45.7146C435.545 46.0241 436.129 46.5082 436.613 47.167C437.097 47.8178 437.47 48.6472 437.732 49.6552C437.994 50.6632 438.125 51.8577 438.125 53.2387ZM436.029 53.3101C436.029 53.0403 436.017 52.7744 435.994 52.5125C435.978 52.2426 435.958 51.9807 435.934 51.7267L429.35 56.6198C429.47 57.0325 429.62 57.4135 429.803 57.7627C429.985 58.1119 430.204 58.4135 430.458 58.6675C430.72 58.9135 431.013 59.108 431.339 59.2508C431.672 59.3858 432.049 59.4532 432.47 59.4532C433.009 59.4532 433.497 59.3223 433.934 59.0604C434.378 58.7984 434.755 58.4095 435.065 57.8936C435.375 57.3777 435.613 56.7388 435.779 55.9769C435.946 55.207 436.029 54.3181 436.029 53.3101ZM428.91 53.1673C428.91 53.4133 428.91 53.6593 428.91 53.9054C428.918 54.1514 428.934 54.3895 428.958 54.6197L435.541 49.7504C435.422 49.3457 435.271 48.9766 435.089 48.6433C434.906 48.3099 434.688 48.0242 434.434 47.7861C434.18 47.54 433.89 47.3495 433.565 47.2146C433.24 47.0797 432.874 47.0122 432.47 47.0122C431.93 47.0122 431.438 47.1432 430.993 47.4051C430.557 47.667 430.184 48.0599 429.874 48.5837C429.565 49.0996 429.327 49.7425 429.16 50.5124C428.993 51.2743 428.91 52.1593 428.91 53.1673Z" fill="white" fill-opacity="0.36"/>
<rect x="247.146" y="51.5773" width="66.5815" height="6.56438" rx="3.28219" fill="white" fill-opacity="0.36"/>
<rect x="234.017" y="78.7726" width="66.5815" height="6.56438" rx="3.28219" fill="#FB6262"/>
<rect x="246.208" y="127.536" width="66.5815" height="6.56438" rx="3.28219" fill="#FB6262"/>
<rect x="246.208" y="176.3" width="41.2618" height="6.56438" rx="3.28219" fill="#FB6262"/>
<rect x="298.723" y="176.3" width="107.843" height="6.56438" rx="3.28219" fill="#FB6262"/>
<rect x="246.208" y="207.247" width="41.2618" height="6.56438" rx="3.28219" fill="#FB6262"/>
<rect x="298.723" y="207.247" width="107.843" height="6.56438" rx="3.28219" fill="#FB6262"/>
<rect x="349.363" y="127.536" width="66.5815" height="6.56438" rx="3.28219" fill="#FB6262"/>
<rect x="423.446" y="127.536" width="55.3283" height="6.56438" rx="3.28219" fill="#FB6262"/>
<rect x="446.891" y="176.3" width="31.8841" height="6.56438" rx="3.28219" fill="#FB6262"/>
<rect x="446.891" y="207.247" width="31.8841" height="6.56438" rx="3.28219" fill="#FB6262"/>
<rect x="411.255" y="151.918" width="55.3283" height="6.56438" rx="3.28219" fill="#FB6262"/>
<rect x="215.262" y="103.155" width="85.3369" height="6.56438" rx="3.28219" fill="#FB6262"/>
<rect x="333.421" y="78.7726" width="145.354" height="6.56438" rx="3.28219" fill="#FB6262"/>
<rect x="229.328" y="151.918" width="145.354" height="6.56438" rx="3.28219" fill="#FB6262"/>
<rect x="320.292" y="51.5773" width="31.8841" height="6.56438" rx="3.28219" fill="white" fill-opacity="0.36"/>
<rect x="354.35" y="201" width="315.611" height="234.107" rx="7.50215" fill="#281C39"/>
<path d="M354.35 208.502C354.35 204.359 357.708 201 361.852 201H390.923V435.442H361.852C357.708 435.442 354.35 432.083 354.35 427.94V208.502Z" fill="#2F3441"/>
<path d="M354.35 208.502C354.35 204.359 357.708 201 361.852 201H662.875C667.019 201 670.378 204.359 670.378 208.502V232.884H354.35V208.502Z" fill="#434855"/>
<circle cx="370.292" cy="216.943" r="6.56438" fill="#606572"/>
<circle cx="389.048" cy="216.942" r="6.56438" fill="#606572"/>
<circle cx="407.803" cy="216.942" r="6.56438" fill="#606572"/>
<path opacity="0.65" d="M374.855 260.199H368.089L368.352 258.864H371.122L372.679 251.084L369.877 252.452L369.523 251.183L373.306 249.378H374.6L372.712 258.864H375.127L374.855 260.199ZM374.938 286.199H367.85L368.105 284.914L371.443 282.111C372.069 281.584 372.575 281.122 372.96 280.727C373.35 280.331 373.652 279.977 373.866 279.663C374.081 279.345 374.226 279.056 374.303 278.798C374.38 278.534 374.418 278.273 374.418 278.015C374.418 277.575 374.295 277.221 374.048 276.952C373.8 276.683 373.416 276.548 372.894 276.548C372.438 276.548 372.001 276.65 371.583 276.853C371.171 277.056 370.775 277.32 370.396 277.644L369.688 276.696C369.935 276.482 370.188 276.29 370.446 276.119C370.71 275.944 370.982 275.795 371.262 275.674C371.547 275.548 371.844 275.452 372.152 275.386C372.465 275.314 372.792 275.279 373.133 275.279C373.556 275.279 373.94 275.339 374.287 275.46C374.633 275.581 374.929 275.757 375.177 275.987C375.424 276.213 375.614 276.485 375.745 276.803C375.883 277.122 375.952 277.479 375.952 277.875C375.952 278.309 375.888 278.718 375.762 279.103C375.641 279.482 375.441 279.867 375.16 280.257C374.88 280.647 374.515 281.056 374.064 281.485C373.614 281.914 373.061 282.394 372.407 282.927L370.058 284.831H375.21L374.938 286.199ZM370.182 312.348C369.753 312.348 369.352 312.331 368.979 312.298C368.605 312.271 368.273 312.232 367.981 312.183L368.237 310.93C368.561 310.985 368.896 311.029 369.242 311.062C369.594 311.09 369.968 311.103 370.363 311.103C370.841 311.103 371.262 311.065 371.624 310.988C371.987 310.911 372.3 310.809 372.564 310.683C372.828 310.557 373.045 310.411 373.215 310.246C373.391 310.076 373.528 309.903 373.627 309.727C373.732 309.546 373.803 309.364 373.842 309.183C373.885 309.002 373.907 308.831 373.907 308.672C373.907 308.43 373.85 308.221 373.734 308.045C373.624 307.864 373.465 307.713 373.256 307.592C373.053 307.471 372.803 307.383 372.506 307.328C372.215 307.268 371.891 307.238 371.534 307.238H370.297L370.536 306.059H371.666C372.017 306.059 372.355 306.007 372.679 305.902C373.009 305.798 373.298 305.647 373.545 305.449C373.798 305.246 373.998 305.001 374.146 304.716C374.295 304.424 374.369 304.095 374.369 303.727C374.369 303.314 374.223 303.012 373.932 302.82C373.641 302.622 373.207 302.523 372.63 302.523C372.267 302.523 371.896 302.559 371.517 302.63C371.144 302.702 370.726 302.809 370.264 302.952V301.699C370.468 301.633 370.679 301.575 370.899 301.526C371.124 301.471 371.35 301.427 371.575 301.394C371.806 301.356 372.028 301.328 372.243 301.312C372.462 301.29 372.668 301.279 372.861 301.279C373.366 301.279 373.809 301.331 374.188 301.435C374.572 301.54 374.891 301.688 375.144 301.88C375.397 302.067 375.586 302.295 375.712 302.564C375.839 302.828 375.902 303.125 375.902 303.455C375.902 303.696 375.869 303.957 375.803 304.238C375.737 304.518 375.616 304.798 375.441 305.078C375.27 305.359 375.034 305.631 374.732 305.894C374.429 306.153 374.042 306.381 373.57 306.578C373.828 306.628 374.07 306.707 374.295 306.817C374.52 306.927 374.718 307.067 374.888 307.238C375.059 307.403 375.19 307.6 375.284 307.831C375.383 308.056 375.432 308.309 375.432 308.589C375.432 308.853 375.391 309.131 375.309 309.422C375.226 309.708 375.097 309.991 374.921 310.271C374.751 310.546 374.526 310.809 374.245 311.062C373.971 311.315 373.638 311.537 373.248 311.73C372.863 311.916 372.416 312.068 371.905 312.183C371.399 312.293 370.825 312.348 370.182 312.348ZM375.952 335.817H374.114L373.644 338.199H372.168L372.646 335.817H367.462L367.718 334.556L373.603 327.427H375.803L374.369 334.556H376.207L375.952 335.817ZM374.048 328.812L369.267 334.556H372.894L374.048 328.812ZM375.399 360.235C375.399 360.806 375.267 361.342 375.004 361.842C374.745 362.342 374.386 362.779 373.924 363.153C373.462 363.521 372.916 363.812 372.284 364.026C371.652 364.241 370.962 364.348 370.215 364.348C370.034 364.348 369.847 364.342 369.655 364.331C369.462 364.326 369.273 364.315 369.086 364.298C368.905 364.287 368.729 364.271 368.558 364.249C368.388 364.232 368.237 364.21 368.105 364.183L368.352 362.914C368.495 362.947 368.649 362.977 368.814 363.004C368.984 363.026 369.155 363.046 369.325 363.062C369.501 363.079 369.674 363.09 369.844 363.095C370.02 363.101 370.188 363.103 370.347 363.103C370.863 363.103 371.336 363.035 371.765 362.897C372.193 362.76 372.561 362.57 372.869 362.329C373.182 362.081 373.424 361.793 373.594 361.463C373.77 361.133 373.858 360.779 373.858 360.4C373.858 359.916 373.657 359.551 373.256 359.304C372.855 359.056 372.234 358.933 371.394 358.933H369.333L370.446 353.427H376.256L376.001 354.68H371.55L370.94 357.705H371.797C372.287 357.705 372.748 357.751 373.182 357.845C373.622 357.938 374.004 358.087 374.328 358.29C374.658 358.488 374.919 358.749 375.111 359.073C375.303 359.392 375.399 359.779 375.399 360.235ZM375.803 386.045C375.803 386.628 375.693 387.18 375.473 387.702C375.254 388.224 374.946 388.68 374.55 389.07C374.16 389.46 373.69 389.771 373.141 390.002C372.597 390.232 371.998 390.348 371.344 390.348C370.399 390.348 369.674 390.087 369.168 389.565C368.663 389.043 368.41 388.241 368.41 387.158C368.41 386.867 368.426 386.534 368.459 386.161C368.498 385.782 368.561 385.383 368.649 384.966C368.737 384.548 368.858 384.122 369.012 383.688C369.171 383.249 369.372 382.826 369.613 382.419C369.861 382.007 370.155 381.619 370.495 381.257C370.841 380.894 371.243 380.578 371.699 380.309C372.16 380.034 372.685 379.82 373.273 379.666C373.866 379.507 374.534 379.427 375.276 379.427H376.388L376.141 380.68H375.045C374.32 380.68 373.696 380.77 373.174 380.952C372.657 381.133 372.218 381.38 371.855 381.694C371.493 382.001 371.199 382.361 370.973 382.773C370.748 383.185 370.567 383.62 370.429 384.076L370.363 384.224C370.754 384.032 371.166 383.875 371.6 383.754C372.034 383.628 372.471 383.565 372.91 383.565C373.41 383.565 373.842 383.625 374.204 383.746C374.572 383.867 374.875 384.037 375.111 384.257C375.347 384.477 375.52 384.738 375.63 385.04C375.745 385.342 375.803 385.677 375.803 386.045ZM374.295 386.186C374.295 385.719 374.16 385.359 373.891 385.106C373.627 384.853 373.212 384.727 372.646 384.727C372.427 384.727 372.201 384.749 371.971 384.793C371.74 384.831 371.512 384.886 371.286 384.957C371.067 385.023 370.852 385.103 370.644 385.197C370.435 385.284 370.245 385.378 370.075 385.477C370.009 385.729 369.962 386.007 369.935 386.309C369.907 386.611 369.894 386.905 369.894 387.191C369.894 387.57 369.929 387.886 370.001 388.139C370.078 388.392 370.185 388.595 370.322 388.749C370.465 388.897 370.638 389.004 370.841 389.07C371.05 389.136 371.286 389.169 371.55 389.169C371.973 389.169 372.355 389.084 372.696 388.914C373.037 388.743 373.325 388.518 373.561 388.238C373.798 387.958 373.979 387.639 374.105 387.282C374.232 386.925 374.295 386.559 374.295 386.186ZM376.776 406.762L370.446 416.199H368.731L375.21 406.762H369.49L369.753 405.427H377.048L376.776 406.762Z" fill="#5D6182"/>
<path d="M406.54 260.894L405.243 262.203L397.242 255.524L405.243 248.845L406.54 250.167L400.052 255.501L406.54 260.894ZM416.946 245.191L416.624 257.453H414.791L414.434 245.191H416.946ZM415.696 259.084C415.91 259.084 416.112 259.128 416.303 259.215C416.493 259.294 416.656 259.405 416.791 259.548C416.934 259.691 417.045 259.862 417.124 260.06C417.211 260.251 417.255 260.453 417.255 260.667C417.255 260.882 417.211 261.084 417.124 261.275C417.045 261.465 416.934 261.632 416.791 261.775C416.656 261.91 416.493 262.017 416.303 262.096C416.112 262.183 415.91 262.227 415.696 262.227C415.473 262.227 415.267 262.183 415.076 262.096C414.886 262.017 414.719 261.91 414.576 261.775C414.434 261.632 414.318 261.465 414.231 261.275C414.152 261.084 414.112 260.882 414.112 260.667C414.112 260.453 414.152 260.251 414.231 260.06C414.318 259.862 414.434 259.691 414.576 259.548C414.719 259.405 414.886 259.294 415.076 259.215C415.267 259.128 415.473 259.084 415.696 259.084Z" fill="white" fill-opacity="0.36"/>
<path d="M406.54 288.089L405.243 289.398L397.242 282.72L405.243 276.041L406.54 277.362L400.052 282.696L406.54 288.089Z" fill="#65F0AD"/>
<path d="M418.732 336.853L417.434 338.163L409.434 331.484L417.434 324.805L418.732 326.126L412.243 331.46L418.732 336.853Z" fill="#65F0AD"/>
<path d="M418.929 362.881L417.631 364.19L409.631 357.512L417.631 350.833L418.929 352.154L412.441 357.488L418.929 362.881Z" fill="#65F0AD"/>
<path d="M418.929 389.881L417.631 391.19L409.631 384.512L417.631 377.833L418.929 379.154L412.441 384.488L418.929 389.881Z" fill="#65F0AD"/>
<path d="M418.732 416.563L417.434 417.873L409.434 411.194L417.434 404.515L418.732 405.836L412.243 411.17L418.732 416.563Z" fill="#65F0AD"/>
<path d="M497.46 281.517H487.221V279.767H497.46V281.517ZM497.46 285.66H487.221V283.91H497.46V285.66ZM505.972 278.112C506.313 278.128 506.65 278.096 506.984 278.017C507.317 277.938 507.611 277.819 507.865 277.66C508.119 277.501 508.325 277.303 508.484 277.065C508.643 276.819 508.722 276.541 508.722 276.231C508.722 275.922 508.67 275.676 508.567 275.493C508.464 275.303 508.349 275.124 508.222 274.957C508.095 274.791 507.98 274.612 507.877 274.422C507.774 274.231 507.722 273.981 507.722 273.672C507.722 273.513 507.75 273.35 507.805 273.184C507.869 273.017 507.96 272.866 508.079 272.731C508.206 272.588 508.365 272.473 508.555 272.386C508.746 272.291 508.972 272.243 509.234 272.243C509.496 272.243 509.746 272.299 509.984 272.41C510.222 272.521 510.432 272.687 510.615 272.91C510.797 273.124 510.94 273.402 511.044 273.743C511.155 274.076 511.21 274.469 511.21 274.922C511.21 275.541 511.095 276.136 510.865 276.707C510.643 277.271 510.309 277.771 509.865 278.208C509.428 278.644 508.885 278.993 508.234 279.255C507.583 279.517 506.829 279.648 505.972 279.648V278.112ZM499.722 278.112C500.071 278.128 500.408 278.096 500.734 278.017C501.067 277.938 501.361 277.819 501.615 277.66C501.876 277.501 502.087 277.303 502.246 277.065C502.404 276.819 502.484 276.541 502.484 276.231C502.484 275.922 502.432 275.676 502.329 275.493C502.226 275.303 502.111 275.124 501.984 274.957C501.857 274.791 501.742 274.612 501.638 274.422C501.535 274.231 501.484 273.981 501.484 273.672C501.484 273.513 501.511 273.35 501.567 273.184C501.63 273.017 501.722 272.866 501.841 272.731C501.968 272.588 502.126 272.473 502.317 272.386C502.507 272.291 502.734 272.243 502.996 272.243C503.257 272.243 503.507 272.299 503.746 272.41C503.984 272.521 504.194 272.687 504.377 272.91C504.559 273.124 504.702 273.402 504.805 273.743C504.916 274.076 504.972 274.469 504.972 274.922C504.972 275.541 504.857 276.136 504.627 276.707C504.404 277.271 504.071 277.771 503.627 278.208C503.19 278.644 502.642 278.993 501.984 279.255C501.333 279.517 500.579 279.648 499.722 279.648V278.112Z" fill="#65F0AD"/>
<path d="M511.526 330.281H501.288V328.531H511.526V330.281ZM511.526 334.424H501.288V332.674H511.526V334.424ZM520.038 326.876C520.38 326.892 520.717 326.861 521.05 326.781C521.384 326.702 521.677 326.583 521.931 326.424C522.185 326.265 522.392 326.067 522.55 325.829C522.709 325.583 522.788 325.305 522.788 324.995C522.788 324.686 522.737 324.44 522.634 324.257C522.53 324.067 522.415 323.888 522.288 323.722C522.161 323.555 522.046 323.376 521.943 323.186C521.84 322.995 521.788 322.745 521.788 322.436C521.788 322.277 521.816 322.114 521.872 321.948C521.935 321.781 522.026 321.63 522.146 321.495C522.273 321.352 522.431 321.237 522.622 321.15C522.812 321.055 523.038 321.007 523.3 321.007C523.562 321.007 523.812 321.063 524.05 321.174C524.288 321.285 524.499 321.452 524.681 321.674C524.864 321.888 525.007 322.166 525.11 322.507C525.221 322.841 525.277 323.233 525.277 323.686C525.277 324.305 525.162 324.9 524.931 325.472C524.709 326.035 524.376 326.535 523.931 326.972C523.495 327.408 522.951 327.757 522.3 328.019C521.649 328.281 520.895 328.412 520.038 328.412V326.876ZM513.788 326.876C514.137 326.892 514.475 326.861 514.8 326.781C515.133 326.702 515.427 326.583 515.681 326.424C515.943 326.265 516.153 326.067 516.312 325.829C516.471 325.583 516.55 325.305 516.55 324.995C516.55 324.686 516.498 324.44 516.395 324.257C516.292 324.067 516.177 323.888 516.05 323.722C515.923 323.555 515.808 323.376 515.705 323.186C515.602 322.995 515.55 322.745 515.55 322.436C515.55 322.277 515.578 322.114 515.633 321.948C515.697 321.781 515.788 321.63 515.907 321.495C516.034 321.352 516.193 321.237 516.383 321.15C516.574 321.055 516.8 321.007 517.062 321.007C517.324 321.007 517.574 321.063 517.812 321.174C518.05 321.285 518.26 321.452 518.443 321.674C518.626 321.888 518.768 322.166 518.872 322.507C518.983 322.841 519.038 323.233 519.038 323.686C519.038 324.305 518.923 324.9 518.693 325.472C518.471 326.035 518.137 326.535 517.693 326.972C517.256 327.408 516.709 327.757 516.05 328.019C515.399 328.281 514.645 328.412 513.788 328.412V326.876Z" fill="#65F0AD"/>
<path d="M571.543 357.309H561.304V355.559H571.543V357.309ZM571.543 361.452H561.304V359.702H571.543V361.452ZM580.055 353.904C580.396 353.92 580.733 353.888 581.067 353.809C581.4 353.73 581.694 353.611 581.948 353.452C582.202 353.293 582.408 353.095 582.567 352.857C582.726 352.611 582.805 352.333 582.805 352.023C582.805 351.714 582.753 351.468 582.65 351.285C582.547 351.095 582.432 350.916 582.305 350.749C582.178 350.583 582.063 350.404 581.96 350.214C581.857 350.023 581.805 349.773 581.805 349.464C581.805 349.305 581.833 349.142 581.888 348.976C581.952 348.809 582.043 348.658 582.162 348.523C582.289 348.38 582.448 348.265 582.638 348.178C582.829 348.083 583.055 348.035 583.317 348.035C583.579 348.035 583.829 348.091 584.067 348.202C584.305 348.313 584.515 348.479 584.698 348.702C584.88 348.916 585.023 349.194 585.127 349.535C585.238 349.868 585.293 350.261 585.293 350.714C585.293 351.333 585.178 351.928 584.948 352.499C584.726 353.063 584.392 353.563 583.948 354C583.511 354.436 582.968 354.785 582.317 355.047C581.666 355.309 580.912 355.44 580.055 355.44V353.904ZM573.805 353.904C574.154 353.92 574.491 353.888 574.817 353.809C575.15 353.73 575.444 353.611 575.698 353.452C575.959 353.293 576.17 353.095 576.329 352.857C576.487 352.611 576.567 352.333 576.567 352.023C576.567 351.714 576.515 351.468 576.412 351.285C576.309 351.095 576.194 350.916 576.067 350.749C575.94 350.583 575.825 350.404 575.721 350.214C575.618 350.023 575.567 349.773 575.567 349.464C575.567 349.305 575.594 349.142 575.65 348.976C575.713 348.809 575.805 348.658 575.924 348.523C576.051 348.38 576.209 348.265 576.4 348.178C576.59 348.083 576.817 348.035 577.079 348.035C577.34 348.035 577.59 348.091 577.829 348.202C578.067 348.313 578.277 348.479 578.46 348.702C578.642 348.916 578.785 349.194 578.888 349.535C578.999 349.868 579.055 350.261 579.055 350.714C579.055 351.333 578.94 351.928 578.71 352.499C578.487 353.063 578.154 353.563 577.71 354C577.273 354.436 576.725 354.785 576.067 355.047C575.416 355.309 574.662 355.44 573.805 355.44V353.904Z" fill="#65F0AD"/>
<path d="M608.313 383.309H598.075V381.559H608.313V383.309ZM608.313 387.452H598.075V385.702H608.313V387.452ZM616.825 379.904C617.167 379.92 617.504 379.888 617.837 379.809C618.171 379.73 618.464 379.611 618.718 379.452C618.972 379.293 619.179 379.095 619.337 378.857C619.496 378.611 619.576 378.333 619.576 378.023C619.576 377.714 619.524 377.468 619.421 377.285C619.318 377.095 619.202 376.916 619.075 376.749C618.949 376.583 618.833 376.404 618.73 376.214C618.627 376.023 618.575 375.773 618.575 375.464C618.575 375.305 618.603 375.142 618.659 374.976C618.722 374.809 618.814 374.658 618.933 374.523C619.06 374.38 619.218 374.265 619.409 374.178C619.599 374.083 619.826 374.035 620.087 374.035C620.349 374.035 620.599 374.091 620.837 374.202C621.076 374.313 621.286 374.479 621.468 374.702C621.651 374.916 621.794 375.194 621.897 375.535C622.008 375.868 622.064 376.261 622.064 376.714C622.064 377.333 621.949 377.928 621.718 378.499C621.496 379.063 621.163 379.563 620.718 380C620.282 380.436 619.738 380.785 619.087 381.047C618.437 381.309 617.683 381.44 616.825 381.44V379.904ZM610.575 379.904C610.924 379.92 611.262 379.888 611.587 379.809C611.92 379.73 612.214 379.611 612.468 379.452C612.73 379.293 612.94 379.095 613.099 378.857C613.258 378.611 613.337 378.333 613.337 378.023C613.337 377.714 613.286 377.468 613.182 377.285C613.079 377.095 612.964 376.916 612.837 376.749C612.71 376.583 612.595 376.404 612.492 376.214C612.389 376.023 612.337 375.773 612.337 375.464C612.337 375.305 612.365 375.142 612.42 374.976C612.484 374.809 612.575 374.658 612.694 374.523C612.821 374.38 612.98 374.265 613.17 374.178C613.361 374.083 613.587 374.035 613.849 374.035C614.111 374.035 614.361 374.091 614.599 374.202C614.837 374.313 615.048 374.479 615.23 374.702C615.413 374.916 615.556 375.194 615.659 375.535C615.77 375.868 615.825 376.261 615.825 376.714C615.825 377.333 615.71 377.928 615.48 378.499C615.258 379.063 614.925 379.563 614.48 380C614.044 380.436 613.496 380.785 612.837 381.047C612.186 381.309 611.432 381.44 610.575 381.44V379.904Z" fill="#65F0AD"/>
<path d="M608.116 409.991H597.877V408.241H608.116V409.991ZM608.116 414.134H597.877V412.384H608.116V414.134ZM616.628 406.586C616.969 406.602 617.307 406.571 617.64 406.491C617.973 406.412 618.267 406.293 618.521 406.134C618.775 405.975 618.981 405.777 619.14 405.539C619.299 405.293 619.378 405.015 619.378 404.705C619.378 404.396 619.327 404.15 619.223 403.967C619.12 403.777 619.005 403.598 618.878 403.432C618.751 403.265 618.636 403.086 618.533 402.896C618.43 402.705 618.378 402.455 618.378 402.146C618.378 401.987 618.406 401.824 618.462 401.658C618.525 401.491 618.616 401.34 618.735 401.205C618.862 401.062 619.021 400.947 619.212 400.86C619.402 400.765 619.628 400.717 619.89 400.717C620.152 400.717 620.402 400.773 620.64 400.884C620.878 400.995 621.089 401.162 621.271 401.384C621.454 401.598 621.597 401.876 621.7 402.217C621.811 402.551 621.866 402.943 621.866 403.396C621.866 404.015 621.751 404.61 621.521 405.182C621.299 405.745 620.966 406.245 620.521 406.682C620.085 407.118 619.541 407.467 618.89 407.729C618.239 407.991 617.485 408.122 616.628 408.122V406.586ZM610.378 406.586C610.727 406.602 611.064 406.571 611.39 406.491C611.723 406.412 612.017 406.293 612.271 406.134C612.533 405.975 612.743 405.777 612.902 405.539C613.061 405.293 613.14 405.015 613.14 404.705C613.14 404.396 613.088 404.15 612.985 403.967C612.882 403.777 612.767 403.598 612.64 403.432C612.513 403.265 612.398 403.086 612.295 402.896C612.191 402.705 612.14 402.455 612.14 402.146C612.14 401.987 612.168 401.824 612.223 401.658C612.287 401.491 612.378 401.34 612.497 401.205C612.624 401.062 612.783 400.947 612.973 400.86C613.164 400.765 613.39 400.717 613.652 400.717C613.914 400.717 614.164 400.773 614.402 400.884C614.64 400.995 614.85 401.162 615.033 401.384C615.215 401.598 615.358 401.876 615.461 402.217C615.573 402.551 615.628 402.943 615.628 403.396C615.628 404.015 615.513 404.61 615.283 405.182C615.061 405.745 614.727 406.245 614.283 406.682C613.846 407.118 613.299 407.467 612.64 407.729C611.989 407.991 611.235 408.122 610.378 408.122V406.586Z" fill="#65F0AD"/>
<path d="M492.567 302.494C492.908 302.51 493.245 302.478 493.579 302.399C493.912 302.32 494.206 302.2 494.459 302.042C494.713 301.883 494.92 301.685 495.079 301.446C495.237 301.2 495.317 300.923 495.317 300.613C495.317 300.304 495.265 300.058 495.162 299.875C495.059 299.684 494.944 299.506 494.817 299.339C494.69 299.173 494.575 298.994 494.471 298.804C494.368 298.613 494.317 298.363 494.317 298.053C494.317 297.895 494.344 297.732 494.4 297.565C494.463 297.399 494.555 297.248 494.674 297.113C494.801 296.97 494.96 296.855 495.15 296.768C495.34 296.672 495.567 296.625 495.829 296.625C496.091 296.625 496.341 296.68 496.579 296.792C496.817 296.903 497.027 297.069 497.21 297.292C497.392 297.506 497.535 297.784 497.638 298.125C497.749 298.458 497.805 298.851 497.805 299.304C497.805 299.923 497.69 300.518 497.46 301.089C497.237 301.653 496.904 302.153 496.46 302.589C496.023 303.026 495.479 303.375 494.829 303.637C494.178 303.899 493.424 304.03 492.567 304.03V302.494ZM486.316 302.494C486.666 302.51 487.003 302.478 487.328 302.399C487.662 302.32 487.955 302.2 488.209 302.042C488.471 301.883 488.681 301.685 488.84 301.446C488.999 301.2 489.078 300.923 489.078 300.613C489.078 300.304 489.027 300.058 488.924 299.875C488.82 299.684 488.705 299.506 488.578 299.339C488.451 299.173 488.336 298.994 488.233 298.804C488.13 298.613 488.078 298.363 488.078 298.053C488.078 297.895 488.106 297.732 488.162 297.565C488.225 297.399 488.316 297.248 488.435 297.113C488.562 296.97 488.721 296.855 488.912 296.768C489.102 296.672 489.328 296.625 489.59 296.625C489.852 296.625 490.102 296.68 490.34 296.792C490.578 296.903 490.789 297.069 490.971 297.292C491.154 297.506 491.297 297.784 491.4 298.125C491.511 298.458 491.567 298.851 491.567 299.304C491.567 299.923 491.451 300.518 491.221 301.089C490.999 301.653 490.666 302.153 490.221 302.589C489.785 303.026 489.237 303.375 488.578 303.637C487.927 303.899 487.173 304.03 486.316 304.03V302.494Z" fill="#65F0AD"/>
<path d="M658.551 353.904C658.892 353.92 659.23 353.888 659.563 353.809C659.896 353.73 660.19 353.611 660.444 353.452C660.698 353.293 660.904 353.095 661.063 352.857C661.222 352.611 661.301 352.333 661.301 352.023C661.301 351.714 661.249 351.468 661.146 351.285C661.043 351.095 660.928 350.916 660.801 350.749C660.674 350.583 660.559 350.404 660.456 350.214C660.353 350.023 660.301 349.773 660.301 349.464C660.301 349.305 660.329 349.142 660.384 348.976C660.448 348.809 660.539 348.658 660.658 348.523C660.785 348.38 660.944 348.265 661.134 348.178C661.325 348.083 661.551 348.035 661.813 348.035C662.075 348.035 662.325 348.091 662.563 348.202C662.801 348.313 663.011 348.479 663.194 348.702C663.377 348.916 663.519 349.194 663.623 349.535C663.734 349.868 663.789 350.261 663.789 350.714C663.789 351.333 663.674 351.928 663.444 352.499C663.222 353.063 662.888 353.563 662.444 354C662.007 354.436 661.464 354.785 660.813 355.047C660.162 355.309 659.408 355.44 658.551 355.44V353.904ZM652.301 353.904C652.65 353.92 652.987 353.888 653.313 353.809C653.646 353.73 653.94 353.611 654.194 353.452C654.456 353.293 654.666 353.095 654.825 352.857C654.983 352.611 655.063 352.333 655.063 352.023C655.063 351.714 655.011 351.468 654.908 351.285C654.805 351.095 654.69 350.916 654.563 350.749C654.436 350.583 654.321 350.404 654.217 350.214C654.114 350.023 654.063 349.773 654.063 349.464C654.063 349.305 654.09 349.142 654.146 348.976C654.209 348.809 654.301 348.658 654.42 348.523C654.547 348.38 654.706 348.265 654.896 348.178C655.087 348.083 655.313 348.035 655.575 348.035C655.837 348.035 656.087 348.091 656.325 348.202C656.563 348.313 656.773 348.479 656.956 348.702C657.138 348.916 657.281 349.194 657.384 349.535C657.495 349.868 657.551 350.261 657.551 350.714C657.551 351.333 657.436 351.928 657.206 352.499C656.983 353.063 656.65 353.563 656.206 354C655.769 354.436 655.221 354.785 654.563 355.047C653.912 355.309 653.158 355.44 652.301 355.44V353.904Z" fill="#65F0AD"/>
<path d="M541.578 250.167L542.864 248.845L550.864 255.524L542.864 262.203L541.578 260.894L548.066 255.548L541.578 250.167ZM577.722 254.322H567.484V252.572H577.722V254.322ZM577.722 258.465H567.484V256.715H577.722V258.465ZM591.128 254.322H580.889V252.572H591.128V254.322ZM591.128 258.465H580.889V256.715H591.128V258.465ZM599.759 244.214H601.485L601.176 246.536C601.588 246.576 602.001 246.627 602.414 246.691C602.835 246.754 603.223 246.83 603.581 246.917V248.75C603.144 248.639 602.704 248.544 602.259 248.465C601.815 248.385 601.378 248.326 600.95 248.286L600.271 253.381C600.803 253.588 601.331 253.814 601.854 254.06C602.378 254.298 602.846 254.584 603.259 254.917C603.68 255.243 604.017 255.631 604.271 256.084C604.533 256.536 604.664 257.076 604.664 257.703C604.664 258.37 604.529 258.961 604.259 259.477C603.989 259.993 603.612 260.429 603.128 260.786C602.644 261.144 602.061 261.425 601.378 261.632C600.696 261.83 599.946 261.949 599.128 261.989L598.735 264.822H596.997L597.39 261.989C596.747 261.941 596.132 261.874 595.545 261.786C594.965 261.691 594.461 261.588 594.033 261.477V259.501C594.533 259.675 595.076 259.818 595.664 259.929C596.259 260.04 596.918 260.116 597.64 260.155L598.342 254.798C597.826 254.6 597.318 254.385 596.818 254.155C596.318 253.925 595.87 253.651 595.473 253.334C595.084 253.008 594.767 252.627 594.521 252.191C594.275 251.754 594.152 251.234 594.152 250.631C594.152 250.139 594.255 249.655 594.461 249.179C594.668 248.695 594.989 248.262 595.426 247.881C595.862 247.492 596.414 247.175 597.08 246.929C597.747 246.675 598.541 246.524 599.461 246.476L599.759 244.214ZM599.223 248.262C598.231 248.349 597.505 248.584 597.045 248.965C596.592 249.338 596.366 249.818 596.366 250.405C596.366 250.953 596.553 251.405 596.926 251.762C597.307 252.111 597.87 252.433 598.616 252.727L599.223 248.262ZM599.366 260.155C600.438 260.076 601.215 259.838 601.7 259.441C602.192 259.044 602.438 258.505 602.438 257.822C602.438 257.536 602.386 257.282 602.283 257.06C602.18 256.83 602.025 256.624 601.819 256.441C601.612 256.258 601.354 256.088 601.045 255.929C600.743 255.77 600.386 255.612 599.973 255.453L599.366 260.155ZM618.474 254.239C618.474 255.429 618.355 256.516 618.117 257.501C617.879 258.477 617.518 259.318 617.034 260.025C616.549 260.723 615.946 261.267 615.224 261.656C614.51 262.037 613.668 262.227 612.7 262.227C611.867 262.227 611.109 262.072 610.426 261.763C609.744 261.445 609.16 260.961 608.676 260.31C608.192 259.659 607.819 258.83 607.557 257.822C607.295 256.814 607.164 255.62 607.164 254.239C607.164 253.048 607.283 251.961 607.521 250.977C607.767 249.992 608.128 249.151 608.605 248.453C609.089 247.746 609.692 247.203 610.414 246.822C611.137 246.433 611.978 246.238 612.938 246.238C613.772 246.238 614.53 246.397 615.212 246.714C615.895 247.024 616.478 247.508 616.962 248.167C617.446 248.818 617.819 249.647 618.081 250.655C618.343 251.663 618.474 252.858 618.474 254.239ZM616.379 254.31C616.379 254.04 616.367 253.774 616.343 253.512C616.327 253.242 616.307 252.981 616.284 252.727L609.7 257.62C609.819 258.032 609.97 258.413 610.152 258.763C610.335 259.112 610.553 259.413 610.807 259.667C611.069 259.913 611.363 260.108 611.688 260.251C612.021 260.386 612.398 260.453 612.819 260.453C613.359 260.453 613.847 260.322 614.283 260.06C614.728 259.798 615.105 259.409 615.414 258.894C615.724 258.378 615.962 257.739 616.129 256.977C616.295 256.207 616.379 255.318 616.379 254.31ZM609.259 254.167C609.259 254.413 609.259 254.659 609.259 254.905C609.267 255.151 609.283 255.389 609.307 255.62L615.891 250.75C615.772 250.346 615.621 249.976 615.438 249.643C615.256 249.31 615.037 249.024 614.783 248.786C614.53 248.54 614.24 248.349 613.914 248.214C613.589 248.08 613.224 248.012 612.819 248.012C612.279 248.012 611.787 248.143 611.343 248.405C610.906 248.667 610.533 249.06 610.224 249.584C609.914 250.099 609.676 250.742 609.509 251.512C609.343 252.274 609.259 253.159 609.259 254.167Z" fill="white" fill-opacity="0.36"/>
<rect x="427.496" y="252.577" width="66.5815" height="6.56438" rx="3.28219" fill="white" fill-opacity="0.36"/>
<rect x="414.367" y="279.772" width="66.5815" height="6.5" rx="3.25" fill="#65F0AD"/>
<rect x="426.558" y="328.536" width="66.5815" height="6.5" rx="3.25" fill="#65F0AD"/>
<rect x="427" y="382" width="160" height="6.5" rx="3.25" fill="#65F0AD"/>
<rect x="426.558" y="408.247" width="41.2618" height="6.5" rx="3.25" fill="#65F0AD"/>
<rect x="479.073" y="408.247" width="107.843" height="6.5" rx="3.25" fill="#65F0AD"/>
<rect x="529.713" y="328.536" width="66.5815" height="6.5" rx="3.25" fill="#65F0AD"/>
<rect x="603.796" y="328.536" width="55.3283" height="6.5" rx="3.25" fill="#65F0AD"/>
<rect x="627.438" y="382" width="31.8841" height="6.5" rx="3.25" fill="#65F0AD"/>
<rect x="627.24" y="408.247" width="31.8841" height="6.5" rx="3.25" fill="#65F0AD"/>
<rect x="591.605" y="356" width="55.3283" height="6.5" rx="3.25" fill="#65F0AD"/>
<rect x="395.611" y="304.154" width="85.3369" height="6.5" rx="3.25" fill="#65F0AD"/>
<rect x="514" y="280" width="145" height="6.5" rx="3.25" fill="#65F0AD"/>
<rect x="514" y="304" width="46" height="6.5" rx="3.25" fill="#65F0AD"/>
<rect x="569" y="304" width="35" height="7" rx="3.5" fill="#65F0AD"/>
<rect x="613" y="304" width="46" height="6.5" rx="3.25" fill="#65F0AD"/>
<rect x="427" y="356" width="128" height="6.5" rx="3.25" fill="#65F0AD"/>
<rect x="500.642" y="252.577" width="31.8841" height="6.56438" rx="3.28219" fill="white" fill-opacity="0.36"/>
<g filter="url(#filter0_d)">
<path d="M380 60C380 48.9543 388.954 40 400 40H662C673.046 40 682 48.9543 682 60V93C682 104.046 673.046 113 662 113H380V60Z" fill="#FFE4E7"/>
</g>
<path d="M449.6 71.2C452.7 71.2 454.6 69.3 454.6 67.1C454.6 61.9 447.2 63.8 447.2 60.7C447.2 59.7 448.1 58.8 449.8 58.8C451.7 58.8 452.7 60.1 452.7 60.1L454.2 58.6C454.2 58.6 452.7 56.8 449.8 56.8C446.8 56.8 445 58.6 445 60.7C445 65.9 452.4 64 452.4 67.1C452.4 68.2 451.4 69.2 449.6 69.2C447.2 69.2 446.1 67.6 446.1 67.6L444.6 69.1C444.6 69.1 446.2 71.2 449.6 71.2ZM461.206 71.2C463.906 71.2 465.306 69.2 465.306 69.2L463.906 67.9C463.906 67.9 462.906 69.3 461.206 69.3C459.506 69.3 458.206 68 458.206 66.2C458.206 64.4 459.506 63.1 461.206 63.1C462.906 63.1 463.806 64.4 463.806 64.4L465.206 63.1C465.206 63.1 463.906 61.2 461.206 61.2C458.406 61.2 456.206 63.4 456.206 66.2C456.206 69 458.406 71.2 461.206 71.2ZM467.197 71H469.197V66.1C469.197 64.4 470.397 63.2 471.797 63.2C472.197 63.2 472.597 63.3 472.597 63.3V61.2H472.097C470.197 61.2 469.197 62.7 469.197 62.7V61.4H467.197V71ZM478.609 71.2C481.409 71.2 482.709 69.4 482.709 69.4L481.509 68C481.509 68 480.409 69.3 478.709 69.3C477.109 69.3 475.909 68.2 475.709 66.9H483.109C483.109 66.9 483.209 66.5 483.209 65.9C483.209 63.2 481.209 61.2 478.509 61.2C475.809 61.2 473.609 63.4 473.609 66.2C473.609 69 475.809 71.2 478.609 71.2ZM475.709 65.2C476.109 63.9 477.009 63 478.509 63C479.909 63 480.809 63.9 481.109 65.2H475.709ZM489.8 71.2C492.6 71.2 493.9 69.4 493.9 69.4L492.7 68C492.7 68 491.6 69.3 489.9 69.3C488.3 69.3 487.1 68.2 486.9 66.9H494.3C494.3 66.9 494.4 66.5 494.4 65.9C494.4 63.2 492.4 61.2 489.7 61.2C487 61.2 484.8 63.4 484.8 66.2C484.8 69 487 71.2 489.8 71.2ZM486.9 65.2C487.3 63.9 488.2 63 489.7 63C491.1 63 492 63.9 492.3 65.2H486.9ZM496.591 71H498.591V65.8C498.591 64.2 499.691 63.1 501.191 63.1C502.491 63.1 503.391 64 503.391 65.4V71H505.391V65.4C505.391 62.8 503.791 61.2 501.591 61.2C499.591 61.2 498.591 62.8 498.591 62.8V61.4H496.591V71ZM512.392 71H514.392V66.1C514.392 64.4 515.592 63.2 516.992 63.2C517.392 63.2 517.792 63.3 517.792 63.3V61.2H517.292C515.392 61.2 514.392 62.7 514.392 62.7V61.4H512.392V71ZM523.804 71.2C526.604 71.2 527.904 69.4 527.904 69.4L526.704 68C526.704 68 525.604 69.3 523.904 69.3C522.304 69.3 521.104 68.2 520.904 66.9H528.304C528.304 66.9 528.404 66.5 528.404 65.9C528.404 63.2 526.404 61.2 523.704 61.2C521.004 61.2 518.804 63.4 518.804 66.2C518.804 69 521.004 71.2 523.804 71.2ZM520.904 65.2C521.304 63.9 522.204 63 523.704 63C525.104 63 526.004 63.9 526.304 65.2H520.904ZM533.095 71.2C535.195 71.2 536.195 69.6 536.195 69.6V71H538.195V64.9C538.195 62.8 536.595 61.2 534.195 61.2C531.695 61.2 530.395 63 530.395 63L531.695 64.3C531.695 64.3 532.695 63 534.195 63C535.395 63 536.195 63.8 536.195 64.8L532.695 65.4C530.995 65.7 529.895 66.8 529.895 68.4C529.895 69.9 531.195 71.2 533.095 71.2ZM533.495 69.5C532.495 69.5 531.895 68.9 531.895 68.2C531.895 67.6 532.395 67.08 533.395 66.9L536.195 66.4V66.7C536.195 68.3 534.995 69.5 533.495 69.5ZM544.886 71.2C547.186 71.2 548.186 69.6 548.186 69.6V71H550.186V57H548.186V62.8C548.186 62.8 547.186 61.2 544.886 61.2C542.486 61.2 540.386 63.3 540.386 66.2C540.386 69.1 542.486 71.2 544.886 71.2ZM545.286 69.3C543.686 69.3 542.386 68 542.386 66.2C542.386 64.4 543.686 63.1 545.286 63.1C546.886 63.1 548.186 64.4 548.186 66.2C548.186 68 546.886 69.3 545.286 69.3ZM557.495 71.2C560.295 71.2 561.595 69.4 561.595 69.4L560.395 68C560.395 68 559.295 69.3 557.595 69.3C555.995 69.3 554.795 68.2 554.595 66.9H561.995C561.995 66.9 562.095 66.5 562.095 65.9C562.095 63.2 560.095 61.2 557.395 61.2C554.695 61.2 552.495 63.4 552.495 66.2C552.495 69 554.695 71.2 557.495 71.2ZM554.595 65.2C554.995 63.9 555.895 63 557.395 63C558.795 63 559.695 63.9 559.995 65.2H554.595ZM564.287 71H566.287V66.1C566.287 64.4 567.487 63.2 568.887 63.2C569.287 63.2 569.687 63.3 569.687 63.3V61.2H569.187C567.287 61.2 566.287 62.7 566.287 62.7V61.4H564.287V71ZM574.394 71.2C576.694 71.2 578.094 69.8 578.094 68.2C578.094 64.8 572.994 65.6 572.994 64C572.994 63.5 573.494 63 574.494 63C575.794 63 576.594 63.8 576.594 63.8L577.894 62.5C577.894 62.5 576.794 61.2 574.494 61.2C572.294 61.2 570.994 62.5 570.994 64C570.994 67.4 576.094 66.6 576.094 68.2C576.094 68.8 575.494 69.4 574.394 69.4C572.894 69.4 571.894 68.1 571.894 68.1L570.594 69.4C570.594 69.4 571.894 71.2 574.394 71.2ZM586.194 71H588.094L590.194 64.6L592.294 71H594.194L597.594 61.4H595.394L593.194 67.9L591.094 61.4H589.294L587.194 67.9L584.994 61.4H582.794L586.194 71ZM603.589 71.2C606.389 71.2 608.589 69 608.589 66.2C608.589 63.4 606.389 61.2 603.589 61.2C600.789 61.2 598.589 63.4 598.589 66.2C598.589 69 600.789 71.2 603.589 71.2ZM603.589 69.3C601.889 69.3 600.589 68 600.589 66.2C600.589 64.4 601.889 63.1 603.589 63.1C605.289 63.1 606.589 64.4 606.589 66.2C606.589 68 605.289 69.3 603.589 69.3ZM614.591 71.2C616.591 71.2 617.591 69.6 617.591 69.6V71H619.591V61.4H617.591V66.6C617.591 68.2 616.491 69.3 614.991 69.3C613.691 69.3 612.791 68.4 612.791 67V61.4H610.791V67C610.791 69.6 612.391 71.2 614.591 71.2ZM622.492 71H624.492V57H622.492V71ZM631.292 71.2C633.592 71.2 634.592 69.6 634.592 69.6V71H636.592V57H634.592V62.8C634.592 62.8 633.592 61.2 631.292 61.2C628.892 61.2 626.792 63.3 626.792 66.2C626.792 69.1 628.892 71.2 631.292 71.2ZM631.692 69.3C630.092 69.3 628.792 68 628.792 66.2C628.792 64.4 630.092 63.1 631.692 63.1C633.292 63.1 634.592 64.4 634.592 66.2C634.592 68 633.292 69.3 631.692 69.3ZM445.4 97H447.4V92.1C447.4 90.4 448.6 89.2 450 89.2C450.4 89.2 450.8 89.3 450.8 89.3V87.2H450.3C448.4 87.2 447.4 88.7 447.4 88.7V87.4H445.4V97ZM456.812 97.2C459.612 97.2 460.912 95.4 460.912 95.4L459.712 94C459.712 94 458.612 95.3 456.912 95.3C455.312 95.3 454.112 94.2 453.912 92.9H461.312C461.312 92.9 461.412 92.5 461.412 91.9C461.412 89.2 459.412 87.2 456.712 87.2C454.012 87.2 451.812 89.4 451.812 92.2C451.812 95 454.012 97.2 456.812 97.2ZM453.912 91.2C454.312 89.9 455.212 89 456.712 89C458.112 89 459.012 89.9 459.312 91.2H453.912ZM466.103 97.2C468.203 97.2 469.203 95.6 469.203 95.6V97H471.203V90.9C471.203 88.8 469.603 87.2 467.203 87.2C464.703 87.2 463.403 89 463.403 89L464.703 90.3C464.703 90.3 465.703 89 467.203 89C468.403 89 469.203 89.8 469.203 90.8L465.703 91.4C464.003 91.7 462.903 92.8 462.903 94.4C462.903 95.9 464.203 97.2 466.103 97.2ZM466.503 95.5C465.503 95.5 464.903 94.9 464.903 94.2C464.903 93.6 465.403 93.08 466.403 92.9L469.203 92.4V92.7C469.203 94.3 468.003 95.5 466.503 95.5ZM477.894 97.2C480.194 97.2 481.194 95.6 481.194 95.6V97H483.194V83H481.194V88.8C481.194 88.8 480.194 87.2 477.894 87.2C475.494 87.2 473.394 89.3 473.394 92.2C473.394 95.1 475.494 97.2 477.894 97.2ZM478.294 95.3C476.694 95.3 475.394 94 475.394 92.2C475.394 90.4 476.694 89.1 478.294 89.1C479.894 89.1 481.194 90.4 481.194 92.2C481.194 94 479.894 95.3 478.294 95.3ZM490.402 97H492.402V87.4H490.402V97ZM491.402 85.6C492.002 85.6 492.602 85.1 492.602 84.4C492.602 83.7 492.002 83.2 491.402 83.2C490.802 83.2 490.202 83.7 490.202 84.4C490.202 85.1 490.802 85.6 491.402 85.6ZM499.302 97.2C500.202 97.2 500.802 96.9 500.802 96.9V95C500.802 95 500.302 95.3 499.702 95.3C498.802 95.3 498.302 94.8 498.302 93.8V89.3H500.502V87.4H498.302V84.2H496.502V86.3C496.502 87.1 496.202 87.4 495.602 87.4H494.502V89.3H496.302V94C496.302 96.1 497.402 97.2 499.302 97.2ZM509.892 97.2C511.992 97.2 512.992 95.6 512.992 95.6V97H514.992V90.9C514.992 88.8 513.392 87.2 510.992 87.2C508.492 87.2 507.192 89 507.192 89L508.492 90.3C508.492 90.3 509.492 89 510.992 89C512.192 89 512.992 89.8 512.992 90.8L509.492 91.4C507.792 91.7 506.692 92.8 506.692 94.4C506.692 95.9 507.992 97.2 509.892 97.2ZM510.292 95.5C509.292 95.5 508.692 94.9 508.692 94.2C508.692 93.6 509.192 93.08 510.192 92.9L512.992 92.4V92.7C512.992 94.3 511.792 95.5 510.292 95.5ZM520.683 97.2C522.983 97.2 524.383 95.8 524.383 94.2C524.383 90.8 519.283 91.6 519.283 90C519.283 89.5 519.783 89 520.783 89C522.083 89 522.883 89.8 522.883 89.8L524.183 88.5C524.183 88.5 523.083 87.2 520.783 87.2C518.583 87.2 517.283 88.5 517.283 90C517.283 93.4 522.383 92.6 522.383 94.2C522.383 94.8 521.783 95.4 520.683 95.4C519.183 95.4 518.183 94.1 518.183 94.1L516.883 95.4C516.883 95.4 518.183 97.2 520.683 97.2ZM531.973 88.2L534.073 83.5L532.473 82.6L529.673 86.9L531.973 88.2ZM535.973 88.2L538.073 83.5L536.473 82.6L533.673 86.9L535.973 88.2ZM539.873 97H542.573V83H539.873V97ZM545.28 97H547.98V87.2H545.28V97ZM546.62 85.9C547.48 85.9 548.18 85.2 548.18 84.4C548.18 83.6 547.48 82.9 546.64 82.9C545.78 82.9 545.08 83.6 545.08 84.4C545.08 85.2 545.78 85.9 546.62 85.9ZM550.573 97H553.273V91.8C553.273 90.5 554.173 89.6 555.373 89.6C556.473 89.6 557.173 90.3 557.173 91.5V97H559.873V91.1C559.873 88.6 558.273 87 556.273 87C554.373 87 553.373 88.6 553.373 88.6H553.273V87.2H550.573V97ZM562.568 97H565.268V94.7L566.568 93.2L569.068 97H572.168L568.368 91.3L571.968 87.2H568.768L565.268 91.2V83H562.568V97ZM573.366 99.6L576.166 95.3L573.866 94L571.766 98.7L573.366 99.6ZM582.47 97H585.17V83H582.47V97ZM587.878 97H590.578V87.2H587.878V97ZM589.218 85.9C590.078 85.9 590.778 85.2 590.778 84.4C590.778 83.6 590.078 82.9 589.238 82.9C588.378 82.9 587.678 83.6 587.678 84.4C587.678 85.2 588.378 85.9 589.218 85.9ZM593.171 97H595.871V91.8C595.871 90.5 596.771 89.6 597.971 89.6C599.071 89.6 599.771 90.3 599.771 91.5V97H602.471V91.1C602.471 88.6 600.871 87 598.871 87C596.971 87 595.971 88.6 595.971 88.6H595.871V87.2H593.171V97ZM605.166 97H607.866V94.7L609.166 93.2L611.666 97H614.766L610.966 91.3L614.566 87.2H611.366L607.866 91.2V83H605.166V97ZM615.964 99.6L618.764 95.3L616.464 94L614.364 98.7L615.964 99.6ZM625.068 97H627.768V83H625.068V97ZM630.476 97H633.176V87.2H630.476V97ZM631.816 85.9C632.676 85.9 633.376 85.2 633.376 84.4C633.376 83.6 632.676 82.9 631.836 82.9C630.976 82.9 630.276 83.6 630.276 84.4C630.276 85.2 630.976 85.9 631.816 85.9ZM635.769 97H638.469V91.8C638.469 90.5 639.369 89.6 640.569 89.6C641.669 89.6 642.369 90.3 642.369 91.5V97H645.069V91.1C645.069 88.6 643.469 87 641.469 87C639.569 87 638.569 88.6 638.569 88.6H638.469V87.2H635.769V97ZM647.763 97H650.463V94.7L651.763 93.2L654.263 97H657.363L653.563 91.3L657.163 87.2H653.963L650.463 91.2V83H647.763V97ZM659.262 88.2L662.062 83.9L659.762 82.6L657.662 87.3L659.262 88.2ZM663.262 88.2L666.062 83.9L663.762 82.6L661.662 87.3L663.262 88.2Z" fill="#FB6262"/>
<circle cx="415" cy="78" r="18" fill="#FFF2F4" stroke="#FB6262" stroke-width="2"/>
<path d="M415.2 85.2C416.1 85.2 416.8 84.5 416.8 83.6C416.8 82.7 416.1 82 415.2 82C414.3 82 413.6 82.7 413.6 83.6C413.6 84.5 414.3 85.2 415.2 85.2ZM414.1 80.7H416.3L416.8 71H413.6L414.1 80.7Z" fill="#FB6262"/>
<g filter="url(#filter1_d)">
<path d="M332 298C332 286.954 323.046 278 312 278H50C38.9543 278 30 286.954 30 298V331C30 342.046 38.9543 351 50 351H332V298Z" fill="#B9F0C2"/>
</g>
<path d="M96 309H98.2V302.9H105.1V309H107.3V295H105.1V300.9H98.2V295H96V309ZM115.093 309.2C117.893 309.2 119.193 307.4 119.193 307.4L117.993 306C117.993 306 116.893 307.3 115.193 307.3C113.593 307.3 112.393 306.2 112.193 304.9H119.593C119.593 304.9 119.693 304.5 119.693 303.9C119.693 301.2 117.693 299.2 114.993 299.2C112.293 299.2 110.093 301.4 110.093 304.2C110.093 307 112.293 309.2 115.093 309.2ZM112.193 303.2C112.593 301.9 113.493 301 114.993 301C116.393 301 117.293 301.9 117.593 303.2H112.193ZM121.884 309H123.884V304.1C123.884 302.4 125.084 301.2 126.484 301.2C126.884 301.2 127.284 301.3 127.284 301.3V299.2H126.784C124.884 299.2 123.884 300.7 123.884 300.7V299.4H121.884V309ZM133.296 309.2C136.096 309.2 137.396 307.4 137.396 307.4L136.196 306C136.196 306 135.096 307.3 133.396 307.3C131.796 307.3 130.596 306.2 130.396 304.9H137.796C137.796 304.9 137.896 304.5 137.896 303.9C137.896 301.2 135.896 299.2 133.196 299.2C130.496 299.2 128.296 301.4 128.296 304.2C128.296 307 130.496 309.2 133.296 309.2ZM130.396 303.2C130.796 301.9 131.696 301 133.196 301C134.596 301 135.496 301.9 135.796 303.2H130.396ZM140.388 299.6L142.888 295.6L141.088 294.6L139.088 298.9L140.388 299.6ZM147.597 309.2C149.897 309.2 151.297 307.8 151.297 306.2C151.297 302.8 146.197 303.6 146.197 302C146.197 301.5 146.697 301 147.697 301C148.997 301 149.797 301.8 149.797 301.8L151.097 300.5C151.097 300.5 149.997 299.2 147.697 299.2C145.497 299.2 144.197 300.5 144.197 302C144.197 305.4 149.297 304.6 149.297 306.2C149.297 306.8 148.697 307.4 147.597 307.4C146.097 307.4 145.097 306.1 145.097 306.1L143.797 307.4C143.797 307.4 145.097 309.2 147.597 309.2ZM157.688 309H159.688V303.8C159.688 302.2 160.788 301.1 162.288 301.1C163.588 301.1 164.488 302 164.488 303.4V309H166.488V303.4C166.488 300.8 164.888 299.2 162.688 299.2C160.688 299.2 159.688 300.8 159.688 300.8V295H157.688V309ZM173.687 309.2C176.487 309.2 178.687 307 178.687 304.2C178.687 301.4 176.487 299.2 173.687 299.2C170.887 299.2 168.687 301.4 168.687 304.2C168.687 307 170.887 309.2 173.687 309.2ZM173.687 307.3C171.987 307.3 170.687 306 170.687 304.2C170.687 302.4 171.987 301.1 173.687 301.1C175.387 301.1 176.687 302.4 176.687 304.2C176.687 306 175.387 307.3 173.687 307.3ZM183.088 309H184.988L187.088 302.6L189.188 309H191.088L194.488 299.4H192.288L190.088 305.9L187.988 299.4H186.188L184.088 305.9L181.888 299.4H179.688L183.088 309ZM200.402 313.2C202.002 313.2 203.102 312.12 203.902 310.1L208.102 299.4H205.902L203.202 306.5L200.502 299.4H198.302L202.202 309L201.802 310C201.482 310.8 200.902 311.3 200.102 311.3C199.402 311.3 198.902 311 198.902 311V312.9C198.902 312.9 199.502 313.2 200.402 313.2ZM214.097 309.2C216.897 309.2 219.097 307 219.097 304.2C219.097 301.4 216.897 299.2 214.097 299.2C211.297 299.2 209.097 301.4 209.097 304.2C209.097 307 211.297 309.2 214.097 309.2ZM214.097 307.3C212.397 307.3 211.097 306 211.097 304.2C211.097 302.4 212.397 301.1 214.097 301.1C215.797 301.1 217.097 302.4 217.097 304.2C217.097 306 215.797 307.3 214.097 307.3ZM225.098 309.2C227.098 309.2 228.098 307.6 228.098 307.6V309H230.098V299.4H228.098V304.6C228.098 306.2 226.998 307.3 225.498 307.3C224.198 307.3 223.298 306.4 223.298 305V299.4H221.298V305C221.298 307.6 222.898 309.2 225.098 309.2ZM239.999 309.2C242.299 309.2 243.699 307.8 243.699 306.2C243.699 302.8 238.599 303.6 238.599 302C238.599 301.5 239.099 301 240.099 301C241.399 301 242.199 301.8 242.199 301.8L243.499 300.5C243.499 300.5 242.399 299.2 240.099 299.2C237.899 299.2 236.599 300.5 236.599 302C236.599 305.4 241.699 304.6 241.699 306.2C241.699 306.8 241.099 307.4 239.999 307.4C238.499 307.4 237.499 306.1 237.499 306.1L236.199 307.4C236.199 307.4 237.499 309.2 239.999 309.2ZM245.891 309H247.891V303.8C247.891 302.2 248.991 301.1 250.491 301.1C251.791 301.1 252.691 302 252.691 303.4V309H254.691V303.4C254.691 300.8 253.091 299.2 250.891 299.2C248.891 299.2 247.891 300.8 247.891 300.8V295H245.891V309ZM261.89 309.2C264.69 309.2 266.89 307 266.89 304.2C266.89 301.4 264.69 299.2 261.89 299.2C259.09 299.2 256.89 301.4 256.89 304.2C256.89 307 259.09 309.2 261.89 309.2ZM261.89 307.3C260.19 307.3 258.89 306 258.89 304.2C258.89 302.4 260.19 301.1 261.89 301.1C263.59 301.1 264.89 302.4 264.89 304.2C264.89 306 263.59 307.3 261.89 307.3ZM272.891 309.2C274.891 309.2 275.891 307.6 275.891 307.6V309H277.891V299.4H275.891V304.6C275.891 306.2 274.791 307.3 273.291 307.3C271.991 307.3 271.091 306.4 271.091 305V299.4H269.091V305C269.091 307.6 270.691 309.2 272.891 309.2ZM280.793 309H282.793V295H280.793V309ZM289.593 309.2C291.893 309.2 292.893 307.6 292.893 307.6V309H294.893V295H292.893V300.8C292.893 300.8 291.893 299.2 289.593 299.2C287.193 299.2 285.093 301.3 285.093 304.2C285.093 307.1 287.193 309.2 289.593 309.2ZM289.993 307.3C288.393 307.3 287.093 306 287.093 304.2C287.093 302.4 288.393 301.1 289.993 301.1C291.593 301.1 292.893 302.4 292.893 304.2C292.893 306 291.593 307.3 289.993 307.3ZM97.6 335H99.5L101.6 328.6L103.7 335H105.6L109 325.4H106.8L104.6 331.9L102.5 325.4H100.7L98.6 331.9L96.4 325.4H94.2L97.6 335ZM110.595 335H112.595V330.1C112.595 328.4 113.795 327.2 115.195 327.2C115.595 327.2 115.995 327.3 115.995 327.3V325.2H115.495C113.595 325.2 112.595 326.7 112.595 326.7V325.4H110.595V335ZM117.902 335H119.902V325.4H117.902V335ZM118.902 323.6C119.502 323.6 120.102 323.1 120.102 322.4C120.102 321.7 119.502 321.2 118.902 321.2C118.302 321.2 117.702 321.7 117.702 322.4C117.702 323.1 118.302 323.6 118.902 323.6ZM126.802 335.2C127.702 335.2 128.302 334.9 128.302 334.9V333C128.302 333 127.802 333.3 127.202 333.3C126.302 333.3 125.802 332.8 125.802 331.8V327.3H128.002V325.4H125.802V322.2H124.002V324.3C124.002 325.1 123.702 325.4 123.102 325.4H122.002V327.3H123.802V332C123.802 334.1 124.902 335.2 126.802 335.2ZM134.898 335.2C137.698 335.2 138.998 333.4 138.998 333.4L137.798 332C137.798 332 136.698 333.3 134.998 333.3C133.398 333.3 132.198 332.2 131.998 330.9H139.398C139.398 330.9 139.498 330.5 139.498 329.9C139.498 327.2 137.498 325.2 134.798 325.2C132.098 325.2 129.898 327.4 129.898 330.2C129.898 333 132.098 335.2 134.898 335.2ZM131.998 329.2C132.398 327.9 133.298 327 134.798 327C136.198 327 137.098 327.9 137.398 329.2H131.998ZM149.888 335.2C150.788 335.2 151.388 334.9 151.388 334.9V333C151.388 333 150.888 333.3 150.288 333.3C149.388 333.3 148.888 332.8 148.888 331.8V327.3H151.088V325.4H148.888V322.2H147.088V324.3C147.088 325.1 146.788 325.4 146.188 325.4H145.088V327.3H146.888V332C146.888 334.1 147.988 335.2 149.888 335.2ZM153.879 335H155.879V329.8C155.879 328.2 156.979 327.1 158.479 327.1C159.779 327.1 160.679 328 160.679 329.4V335H162.679V329.4C162.679 326.8 161.079 325.2 158.879 325.2C156.879 325.2 155.879 326.8 155.879 326.8V321H153.879V335ZM165.578 335H167.578V325.4H165.578V335ZM166.578 323.6C167.178 323.6 167.778 323.1 167.778 322.4C167.778 321.7 167.178 321.2 166.578 321.2C165.978 321.2 165.378 321.7 165.378 322.4C165.378 323.1 165.978 323.6 166.578 323.6ZM173.378 335.2C175.678 335.2 177.078 333.8 177.078 332.2C177.078 328.8 171.978 329.6 171.978 328C171.978 327.5 172.478 327 173.478 327C174.778 327 175.578 327.8 175.578 327.8L176.878 326.5C176.878 326.5 175.778 325.2 173.478 325.2C171.278 325.2 169.978 326.5 169.978 328C169.978 331.4 175.078 330.6 175.078 332.2C175.078 332.8 174.478 333.4 173.378 333.4C171.878 333.4 170.878 332.1 170.878 332.1L169.578 333.4C169.578 333.4 170.878 335.2 173.378 335.2ZM187.769 335.2C190.469 335.2 191.869 333.2 191.869 333.2L190.469 331.9C190.469 331.9 189.469 333.3 187.769 333.3C186.069 333.3 184.769 332 184.769 330.2C184.769 328.4 186.069 327.1 187.769 327.1C189.469 327.1 190.369 328.4 190.369 328.4L191.769 327.1C191.769 327.1 190.469 325.2 187.769 325.2C184.969 325.2 182.769 327.4 182.769 330.2C182.769 333 184.969 335.2 187.769 335.2ZM197.964 335.2C200.764 335.2 202.964 333 202.964 330.2C202.964 327.4 200.764 325.2 197.964 325.2C195.164 325.2 192.964 327.4 192.964 330.2C192.964 333 195.164 335.2 197.964 335.2ZM197.964 333.3C196.264 333.3 194.964 332 194.964 330.2C194.964 328.4 196.264 327.1 197.964 327.1C199.664 327.1 200.964 328.4 200.964 330.2C200.964 332 199.664 333.3 197.964 333.3ZM209.066 335.2C211.366 335.2 212.366 333.6 212.366 333.6V335H214.366V321H212.366V326.8C212.366 326.8 211.366 325.2 209.066 325.2C206.666 325.2 204.566 327.3 204.566 330.2C204.566 333.1 206.666 335.2 209.066 335.2ZM209.466 333.3C207.866 333.3 206.566 332 206.566 330.2C206.566 328.4 207.866 327.1 209.466 327.1C211.066 327.1 212.366 328.4 212.366 330.2C212.366 332 211.066 333.3 209.466 333.3ZM221.675 335.2C224.475 335.2 225.775 333.4 225.775 333.4L224.575 332C224.575 332 223.475 333.3 221.775 333.3C220.175 333.3 218.975 332.2 218.775 330.9H226.175C226.175 330.9 226.275 330.5 226.275 329.9C226.275 327.2 224.275 325.2 221.575 325.2C218.875 325.2 216.675 327.4 216.675 330.2C216.675 333 218.875 335.2 221.675 335.2ZM218.775 329.2C219.175 327.9 220.075 327 221.575 327C222.975 327 223.875 327.9 224.175 329.2H218.775Z" fill="#168161"/>
<circle cx="65" cy="316" r="18" fill="#E9FFEC" stroke="#168161" stroke-width="2"/>
<path d="M58 316L62.5 320.5L72.5 310.5" stroke="#168161" stroke-width="2"/>
<defs>
<filter id="filter0_d" x="350" y="20" width="362" height="133" filterUnits="userSpaceOnUse" color-interpolation-filters="sRGB">
<feFlood flood-opacity="0" result="BackgroundImageFix"/>
<feColorMatrix in="SourceAlpha" type="matrix" values="0 0 0 0 0 0 0 0 0 0 0 0 0 0 0 0 0 0 127 0" result="hardAlpha"/>
<feOffset dy="10"/>
<feGaussianBlur stdDeviation="15"/>
<feColorMatrix type="matrix" values="0 0 0 0 0.133302 0 0 0 0 0.124282 0 0 0 0 0.575311 0 0 0 0.13 0"/>
<feBlend mode="normal" in2="BackgroundImageFix" result="effect1_dropShadow"/>
<feBlend mode="normal" in="SourceGraphic" in2="effect1_dropShadow" result="shape"/>
</filter>
<filter id="filter1_d" x="0" y="258" width="362" height="133" filterUnits="userSpaceOnUse" color-interpolation-filters="sRGB">
<feFlood flood-opacity="0" result="BackgroundImageFix"/>
<feColorMatrix in="SourceAlpha" type="matrix" values="0 0 0 0 0 0 0 0 0 0 0 0 0 0 0 0 0 0 127 0" result="hardAlpha"/>
<feOffset dy="10"/>
<feGaussianBlur stdDeviation="15"/>
<feColorMatrix type="matrix" values="0 0 0 0 0.133302 0 0 0 0 0.124282 0 0 0 0 0.575311 0 0 0 0.13 0"/>
<feBlend mode="normal" in2="BackgroundImageFix" result="effect1_dropShadow"/>
<feBlend mode="normal" in="SourceGraphic" in2="effect1_dropShadow" result="shape"/>
</filter>
</defs>
</svg>
