<svg width="64" height="64" viewBox="0 0 64 64" fill="none" xmlns="http://www.w3.org/2000/svg">
<circle r="7.31611" transform="matrix(-1 0 0 1 20.8255 15.4423)" fill="#136EF8"/>
<circle r="7.31611" transform="matrix(-1 0 0 1 32.0267 15.4423)" fill="#60D0FF"/>
<path fill-rule="evenodd" clip-rule="evenodd" d="M26.4275 10.7355C25.3575 12.0077 24.7129 13.6496 24.7129 15.442C24.7129 17.2345 25.3575 18.8763 26.4275 20.1485C27.4975 18.8763 28.1421 17.2345 28.1421 15.442C28.1421 13.6496 27.4975 12.0077 26.4275 10.7355Z" fill="#2C3242"/>
<path fill-rule="evenodd" clip-rule="evenodd" d="M20.8259 22.7584C16.7853 22.7584 13.5098 19.4829 13.5098 15.4423C13.5098 11.4018 16.7853 8.12622 20.8259 8.12622C24.8664 8.12622 28.142 11.4018 28.142 15.4423C28.142 19.4829 24.8664 22.7584 20.8259 22.7584ZM20.8259 57.6667C13.5098 57.6667 13.5098 35.6586 13.5098 31.5151C13.5098 27.3716 16.7853 24.0126 20.8259 24.0126C24.8664 24.0126 28.142 27.3716 28.142 31.5151C28.142 35.6586 28.142 57.6667 20.8259 57.6667Z" fill="#136EF8"/>
<path fill-rule="evenodd" clip-rule="evenodd" d="M43.1765 22.7584C39.1359 22.7584 35.8604 19.4829 35.8604 15.4423C35.8604 11.4018 39.1359 8.12622 43.1765 8.12622C47.217 8.12622 50.4926 11.4018 50.4926 15.4423C50.4926 19.4829 47.217 22.7584 43.1765 22.7584ZM43.1765 57.6667C35.8604 57.6667 35.8604 35.6586 35.8604 31.5151C35.8604 27.3716 39.1359 24.0126 43.1765 24.0126C47.217 24.0126 50.4926 27.3716 50.4926 31.5151C50.4926 35.6586 50.4926 57.6667 43.1765 57.6667Z" fill="#136EF8"/>
<path fill-rule="evenodd" clip-rule="evenodd" d="M32.0261 22.7584C27.9855 22.7584 24.71 19.4829 24.71 15.4423C24.71 11.4018 27.9855 8.12622 32.0261 8.12622C36.0666 8.12622 39.3422 11.4018 39.3422 15.4423C39.3422 19.4829 36.0666 22.7584 32.0261 22.7584ZM32.0261 57.6667C24.71 57.6667 24.71 35.6586 24.71 31.5151C24.71 27.3716 27.9855 24.0126 32.0261 24.0126C36.0666 24.0126 39.3422 27.3716 39.3422 31.5151C39.3422 35.6586 39.3422 57.6667 32.0261 57.6667Z" fill="#60D0FF"/>
<path fill-rule="evenodd" clip-rule="evenodd" d="M37.6005 10.7045C38.6863 11.981 39.3416 13.6351 39.3416 15.4423C39.3416 17.2495 38.6863 18.9036 37.6005 20.1801C36.5146 18.9036 35.8594 17.2495 35.8594 15.4423C35.8594 13.6351 36.5146 11.981 37.6005 10.7045ZM37.6005 26.6565C38.6863 27.9656 39.3416 29.6618 39.3416 31.5151C39.3416 34.0828 39.3416 43.511 37.6005 50.3108C35.8594 43.511 35.8594 34.0828 35.8594 31.5151C35.8594 29.6618 36.5146 27.9656 37.6005 26.6565Z" fill="#2C3242"/>
<path fill-rule="evenodd" clip-rule="evenodd" d="M26.4258 20.1503C25.3551 18.8779 24.71 17.2355 24.71 15.4423C24.71 13.6492 25.3551 12.0067 26.4258 10.7343C27.4966 12.0067 28.1417 13.6492 28.1417 15.4423C28.1417 17.2355 27.4966 18.8779 26.4258 20.1503ZM26.4258 50.2116C28.1417 43.4197 28.1417 34.0704 28.1417 31.5151C28.1417 29.6763 27.4966 27.9919 26.4258 26.6871C25.3551 27.9919 24.71 29.6763 24.71 31.5151C24.71 34.0704 24.71 43.4197 26.4258 50.2116Z" fill="#2C3242"/>
</svg>
