<?xml version="1.0" encoding="utf-8"?>
<!-- Generator: Adobe Illustrator 25.4.1, SVG Export Plug-In . SVG Version: 6.00 Build 0)  -->
<svg version="1.1" id="Layer_1" xmlns="http://www.w3.org/2000/svg" xmlns:xlink="http://www.w3.org/1999/xlink" x="0px" y="0px"
	 viewBox="0 0 18 16.5" style="enable-background:new 0 0 18 16.5;" xml:space="preserve">
<style type="text/css">
	.st0{fill-rule:evenodd;clip-rule:evenodd;fill:#304357;}
</style>
<path class="st0" d="M2.2,0C1,0,0,1,0,2.2v9c0,1.2,1,2.2,2.2,2.2H6V15H5.2c-0.4,0-0.8,0.3-0.8,0.8s0.3,0.8,0.8,0.8h7.5
	c0.4,0,0.8-0.3,0.8-0.8S13.2,15,12.8,15H12v-1.5h3.8c1.2,0,2.2-1,2.2-2.2v-9C18,1,17,0,15.8,0H2.2z M7.5,15v-1.5h3V15H7.5z"/>
</svg>
