<svg width="36" height="36" viewBox="0 0 36 36" fill="none" xmlns="http://www.w3.org/2000/svg">
<path fill-rule="evenodd" clip-rule="evenodd" d="M11.9777 11.8881C14.4321 11.8881 16.4217 9.89843 16.4217 7.44405C16.4217 4.98967 14.4321 3 11.9777 3C9.5233 3 7.53363 4.98967 7.53363 7.44405C7.53363 9.89843 9.5233 11.8881 11.9777 11.8881ZM11.5565 13.3696C7.8248 13.3696 4.72123 16.2407 4.43129 19.9612L3.75286 28.6667C3.71092 29.2047 4.13622 29.6645 4.6759 29.6645H19.6998C20.2431 29.6645 20.6697 29.1988 20.6221 28.6575L19.8513 19.8906C19.5268 16.2003 16.4364 13.3696 12.7319 13.3696H11.5565Z" fill="#2C3242"/>
<path fill-rule="evenodd" clip-rule="evenodd" d="M23.625 33C28.3885 33 32.25 29.1385 32.25 24.375C32.25 19.6115 28.3885 15.75 23.625 15.75C18.8615 15.75 15 19.6115 15 24.375C15 29.1385 18.8615 33 23.625 33ZM23.9087 20.1323C24.0736 19.9577 24.156 19.7637 24.156 19.5503C24.156 19.337 24.0736 19.1478 23.9087 18.9829C23.7438 18.8084 23.5498 18.7211 23.3267 18.7211C23.1037 18.7211 22.9097 18.8084 22.7448 18.9829C22.5896 19.1478 22.512 19.337 22.512 19.5503C22.512 19.7637 22.5896 19.9577 22.7448 20.1323C22.9097 20.2972 23.1037 20.3796 23.3267 20.3796C23.5498 20.3796 23.7438 20.2972 23.9087 20.1323ZM24.607 28.3668C24.4615 28.2504 24.3888 28.0321 24.3888 27.7121V21.7908L21.9737 22.0236V22.5764L22.6575 22.6346C22.9 22.654 23.0406 22.7365 23.0794 22.882C23.1279 23.0274 23.1522 23.2408 23.1522 23.5221V27.7121C23.1522 28.0321 23.0794 28.2504 22.9339 28.3668C22.7885 28.4735 22.6284 28.5268 22.4538 28.5268H22.1774V29.0796H25.3635V28.5413H25.1017C24.9271 28.5413 24.7622 28.4832 24.607 28.3668Z" fill="#60D0FF"/>
<path fill-rule="evenodd" clip-rule="evenodd" d="M19.0053 17.0903C16.5976 18.6204 15 21.3112 15 24.3751C15 26.3685 15.6762 28.204 16.8118 29.6646H19.6998C20.2431 29.6646 20.6697 29.1989 20.6221 28.6576L19.8513 19.8907C19.7624 18.8791 19.4656 17.9321 19.0053 17.0903Z" fill="#136EF8"/>
</svg>
