<svg width="485" height="400" viewBox="0 0 485 400" fill="none" xmlns="http://www.w3.org/2000/svg">
<g clip-path="url(#clip0_1193_44788)">
<g filter="url(#filter0_d_1193_44788)">
<path d="M19.8772 67.2575C19.8772 56.6068 28.5113 47.9727 39.162 47.9727H497.087V380H39.162C28.5113 380 19.8772 371.366 19.8772 360.715V67.2575Z" fill="white"/>
</g>
<circle cx="58.4469" cy="75.2919" r="4.82121" fill="#D9E8FE"/>
<circle cx="74.5175" cy="75.2919" r="4.82121" fill="#D9E8FE"/>
<circle cx="90.5883" cy="75.2919" r="4.82121" fill="#D9E8FE"/>
<path d="M53.9637 119.302C53.9637 111.981 59.8986 106.046 67.2196 106.046H497.087V132.558H67.2196C59.8986 132.558 53.9637 126.623 53.9637 119.302V119.302Z" fill="#F1F5FD"/>
<rect x="53.9637" y="152.756" width="106.047" height="203.256" rx="12.8566" fill="#F1F5FD"/>
<path d="M173.898 165.612C173.898 158.512 179.654 152.756 186.754 152.756H497.088V356.012H186.754C179.654 356.012 173.898 350.256 173.898 343.155V165.612Z" fill="#F1F5FD"/>
<circle cx="82.5529" cy="176.537" r="9.64242" fill="#D9E8FE"/>
<rect x="72.9105" y="200.645" width="69.104" height="6.42828" rx="3.21414" fill="#D9E8FE"/>
<rect x="72.9104" y="215.109" width="69.104" height="6.42828" rx="3.21414" fill="#D9E8FE"/>
<rect x="72.9104" y="229.571" width="69.104" height="6.42828" rx="3.21414" fill="#D9E8FE"/>
<rect x="72.9104" y="244.037" width="69.104" height="6.42828" rx="3.21414" fill="#D9E8FE"/>
<rect x="72.9104" y="334.55" width="69.104" height="6.42828" rx="3.21414" fill="#D9E8FE"/>
<rect x="201.476" y="334.55" width="109.281" height="6.42828" rx="3.21414" fill="#D9E8FE"/>
<rect x="201.476" y="219.577" width="109.281" height="6.42828" rx="3.21414" fill="#D9E8FE"/>
<rect x="201.476" y="205.112" width="149.457" height="6.42828" rx="3.21414" fill="#D9E8FE"/>
<rect x="201.672" y="190.631" width="64.3855" height="6.3123" rx="3.15615" fill="#D9E8FE"/>
<g filter="url(#filter1_d_1193_44788)">
<rect x="262.101" y="0.358398" width="177.804" height="319.044" rx="8.37955" fill="#EFF4F7"/>
<rect opacity="0.15" x="291.496" y="266.708" width="70.9784" height="11.8297" fill="#136EF8"/>
<path d="M262.101 6.79082C262.101 2.7175 266.853 0.00195312 269.568 0.00195312H431.822C435.896 0.00195312 439.905 3.39639 439.905 6.79082V107.545H262.101V6.79082Z" fill="#136EF8"/>
<path d="M262.101 308.65H439.905V315.82C439.905 317.8 438.3 319.404 436.32 319.404H265.685C263.705 319.404 262.101 317.8 262.101 315.82V308.65Z" fill="#136EF8"/>
<path d="M368.568 272.803C368.568 276.168 365.84 278.897 362.474 278.897C359.108 278.897 356.38 276.168 356.38 272.803C356.38 269.437 359.108 266.708 362.474 266.708C365.84 266.708 368.568 269.437 368.568 272.803Z" fill="#136EF8"/>
<path d="M297.59 272.803C297.59 276.168 294.861 278.897 291.496 278.897C288.13 278.897 285.401 276.168 285.401 272.803C285.401 269.437 288.13 266.708 291.496 266.708C294.861 266.708 297.59 269.437 297.59 272.803Z" fill="#136EF8"/>
<path opacity="0.2" d="M262.101 8.73892C262.101 4.11103 265.852 0.359375 270.48 0.359375H431.525C436.153 0.359375 439.905 4.11102 439.905 8.73892V14.6984H262.101V8.73892Z" fill="#1E1E20"/>
<g opacity="0.7">
<path d="M275.364 7.1698C275.364 9.3476 273.519 11.113 271.242 11.113C268.965 11.113 267.119 9.3476 267.119 7.1698C267.119 4.99201 268.965 3.22656 271.242 3.22656C273.519 3.22656 275.364 4.99201 275.364 7.1698Z" fill="white"/>
<path d="M286.119 7.1698C286.119 9.3476 284.353 11.113 282.175 11.113C279.998 11.113 278.232 9.3476 278.232 7.1698C278.232 4.99201 279.998 3.22656 282.175 3.22656C284.353 3.22656 286.119 4.99201 286.119 7.1698Z" fill="white"/>
<path d="M297.231 7.1698C297.231 9.3476 295.386 11.113 293.109 11.113C290.832 11.113 288.986 9.3476 288.986 7.1698C288.986 4.99201 290.832 3.22656 293.109 3.22656C295.386 3.22656 297.231 4.99201 297.231 7.1698Z" fill="white"/>
<path d="M310.479 35.1678C310.479 34.1174 311.33 33.266 312.381 33.266H390.298C391.348 33.266 392.2 34.1174 392.2 35.1678C392.2 36.2181 391.348 37.0696 390.298 37.0696H312.381C311.33 37.0696 310.479 36.2181 310.479 35.1678Z" fill="white"/>
</g>
<path d="M379.313 56.9851C379.313 54.0092 381.725 51.5967 384.701 51.5967H422.328C425.304 51.5967 427.717 54.0092 427.717 56.9851C427.717 59.9611 425.304 62.3736 422.328 62.3736H384.701C381.725 62.3736 379.313 59.9611 379.313 56.9851Z" fill="white"/>
<path d="M327.137 56.9851C327.137 54.0092 329.55 51.5967 332.526 51.5967H370.153C373.129 51.5967 375.541 54.0092 375.541 56.9851C375.541 59.9611 373.129 62.3736 370.153 62.3736H332.526C329.55 62.3736 327.137 59.9611 327.137 56.9851Z" fill="white"/>
<path d="M274.647 56.9851C274.647 54.0092 277.06 51.5967 280.036 51.5967H317.663C320.639 51.5967 323.051 54.0092 323.051 56.9851C323.051 59.9611 320.639 62.3736 317.663 62.3736H280.036C277.06 62.3736 274.647 59.9611 274.647 56.9851Z" fill="white"/>
<path fill-rule="evenodd" clip-rule="evenodd" d="M273.213 245.914C271.234 245.914 269.629 247.519 269.629 249.499V291.082C269.629 293.062 271.234 294.667 273.213 294.667H428.792C430.772 294.667 432.377 293.062 432.377 291.082V249.499C432.377 247.519 430.772 245.914 428.792 245.914H273.213ZM277.515 253.441C276.723 253.441 276.081 254.083 276.081 254.874V282.477C276.081 283.269 276.723 283.911 277.515 283.911H377.53C378.322 283.911 378.964 283.269 378.964 282.477V254.874C378.964 254.083 378.322 253.441 377.53 253.441H277.515ZM387.567 253.441C386.775 253.441 386.133 254.083 386.133 254.874V282.477C386.133 283.269 386.775 283.911 387.567 283.911H423.773C424.565 283.911 425.207 283.269 425.207 282.477V254.874C425.207 254.083 424.565 253.441 423.773 253.441H387.567Z" fill="white"/>
<path d="M290.062 272.444L291.496 273.878L292.93 272.444" stroke="white" stroke-width="0.716953" stroke-linecap="round" stroke-linejoin="round"/>
<path d="M363.908 273.52L362.474 272.086L361.04 273.52" stroke="white" stroke-width="0.716953" stroke-linecap="round" stroke-linejoin="round"/>
<rect x="269.629" y="78.1484" width="162.39" height="161.314" rx="3.58477" fill="white"/>
<g opacity="0.1">
<path d="M277.515 93.5623C277.515 91.5825 279.12 89.9775 281.1 89.9775H310.719C312.303 89.9775 313.587 91.2615 313.587 92.8454V99.2979C313.587 100.882 312.303 102.166 310.719 102.166H281.1C279.12 102.166 277.515 100.561 277.515 98.581V93.5623Z" fill="#2C3242"/>
<path d="M277.515 119.014C277.515 117.034 279.12 115.429 281.1 115.429H310.719C312.303 115.429 313.587 116.713 313.587 118.297V124.75C313.587 126.334 312.303 127.618 310.719 127.618H281.1C279.12 127.618 277.515 126.013 277.515 124.033V119.014Z" fill="#2C3242"/>
<path d="M277.515 144.466C277.515 142.486 279.12 140.881 281.1 140.881H310.719C312.303 140.881 313.587 142.165 313.587 143.749V150.202C313.587 151.785 312.303 153.069 310.719 153.069H281.1C279.12 153.069 277.515 151.464 277.515 149.485V144.466Z" fill="#2C3242"/>
<path d="M277.515 169.918C277.515 167.938 279.12 166.333 281.1 166.333H310.719C312.303 166.333 313.587 167.617 313.587 169.201V175.653C313.587 177.237 312.303 178.521 310.719 178.521H281.1C279.12 178.521 277.515 176.916 277.515 174.936V169.918Z" fill="#2C3242"/>
<path d="M277.515 220.821C277.515 218.842 279.12 217.237 281.1 217.237H310.719C312.303 217.237 313.587 218.521 313.587 220.105V226.557C313.587 228.141 312.303 229.425 310.719 229.425H281.1C279.12 229.425 277.515 227.82 277.515 225.84V220.821Z" fill="#2C3242"/>
<path d="M277.515 195.37C277.515 193.39 279.12 191.785 281.1 191.785H310.719C312.303 191.785 313.587 193.069 313.587 194.653V201.105C313.587 202.689 312.303 203.973 310.719 203.973H281.1C279.12 203.973 277.515 202.368 277.515 200.388V195.37Z" fill="#2C3242"/>
</g>
<g opacity="0.1">
<path d="M295.081 100.734C295.081 102.317 293.797 103.601 292.213 103.601L278.815 103.601C277.231 103.601 275.947 102.317 275.947 100.734L275.947 93.9225C275.947 92.3387 277.231 91.0547 278.815 91.0547L292.213 91.0547C293.797 91.0547 295.081 92.3387 295.081 93.9225V100.734Z" fill="#2C3242"/>
<path d="M295.081 126.185C295.081 127.769 293.797 129.053 292.213 129.053L278.815 129.053C277.231 129.053 275.947 127.769 275.947 126.185L275.947 119.374C275.947 117.79 277.231 116.507 278.815 116.507H292.213C293.797 116.507 295.081 117.79 295.081 119.374V126.185Z" fill="#2C3242"/>
<path d="M295.081 151.637C295.081 153.221 293.797 154.505 292.213 154.505H278.815C277.231 154.505 275.947 153.221 275.947 151.637L275.947 144.826C275.947 143.242 277.231 141.958 278.815 141.958H292.213C293.797 141.958 295.081 143.242 295.081 144.826V151.637Z" fill="#2C3242"/>
<path d="M295.081 177.089C295.081 178.673 293.797 179.957 292.213 179.957H278.815C277.231 179.957 275.947 178.673 275.947 177.089L275.947 170.278C275.947 168.694 277.231 167.41 278.815 167.41H292.213C293.797 167.41 295.081 168.694 295.081 170.278V177.089Z" fill="#2C3242"/>
<path d="M295.081 227.993C295.081 229.577 293.797 230.861 292.213 230.861H278.815C277.231 230.861 275.947 229.577 275.947 227.993L275.947 221.182C275.947 219.598 277.231 218.314 278.815 218.314H292.213C293.797 218.314 295.081 219.598 295.081 221.182V227.993Z" fill="#2C3242"/>
<path d="M295.081 202.541C295.081 204.125 293.797 205.409 292.213 205.409H278.815C277.231 205.409 275.947 204.125 275.947 202.541L275.947 195.73C275.947 194.146 277.231 192.862 278.815 192.862H292.213C293.797 192.862 295.081 194.146 295.081 195.73V202.541Z" fill="#2C3242"/>
</g>
<path d="M295.081 99.3C295.081 100.884 293.797 102.168 292.213 102.168L278.815 102.168C277.231 102.168 275.947 100.884 275.947 99.3L275.947 92.4889C275.947 90.9051 277.231 89.6211 278.815 89.6211L292.213 89.6211C293.797 89.6211 295.081 90.9051 295.081 92.4889V99.3Z" fill="white"/>
<path d="M295.081 124.752C295.081 126.336 293.797 127.62 292.213 127.62L278.815 127.62C277.231 127.62 275.947 126.336 275.947 124.752L275.947 117.941C275.947 116.357 277.231 115.073 278.815 115.073H292.213C293.797 115.073 295.081 116.357 295.081 117.941V124.752Z" fill="white"/>
<path d="M295.081 150.204C295.081 151.787 293.797 153.071 292.213 153.071H278.815C277.231 153.071 275.947 151.787 275.947 150.204L275.947 143.393C275.947 141.809 277.231 140.525 278.815 140.525H292.213C293.797 140.525 295.081 141.809 295.081 143.393V150.204Z" fill="white"/>
<path d="M295.081 175.655C295.081 177.239 293.797 178.523 292.213 178.523H278.815C277.231 178.523 275.947 177.239 275.947 175.655L275.947 168.844C275.947 167.261 277.231 165.977 278.815 165.977H292.213C293.797 165.977 295.081 167.261 295.081 168.844V175.655Z" fill="white"/>
<path d="M295.081 226.559C295.081 228.143 293.797 229.427 292.213 229.427H278.815C277.231 229.427 275.947 228.143 275.947 226.559L275.947 219.748C275.947 218.164 277.231 216.88 278.815 216.88H292.213C293.797 216.88 295.081 218.164 295.081 219.748V226.559Z" fill="white"/>
<path d="M295.081 201.107C295.081 202.691 293.797 203.975 292.213 203.975H278.815C277.231 203.975 275.947 202.691 275.947 201.107L275.947 194.296C275.947 192.712 277.231 191.428 278.815 191.428H292.213C293.797 191.428 295.081 192.712 295.081 194.296V201.107Z" fill="white"/>
<g opacity="0.1">
<path d="M420.189 96.7893C420.189 99.759 417.781 102.166 414.812 102.166C411.842 102.166 409.435 99.759 409.435 96.7893C409.435 93.8195 411.842 91.4121 414.812 91.4121C417.781 91.4121 420.189 93.8195 420.189 96.7893Z" fill="#2C3242"/>
<path d="M420.189 121.883C420.189 124.852 417.781 127.26 414.812 127.26C411.842 127.26 409.435 124.852 409.435 121.883C409.435 118.913 411.842 116.505 414.812 116.505C417.781 116.505 420.189 118.913 420.189 121.883Z" fill="#2C3242"/>
<path d="M420.189 146.976C420.189 149.946 417.781 152.353 414.812 152.353C411.842 152.353 409.435 149.946 409.435 146.976C409.435 144.006 411.842 141.599 414.812 141.599C417.781 141.599 420.189 144.006 420.189 146.976Z" fill="#2C3242"/>
<path d="M420.189 172.069C420.189 175.039 417.781 177.446 414.812 177.446C411.842 177.446 409.435 175.039 409.435 172.069C409.435 169.1 411.842 166.692 414.812 166.692C417.781 166.692 420.189 169.1 420.189 172.069Z" fill="#2C3242"/>
<path d="M420.189 222.256C420.189 225.226 417.781 227.633 414.812 227.633C411.842 227.633 409.435 225.226 409.435 222.256C409.435 219.286 411.842 216.879 414.812 216.879C417.781 216.879 420.189 219.286 420.189 222.256Z" fill="#2C3242"/>
<path d="M420.189 197.163C420.189 200.132 417.781 202.54 414.812 202.54C411.842 202.54 409.435 200.132 409.435 197.163C409.435 194.193 411.842 191.786 414.812 191.786C417.781 191.786 420.189 194.193 420.189 197.163Z" fill="#2C3242"/>
<path d="M321.966 93.2045C321.966 92.6105 322.383 92.1291 322.898 92.1291H399.9C400.414 92.1291 400.831 92.6105 400.831 93.2045C400.831 93.7984 400.414 94.2799 399.9 94.2799H322.898C322.383 94.2799 321.966 93.7984 321.966 93.2045Z" fill="#2C3242"/>
<path d="M321.966 118.298C321.966 117.704 322.383 117.222 322.898 117.222H399.9C400.414 117.222 400.831 117.704 400.831 118.298C400.831 118.892 400.414 119.373 399.9 119.373H322.898C322.383 119.373 321.966 118.892 321.966 118.298Z" fill="#2C3242"/>
<path d="M321.966 100.016C321.966 99.4216 322.383 98.9401 322.898 98.9401H399.9C400.414 98.9401 400.831 99.4216 400.831 100.016C400.831 100.609 400.414 101.091 399.9 101.091H322.898C322.383 101.091 321.966 100.609 321.966 100.016Z" fill="#2C3242"/>
<path d="M321.966 125.109C321.966 124.515 322.383 124.033 322.898 124.033H399.9C400.414 124.033 400.831 124.515 400.831 125.109C400.831 125.703 400.414 126.184 399.9 126.184H322.898C322.383 126.184 321.966 125.703 321.966 125.109Z" fill="#2C3242"/>
<path d="M321.966 144.108C321.966 143.514 322.383 143.033 322.898 143.033H399.9C400.414 143.033 400.831 143.514 400.831 144.108C400.831 144.702 400.414 145.184 399.9 145.184H322.898C322.383 145.184 321.966 144.702 321.966 144.108Z" fill="#2C3242"/>
<path d="M321.966 169.202C321.966 168.608 322.383 168.126 322.898 168.126H399.9C400.414 168.126 400.831 168.608 400.831 169.202C400.831 169.795 400.414 170.277 399.9 170.277H322.898C322.383 170.277 321.966 169.795 321.966 169.202Z" fill="#2C3242"/>
<path d="M321.966 150.919C321.966 150.325 322.383 149.844 322.898 149.844H399.9C400.414 149.844 400.831 150.325 400.831 150.919C400.831 151.513 400.414 151.995 399.9 151.995H322.898C322.383 151.995 321.966 151.513 321.966 150.919Z" fill="#2C3242"/>
<path d="M321.966 176.013C321.966 175.419 322.383 174.937 322.898 174.937H399.9C400.414 174.937 400.831 175.419 400.831 176.013C400.831 176.607 400.414 177.088 399.9 177.088H322.898C322.383 177.088 321.966 176.607 321.966 176.013Z" fill="#2C3242"/>
<path d="M321.966 194.295C321.966 193.701 322.383 193.219 322.898 193.219H399.9C400.414 193.219 400.831 193.701 400.831 194.295C400.831 194.889 400.414 195.37 399.9 195.37H322.898C322.383 195.37 321.966 194.889 321.966 194.295Z" fill="#2C3242"/>
<path d="M321.966 219.388C321.966 218.794 322.383 218.313 322.898 218.313H399.9C400.414 218.313 400.831 218.794 400.831 219.388C400.831 219.982 400.414 220.464 399.9 220.464H322.898C322.383 220.464 321.966 219.982 321.966 219.388Z" fill="#2C3242"/>
<path d="M321.966 201.106C321.966 200.512 322.383 200.03 322.898 200.03H399.9C400.414 200.03 400.831 200.512 400.831 201.106C400.831 201.7 400.414 202.181 399.9 202.181H322.898C322.383 202.181 321.966 201.7 321.966 201.106Z" fill="#2C3242"/>
<path d="M321.966 226.199C321.966 225.605 322.383 225.124 322.898 225.124H399.9C400.414 225.124 400.831 225.605 400.831 226.199C400.831 226.793 400.414 227.275 399.9 227.275H322.898C322.383 227.275 321.966 226.793 321.966 226.199Z" fill="#2C3242"/>
</g>
</g>
</g>
<defs>
<filter id="filter0_d_1193_44788" x="-2.09588" y="30.8825" width="521.156" height="375.973" filterUnits="userSpaceOnUse" color-interpolation-filters="sRGB">
<feFlood flood-opacity="0" result="BackgroundImageFix"/>
<feColorMatrix in="SourceAlpha" type="matrix" values="0 0 0 0 0 0 0 0 0 0 0 0 0 0 0 0 0 0 127 0" result="hardAlpha"/>
<feOffset dy="4.88291"/>
<feGaussianBlur stdDeviation="10.9865"/>
<feColorMatrix type="matrix" values="0 0 0 0 0.230208 0 0 0 0 0.319526 0 0 0 0 0.65 0 0 0 0.1 0"/>
<feBlend mode="normal" in2="BackgroundImageFix" result="effect1_dropShadow_1193_44788"/>
<feBlend mode="normal" in="SourceGraphic" in2="effect1_dropShadow_1193_44788" result="shape"/>
</filter>
<filter id="filter1_d_1193_44788" x="230.872" y="-20.0573" width="245.693" height="387.293" filterUnits="userSpaceOnUse" color-interpolation-filters="sRGB">
<feFlood flood-opacity="0" result="BackgroundImageFix"/>
<feColorMatrix in="SourceAlpha" type="matrix" values="0 0 0 0 0 0 0 0 0 0 0 0 0 0 0 0 0 0 127 0" result="hardAlpha"/>
<feOffset dx="2.71555" dy="13.8871"/>
<feGaussianBlur stdDeviation="16.9722"/>
<feComposite in2="hardAlpha" operator="out"/>
<feColorMatrix type="matrix" values="0 0 0 0 0.168157 0 0 0 0 0.187609 0 0 0 0 0.654449 0 0 0 0.16 0"/>
<feBlend mode="normal" in2="BackgroundImageFix" result="effect1_dropShadow_1193_44788"/>
<feBlend mode="normal" in="SourceGraphic" in2="effect1_dropShadow_1193_44788" result="shape"/>
</filter>
<clipPath id="clip0_1193_44788">
<rect width="485" height="400" fill="white"/>
</clipPath>
</defs>
</svg>
